<ttFont>
    <TTGlyph name=".ttfautohint" xMin="0" yMin="0" xMax="0" yMax="0">
      <contour>
        <pt x="0" y="0" on="1"/>
      </contour>
    </TTGlyph>
    <TTGlyph name="A" xMin="-10" yMin="0" xMax="604" yMax="627">
      <contour>
        <pt x="210" y="45" on="1"/>
        <pt x="210" y="0" on="1"/>
        <pt x="-10" y="0" on="1"/>
        <pt x="-10" y="44" on="1"/>
        <pt x="61" y="69" on="1"/>
        <pt x="250" y="614" on="1"/>
        <pt x="328" y="627" on="1"/>
        <pt x="533" y="69" on="1"/>
        <pt x="604" y="45" on="1"/>
        <pt x="604" y="0" on="1"/>
        <pt x="326" y="0" on="1"/>
        <pt x="326" y="45" on="1"/>
        <pt x="391" y="65" on="1"/>
        <pt x="362" y="153" on="1"/>
        <pt x="170" y="153" on="1"/>
        <pt x="142" y="68" on="1"/>
      </contour>
      <contour>
        <pt x="189" y="207" on="1"/>
        <pt x="342" y="207" on="1"/>
        <pt x="262" y="423" on="1"/>
      </contour>
    </TTGlyph>
    <TTGlyph name="AE" xMin="-52" yMin="0" xMax="675" yMax="614">
      <contour>
        <pt x="-52" y="44" on="1"/>
        <pt x="19" y="69" on="1"/>
        <pt x="275" y="551" on="1"/>
        <pt x="210" y="569" on="1"/>
        <pt x="210" y="614" on="1"/>
        <pt x="634" y="614" on="1"/>
        <pt x="634" y="468" on="1"/>
        <pt x="578" y="468" on="1"/>
        <pt x="556" y="546" on="1"/>
        <pt x="425" y="546" on="1"/>
        <pt x="441" y="316" on="1"/>
        <pt x="512" y="316" on="1"/>
        <pt x="529" y="382" on="1"/>
        <pt x="582" y="382" on="1"/>
        <pt x="582" y="191" on="1"/>
        <pt x="529" y="191" on="1"/>
        <pt x="510" y="260" on="1"/>
        <pt x="445" y="260" on="1"/>
        <pt x="459" y="69" on="1"/>
        <pt x="593" y="69" on="1"/>
        <pt x="619" y="162" on="1"/>
        <pt x="675" y="162" on="1"/>
        <pt x="675" y="0" on="1"/>
        <pt x="245" y="0" on="1"/>
        <pt x="245" y="45" on="1"/>
        <pt x="329" y="69" on="1"/>
        <pt x="315" y="254" on="1"/>
        <pt x="195" y="254" on="1"/>
        <pt x="100" y="68" on="1"/>
        <pt x="168" y="45" on="1"/>
        <pt x="168" y="0" on="1"/>
        <pt x="-52" y="0" on="1"/>
      </contour>
      <contour>
        <pt x="311" y="310" on="1"/>
        <pt x="301" y="459" on="1"/>
        <pt x="224" y="310" on="1"/>
      </contour>
    </TTGlyph>
    <TTGlyph name="AEacute" xMin="-52" yMin="0" xMax="675" yMax="800">
      <component glyphName=".ttfautohint" x="0" y="0" flags="0x0"/>
      <component glyphName="AE" x="0" y="0" flags="0x0"/>
      <component glyphName="acutecomb" x="540" y="0" flags="0x0"/>
    </TTGlyph>
    <TTGlyph name="Aacute" xMin="-10" yMin="0" xMax="604" yMax="800">
      <contour>
        <pt x="183" y="669" on="1"/>
        <pt x="339" y="800" on="1"/>
        <pt x="438" y="766" on="1"/>
        <pt x="438" y="743" on="1"/>
        <pt x="210" y="634" on="1"/>
      </contour>
      <contour>
        <pt x="210" y="45" on="1"/>
        <pt x="210" y="0" on="1"/>
        <pt x="-10" y="0" on="1"/>
        <pt x="-10" y="44" on="1"/>
        <pt x="61" y="69" on="1"/>
        <pt x="250" y="614" on="1"/>
        <pt x="328" y="627" on="1"/>
        <pt x="533" y="69" on="1"/>
        <pt x="604" y="45" on="1"/>
        <pt x="604" y="0" on="1"/>
        <pt x="326" y="0" on="1"/>
        <pt x="326" y="45" on="1"/>
        <pt x="391" y="65" on="1"/>
        <pt x="362" y="153" on="1"/>
        <pt x="170" y="153" on="1"/>
        <pt x="142" y="68" on="1"/>
      </contour>
      <contour>
        <pt x="189" y="207" on="1"/>
        <pt x="342" y="207" on="1"/>
        <pt x="262" y="423" on="1"/>
      </contour>
    </TTGlyph>
    <TTGlyph name="Abreve" xMin="-10" yMin="0" xMax="604" yMax="788">
      <contour>
        <pt x="216" y="651" on="0"/>
        <pt x="163" y="725" on="0"/>
        <pt x="163" y="786" on="1"/>
        <pt x="222" y="788" on="1"/>
        <pt x="222" y="727" on="0"/>
        <pt x="280" y="727" on="1"/>
        <pt x="349" y="727" on="0"/>
        <pt x="349" y="788" on="1"/>
        <pt x="406" y="786" on="1"/>
        <pt x="406" y="723" on="0"/>
        <pt x="356" y="651" on="0"/>
        <pt x="286" y="651" on="1"/>
      </contour>
      <contour>
        <pt x="210" y="45" on="1"/>
        <pt x="210" y="0" on="1"/>
        <pt x="-10" y="0" on="1"/>
        <pt x="-10" y="44" on="1"/>
        <pt x="61" y="69" on="1"/>
        <pt x="250" y="614" on="1"/>
        <pt x="328" y="627" on="1"/>
        <pt x="533" y="69" on="1"/>
        <pt x="604" y="45" on="1"/>
        <pt x="604" y="0" on="1"/>
        <pt x="326" y="0" on="1"/>
        <pt x="326" y="45" on="1"/>
        <pt x="391" y="65" on="1"/>
        <pt x="362" y="153" on="1"/>
        <pt x="170" y="153" on="1"/>
        <pt x="142" y="68" on="1"/>
      </contour>
      <contour>
        <pt x="189" y="207" on="1"/>
        <pt x="342" y="207" on="1"/>
        <pt x="262" y="423" on="1"/>
      </contour>
    </TTGlyph>
    <TTGlyph name="Acircumflex" xMin="-10" yMin="0" xMax="604" yMax="800">
      <contour>
        <pt x="289" y="717" on="1"/>
        <pt x="163" y="640" on="1"/>
        <pt x="137" y="665" on="1"/>
        <pt x="247" y="800" on="1"/>
        <pt x="332" y="800" on="1"/>
        <pt x="441" y="665" on="1"/>
        <pt x="418" y="640" on="1"/>
      </contour>
      <contour>
        <pt x="210" y="45" on="1"/>
        <pt x="210" y="0" on="1"/>
        <pt x="-10" y="0" on="1"/>
        <pt x="-10" y="44" on="1"/>
        <pt x="61" y="69" on="1"/>
        <pt x="250" y="614" on="1"/>
        <pt x="328" y="627" on="1"/>
        <pt x="533" y="69" on="1"/>
        <pt x="604" y="45" on="1"/>
        <pt x="604" y="0" on="1"/>
        <pt x="326" y="0" on="1"/>
        <pt x="326" y="45" on="1"/>
        <pt x="391" y="65" on="1"/>
        <pt x="362" y="153" on="1"/>
        <pt x="170" y="153" on="1"/>
        <pt x="142" y="68" on="1"/>
      </contour>
      <contour>
        <pt x="189" y="207" on="1"/>
        <pt x="342" y="207" on="1"/>
        <pt x="262" y="423" on="1"/>
      </contour>
    </TTGlyph>
    <TTGlyph name="Adieresis" xMin="-10" yMin="0" xMax="604" yMax="792">
      <contour>
        <pt x="253" y="688" on="0"/>
        <pt x="210" y="647" on="0"/>
        <pt x="179" y="647" on="1"/>
        <pt x="147" y="647" on="0"/>
        <pt x="101" y="688" on="0"/>
        <pt x="101" y="719" on="1"/>
        <pt x="101" y="749" on="0"/>
        <pt x="148" y="792" on="0"/>
        <pt x="179" y="792" on="1"/>
        <pt x="209" y="792" on="0"/>
        <pt x="253" y="749" on="0"/>
        <pt x="253" y="719" on="1"/>
      </contour>
      <contour>
        <pt x="484" y="688" on="0"/>
        <pt x="440" y="647" on="0"/>
        <pt x="411" y="647" on="1"/>
        <pt x="379" y="647" on="0"/>
        <pt x="334" y="688" on="0"/>
        <pt x="334" y="719" on="1"/>
        <pt x="334" y="750" on="0"/>
        <pt x="379" y="792" on="0"/>
        <pt x="411" y="792" on="1"/>
        <pt x="440" y="792" on="0"/>
        <pt x="484" y="749" on="0"/>
        <pt x="484" y="719" on="1"/>
      </contour>
      <contour>
        <pt x="210" y="45" on="1"/>
        <pt x="210" y="0" on="1"/>
        <pt x="-10" y="0" on="1"/>
        <pt x="-10" y="44" on="1"/>
        <pt x="61" y="69" on="1"/>
        <pt x="250" y="614" on="1"/>
        <pt x="328" y="627" on="1"/>
        <pt x="533" y="69" on="1"/>
        <pt x="604" y="45" on="1"/>
        <pt x="604" y="0" on="1"/>
        <pt x="326" y="0" on="1"/>
        <pt x="326" y="45" on="1"/>
        <pt x="391" y="65" on="1"/>
        <pt x="362" y="153" on="1"/>
        <pt x="170" y="153" on="1"/>
        <pt x="142" y="68" on="1"/>
      </contour>
      <contour>
        <pt x="189" y="207" on="1"/>
        <pt x="342" y="207" on="1"/>
        <pt x="262" y="423" on="1"/>
      </contour>
    </TTGlyph>
    <TTGlyph name="Agrave" xMin="-10" yMin="0" xMax="604" yMax="800">
      <contour>
        <pt x="141" y="743" on="1"/>
        <pt x="145" y="766" on="1"/>
        <pt x="242" y="800" on="1"/>
        <pt x="396" y="669" on="1"/>
        <pt x="373" y="634" on="1"/>
      </contour>
      <contour>
        <pt x="210" y="45" on="1"/>
        <pt x="210" y="0" on="1"/>
        <pt x="-10" y="0" on="1"/>
        <pt x="-10" y="44" on="1"/>
        <pt x="61" y="69" on="1"/>
        <pt x="250" y="614" on="1"/>
        <pt x="328" y="627" on="1"/>
        <pt x="533" y="69" on="1"/>
        <pt x="604" y="45" on="1"/>
        <pt x="604" y="0" on="1"/>
        <pt x="326" y="0" on="1"/>
        <pt x="326" y="45" on="1"/>
        <pt x="391" y="65" on="1"/>
        <pt x="362" y="153" on="1"/>
        <pt x="170" y="153" on="1"/>
        <pt x="142" y="68" on="1"/>
      </contour>
      <contour>
        <pt x="189" y="207" on="1"/>
        <pt x="342" y="207" on="1"/>
        <pt x="262" y="423" on="1"/>
      </contour>
    </TTGlyph>
    <TTGlyph name="Amacron" xMin="-10" yMin="0" xMax="604" yMax="758">
      <contour>
        <pt x="408" y="758" on="1"/>
        <pt x="408" y="679" on="1"/>
        <pt x="167" y="679" on="1"/>
        <pt x="167" y="758" on="1"/>
      </contour>
      <contour>
        <pt x="210" y="45" on="1"/>
        <pt x="210" y="0" on="1"/>
        <pt x="-10" y="0" on="1"/>
        <pt x="-10" y="44" on="1"/>
        <pt x="61" y="69" on="1"/>
        <pt x="250" y="614" on="1"/>
        <pt x="328" y="627" on="1"/>
        <pt x="533" y="69" on="1"/>
        <pt x="604" y="45" on="1"/>
        <pt x="604" y="0" on="1"/>
        <pt x="326" y="0" on="1"/>
        <pt x="326" y="45" on="1"/>
        <pt x="391" y="65" on="1"/>
        <pt x="362" y="153" on="1"/>
        <pt x="170" y="153" on="1"/>
        <pt x="142" y="68" on="1"/>
      </contour>
      <contour>
        <pt x="189" y="207" on="1"/>
        <pt x="342" y="207" on="1"/>
        <pt x="262" y="423" on="1"/>
      </contour>
    </TTGlyph>
    <TTGlyph name="Aogonek" xMin="-10" yMin="-233" xMax="604" yMax="627">
      <contour>
        <pt x="-10" y="44" on="1"/>
        <pt x="61" y="69" on="1"/>
        <pt x="250" y="614" on="1"/>
        <pt x="328" y="627" on="1"/>
        <pt x="533" y="69" on="1"/>
        <pt x="604" y="45" on="1"/>
        <pt x="604" y="0" on="1"/>
        <pt x="488" y="0" on="1"/>
        <pt x="456" y="0" on="0"/>
        <pt x="399" y="-31" on="0"/>
        <pt x="365" y="-84" on="0"/>
        <pt x="365" y="-116" on="1"/>
        <pt x="365" y="-143" on="0"/>
        <pt x="385" y="-171" on="0"/>
        <pt x="408" y="-171" on="1"/>
        <pt x="438" y="-171" on="0"/>
        <pt x="469" y="-149" on="1"/>
        <pt x="492" y="-171" on="1"/>
        <pt x="492" y="-173" on="0"/>
        <pt x="465" y="-205" on="0"/>
        <pt x="416" y="-233" on="0"/>
        <pt x="382" y="-233" on="1"/>
        <pt x="329" y="-233" on="0"/>
        <pt x="280" y="-185" on="0"/>
        <pt x="280" y="-147" on="1"/>
        <pt x="280" y="-112" on="0"/>
        <pt x="316" y="-54" on="0"/>
        <pt x="348" y="-19" on="1"/>
        <pt x="370" y="6" on="0"/>
        <pt x="391" y="37" on="0"/>
        <pt x="391" y="51" on="1"/>
        <pt x="391" y="64" on="0"/>
        <pt x="384" y="85" on="1"/>
        <pt x="362" y="153" on="1"/>
        <pt x="170" y="153" on="1"/>
        <pt x="142" y="68" on="1"/>
        <pt x="210" y="45" on="1"/>
        <pt x="210" y="0" on="1"/>
        <pt x="-10" y="0" on="1"/>
      </contour>
      <contour>
        <pt x="189" y="207" on="1"/>
        <pt x="342" y="207" on="1"/>
        <pt x="262" y="423" on="1"/>
      </contour>
    </TTGlyph>
    <TTGlyph name="Aring" xMin="-10" yMin="0" xMax="604" yMax="819">
      <contour>
        <pt x="232" y="627" on="0"/>
        <pt x="173" y="679" on="0"/>
        <pt x="173" y="721" on="1"/>
        <pt x="173" y="764" on="0"/>
        <pt x="232" y="819" on="0"/>
        <pt x="286" y="819" on="1"/>
        <pt x="341" y="819" on="0"/>
        <pt x="400" y="764" on="0"/>
        <pt x="400" y="721" on="1"/>
        <pt x="400" y="679" on="0"/>
        <pt x="342" y="627" on="0"/>
        <pt x="286" y="627" on="1"/>
      </contour>
      <contour>
        <pt x="310" y="674" on="0"/>
        <pt x="326" y="699" on="0"/>
        <pt x="326" y="721" on="1"/>
        <pt x="326" y="744" on="0"/>
        <pt x="310" y="771" on="0"/>
        <pt x="286" y="771" on="1"/>
        <pt x="262" y="771" on="0"/>
        <pt x="247" y="744" on="0"/>
        <pt x="247" y="721" on="1"/>
        <pt x="247" y="699" on="0"/>
        <pt x="262" y="674" on="0"/>
        <pt x="286" y="674" on="1"/>
      </contour>
      <contour>
        <pt x="-10" y="44" on="1"/>
        <pt x="61" y="69" on="1"/>
        <pt x="250" y="614" on="1"/>
        <pt x="328" y="627" on="1"/>
        <pt x="533" y="69" on="1"/>
        <pt x="604" y="45" on="1"/>
        <pt x="604" y="0" on="1"/>
        <pt x="326" y="0" on="1"/>
        <pt x="326" y="45" on="1"/>
        <pt x="391" y="65" on="1"/>
        <pt x="362" y="153" on="1"/>
        <pt x="170" y="153" on="1"/>
        <pt x="142" y="68" on="1"/>
        <pt x="210" y="45" on="1"/>
        <pt x="210" y="0" on="1"/>
        <pt x="-10" y="0" on="1"/>
      </contour>
      <contour>
        <pt x="342" y="207" on="1"/>
        <pt x="262" y="423" on="1"/>
        <pt x="189" y="207" on="1"/>
      </contour>
    </TTGlyph>
    <TTGlyph name="Aringacute" xMin="-10" yMin="0" xMax="604" yMax="980">
      <contour>
        <pt x="242" y="627" on="0"/>
        <pt x="183" y="679" on="0"/>
        <pt x="183" y="721" on="1"/>
        <pt x="183" y="756" on="0"/>
        <pt x="223" y="806" on="0"/>
        <pt x="260" y="815" on="1"/>
        <pt x="234" y="849" on="1"/>
        <pt x="390" y="980" on="1"/>
        <pt x="489" y="946" on="1"/>
        <pt x="489" y="923" on="1"/>
        <pt x="266" y="816" on="1"/>
        <pt x="279" y="819" on="0"/>
        <pt x="296" y="819" on="1"/>
        <pt x="351" y="819" on="0"/>
        <pt x="410" y="764" on="0"/>
        <pt x="410" y="721" on="1"/>
        <pt x="410" y="679" on="0"/>
        <pt x="352" y="627" on="0"/>
        <pt x="296" y="627" on="1"/>
      </contour>
      <contour>
        <pt x="272" y="771" on="0"/>
        <pt x="257" y="744" on="0"/>
        <pt x="257" y="721" on="1"/>
        <pt x="257" y="699" on="0"/>
        <pt x="272" y="674" on="0"/>
        <pt x="296" y="674" on="1"/>
        <pt x="320" y="674" on="0"/>
        <pt x="336" y="699" on="0"/>
        <pt x="336" y="721" on="1"/>
        <pt x="336" y="744" on="0"/>
        <pt x="320" y="771" on="0"/>
        <pt x="296" y="771" on="1"/>
      </contour>
      <contour>
        <pt x="604" y="45" on="1"/>
        <pt x="604" y="0" on="1"/>
        <pt x="326" y="0" on="1"/>
        <pt x="326" y="45" on="1"/>
        <pt x="391" y="65" on="1"/>
        <pt x="362" y="153" on="1"/>
        <pt x="170" y="153" on="1"/>
        <pt x="142" y="68" on="1"/>
        <pt x="210" y="45" on="1"/>
        <pt x="210" y="0" on="1"/>
        <pt x="-10" y="0" on="1"/>
        <pt x="-10" y="44" on="1"/>
        <pt x="61" y="69" on="1"/>
        <pt x="250" y="614" on="1"/>
        <pt x="328" y="627" on="1"/>
        <pt x="533" y="69" on="1"/>
      </contour>
      <contour>
        <pt x="342" y="207" on="1"/>
        <pt x="262" y="423" on="1"/>
        <pt x="189" y="207" on="1"/>
      </contour>
    </TTGlyph>
    <TTGlyph name="Atilde" xMin="-10" yMin="0" xMax="604" yMax="790">
      <contour>
        <pt x="425" y="661" on="0"/>
        <pt x="382" y="661" on="1"/>
        <pt x="354" y="661" on="0"/>
        <pt x="284" y="681" on="1"/>
        <pt x="225" y="698" on="0"/>
        <pt x="206" y="698" on="1"/>
        <pt x="195" y="698" on="0"/>
        <pt x="178" y="684" on="0"/>
        <pt x="167" y="669" on="0"/>
        <pt x="166" y="667" on="1"/>
        <pt x="119" y="686" on="1"/>
        <pt x="135" y="731" on="0"/>
        <pt x="182" y="790" on="0"/>
        <pt x="206" y="790" on="1"/>
        <pt x="235" y="790" on="0"/>
        <pt x="303" y="770" on="1"/>
        <pt x="362" y="753" on="0"/>
        <pt x="382" y="753" on="1"/>
        <pt x="393" y="753" on="0"/>
        <pt x="412" y="767" on="0"/>
        <pt x="423" y="782" on="0"/>
        <pt x="424" y="784" on="1"/>
        <pt x="468" y="765" on="1"/>
      </contour>
      <contour>
        <pt x="210" y="45" on="1"/>
        <pt x="210" y="0" on="1"/>
        <pt x="-10" y="0" on="1"/>
        <pt x="-10" y="44" on="1"/>
        <pt x="61" y="69" on="1"/>
        <pt x="250" y="614" on="1"/>
        <pt x="328" y="627" on="1"/>
        <pt x="533" y="69" on="1"/>
        <pt x="604" y="45" on="1"/>
        <pt x="604" y="0" on="1"/>
        <pt x="326" y="0" on="1"/>
        <pt x="326" y="45" on="1"/>
        <pt x="391" y="65" on="1"/>
        <pt x="362" y="153" on="1"/>
        <pt x="170" y="153" on="1"/>
        <pt x="142" y="68" on="1"/>
      </contour>
      <contour>
        <pt x="189" y="207" on="1"/>
        <pt x="342" y="207" on="1"/>
        <pt x="262" y="423" on="1"/>
      </contour>
    </TTGlyph>
    <TTGlyph name="B" xMin="35" yMin="0" xMax="543" yMax="614">
      <contour>
        <pt x="464" y="313" on="0"/>
        <pt x="543" y="231" on="0"/>
        <pt x="543" y="169" on="1"/>
        <pt x="543" y="91" on="0"/>
        <pt x="420" y="0" on="0"/>
        <pt x="300" y="0" on="1"/>
        <pt x="36" y="0" on="1"/>
        <pt x="36" y="45" on="1"/>
        <pt x="120" y="69" on="1"/>
        <pt x="120" y="546" on="1"/>
        <pt x="35" y="569" on="1"/>
        <pt x="35" y="614" on="1"/>
        <pt x="309" y="614" on="1"/>
        <pt x="527" y="614" on="0"/>
        <pt x="527" y="464" on="1"/>
        <pt x="527" y="408" on="0"/>
        <pt x="448" y="335" on="0"/>
        <pt x="384" y="324" on="1"/>
      </contour>
      <contour>
        <pt x="330" y="343" on="0"/>
        <pt x="392" y="395" on="0"/>
        <pt x="392" y="460" on="1"/>
        <pt x="392" y="507" on="0"/>
        <pt x="345" y="553" on="0"/>
        <pt x="304" y="553" on="1"/>
        <pt x="287" y="553" on="0"/>
        <pt x="259" y="547" on="0"/>
        <pt x="255" y="546" on="1"/>
        <pt x="255" y="343" on="1"/>
        <pt x="284" y="343" on="1"/>
      </contour>
      <contour>
        <pt x="274" y="63" on="0"/>
        <pt x="304" y="63" on="1"/>
        <pt x="350" y="63" on="0"/>
        <pt x="404" y="119" on="0"/>
        <pt x="404" y="175" on="1"/>
        <pt x="404" y="231" on="0"/>
        <pt x="335" y="289" on="0"/>
        <pt x="282" y="289" on="1"/>
        <pt x="255" y="289" on="1"/>
        <pt x="255" y="69" on="1"/>
      </contour>
    </TTGlyph>
    <TTGlyph name="C" xMin="30" yMin="-11" xMax="518" yMax="629">
      <contour>
        <pt x="472" y="5" on="0"/>
        <pt x="385" y="-11" on="0"/>
        <pt x="330" y="-11" on="1"/>
        <pt x="227" y="-11" on="0"/>
        <pt x="93" y="75" on="0"/>
        <pt x="30" y="220" on="0"/>
        <pt x="30" y="312" on="1"/>
        <pt x="30" y="453" on="0"/>
        <pt x="176" y="629" on="0"/>
        <pt x="330" y="629" on="1"/>
        <pt x="387" y="629" on="0"/>
        <pt x="468" y="614" on="0"/>
        <pt x="518" y="600" on="1"/>
        <pt x="507" y="447" on="1"/>
        <pt x="457" y="447" on="1"/>
        <pt x="432" y="545" on="1"/>
        <pt x="416" y="551" on="0"/>
        <pt x="370" y="558" on="0"/>
        <pt x="349" y="558" on="1"/>
        <pt x="248" y="558" on="0"/>
        <pt x="172" y="423" on="0"/>
        <pt x="172" y="312" on="1"/>
        <pt x="172" y="206" on="0"/>
        <pt x="251" y="63" on="0"/>
        <pt x="345" y="63" on="1"/>
        <pt x="387" y="63" on="0"/>
        <pt x="432" y="76" on="1"/>
        <pt x="457" y="162" on="1"/>
        <pt x="510" y="162" on="1"/>
        <pt x="518" y="21" on="1"/>
      </contour>
    </TTGlyph>
    <TTGlyph name="Cacute" xMin="30" yMin="-11" xMax="518" yMax="800">
      <contour>
        <pt x="210" y="669" on="1"/>
        <pt x="366" y="800" on="1"/>
        <pt x="465" y="766" on="1"/>
        <pt x="465" y="743" on="1"/>
        <pt x="237" y="634" on="1"/>
      </contour>
      <contour>
        <pt x="472" y="5" on="0"/>
        <pt x="385" y="-11" on="0"/>
        <pt x="330" y="-11" on="1"/>
        <pt x="227" y="-11" on="0"/>
        <pt x="93" y="75" on="0"/>
        <pt x="30" y="220" on="0"/>
        <pt x="30" y="312" on="1"/>
        <pt x="30" y="453" on="0"/>
        <pt x="176" y="629" on="0"/>
        <pt x="330" y="629" on="1"/>
        <pt x="387" y="629" on="0"/>
        <pt x="468" y="614" on="0"/>
        <pt x="518" y="600" on="1"/>
        <pt x="507" y="447" on="1"/>
        <pt x="457" y="447" on="1"/>
        <pt x="432" y="545" on="1"/>
        <pt x="416" y="551" on="0"/>
        <pt x="370" y="558" on="0"/>
        <pt x="349" y="558" on="1"/>
        <pt x="248" y="558" on="0"/>
        <pt x="172" y="423" on="0"/>
        <pt x="172" y="312" on="1"/>
        <pt x="172" y="206" on="0"/>
        <pt x="251" y="63" on="0"/>
        <pt x="345" y="63" on="1"/>
        <pt x="387" y="63" on="0"/>
        <pt x="432" y="76" on="1"/>
        <pt x="457" y="162" on="1"/>
        <pt x="510" y="162" on="1"/>
        <pt x="518" y="21" on="1"/>
      </contour>
    </TTGlyph>
    <TTGlyph name="Cacute.loclPLK" xMin="30" yMin="-11" xMax="518" yMax="814">
      <component glyphName=".ttfautohint" x="30" y="0" flags="0x0"/>
      <component glyphName="C" x="0" y="0" flags="0x0"/>
      <component glyphName="acute.loclPLK.case" x="219" y="0" flags="0x0"/>
    </TTGlyph>
    <TTGlyph name="Ccaron" xMin="30" yMin="-11" xMax="518" yMax="800">
      <contour>
        <pt x="164" y="775" on="1"/>
        <pt x="190" y="800" on="1"/>
        <pt x="316" y="723" on="1"/>
        <pt x="445" y="800" on="1"/>
        <pt x="468" y="775" on="1"/>
        <pt x="359" y="641" on="1"/>
        <pt x="274" y="641" on="1"/>
      </contour>
      <contour>
        <pt x="227" y="-11" on="0"/>
        <pt x="93" y="75" on="0"/>
        <pt x="30" y="220" on="0"/>
        <pt x="30" y="312" on="1"/>
        <pt x="30" y="453" on="0"/>
        <pt x="176" y="629" on="0"/>
        <pt x="330" y="629" on="1"/>
        <pt x="387" y="629" on="0"/>
        <pt x="468" y="614" on="0"/>
        <pt x="518" y="600" on="1"/>
        <pt x="507" y="447" on="1"/>
        <pt x="457" y="447" on="1"/>
        <pt x="432" y="545" on="1"/>
        <pt x="416" y="551" on="0"/>
        <pt x="370" y="558" on="0"/>
        <pt x="349" y="558" on="1"/>
        <pt x="248" y="558" on="0"/>
        <pt x="172" y="423" on="0"/>
        <pt x="172" y="312" on="1"/>
        <pt x="172" y="206" on="0"/>
        <pt x="251" y="63" on="0"/>
        <pt x="345" y="63" on="1"/>
        <pt x="387" y="63" on="0"/>
        <pt x="432" y="76" on="1"/>
        <pt x="457" y="162" on="1"/>
        <pt x="510" y="162" on="1"/>
        <pt x="518" y="21" on="1"/>
        <pt x="472" y="5" on="0"/>
        <pt x="385" y="-11" on="0"/>
        <pt x="330" y="-11" on="1"/>
      </contour>
    </TTGlyph>
    <TTGlyph name="Ccedilla" xMin="30" yMin="-220" xMax="518" yMax="629">
      <contour>
        <pt x="473" y="5" on="0"/>
        <pt x="391" y="-10" on="0"/>
        <pt x="339" y="-11" on="1"/>
        <pt x="328" y="-46" on="1"/>
        <pt x="377" y="-46" on="0"/>
        <pt x="427" y="-86" on="0"/>
        <pt x="427" y="-118" on="1"/>
        <pt x="427" y="-145" on="0"/>
        <pt x="389" y="-192" on="0"/>
        <pt x="326" y="-220" on="0"/>
        <pt x="291" y="-220" on="1"/>
        <pt x="260" y="-220" on="0"/>
        <pt x="237" y="-209" on="1"/>
        <pt x="245" y="-169" on="1"/>
        <pt x="258" y="-176" on="0"/>
        <pt x="273" y="-176" on="1"/>
        <pt x="300" y="-176" on="0"/>
        <pt x="331" y="-148" on="0"/>
        <pt x="331" y="-131" on="1"/>
        <pt x="331" y="-115" on="0"/>
        <pt x="305" y="-93" on="0"/>
        <pt x="276" y="-92" on="1"/>
        <pt x="269" y="-73" on="1"/>
        <pt x="292" y="-9" on="1"/>
        <pt x="159" y="2" on="0"/>
        <pt x="30" y="179" on="0"/>
        <pt x="30" y="312" on="1"/>
        <pt x="30" y="453" on="0"/>
        <pt x="176" y="629" on="0"/>
        <pt x="330" y="629" on="1"/>
        <pt x="387" y="629" on="0"/>
        <pt x="468" y="614" on="0"/>
        <pt x="518" y="600" on="1"/>
        <pt x="507" y="447" on="1"/>
        <pt x="457" y="447" on="1"/>
        <pt x="432" y="545" on="1"/>
        <pt x="416" y="551" on="0"/>
        <pt x="370" y="558" on="0"/>
        <pt x="349" y="558" on="1"/>
        <pt x="248" y="558" on="0"/>
        <pt x="172" y="423" on="0"/>
        <pt x="172" y="312" on="1"/>
        <pt x="172" y="206" on="0"/>
        <pt x="251" y="63" on="0"/>
        <pt x="345" y="63" on="1"/>
        <pt x="387" y="63" on="0"/>
        <pt x="432" y="76" on="1"/>
        <pt x="457" y="162" on="1"/>
        <pt x="510" y="162" on="1"/>
        <pt x="518" y="21" on="1"/>
      </contour>
    </TTGlyph>
    <TTGlyph name="Ccircumflex" xMin="30" yMin="-11" xMax="518" yMax="800">
      <component glyphName=".ttfautohint" x="30" y="0" flags="0x0"/>
      <component glyphName="C" x="0" y="0" flags="0x0"/>
      <component glyphName="uni0302" x="442" y="0" flags="0x0"/>
    </TTGlyph>
    <TTGlyph name="Cdotaccent" xMin="30" yMin="-11" xMax="518" yMax="799">
      <component glyphName=".ttfautohint" x="30" y="0" flags="0x0"/>
      <component glyphName="C" x="0" y="0" flags="0x0"/>
      <component glyphName="uni0307" x="442" y="0" flags="0x0"/>
    </TTGlyph>
    <TTGlyph name="D" xMin="35" yMin="0" xMax="625" yMax="614">
      <contour>
        <pt x="471" y="614" on="0"/>
        <pt x="625" y="457" on="0"/>
        <pt x="625" y="320" on="1"/>
        <pt x="625" y="178" on="0"/>
        <pt x="478" y="0" on="0"/>
        <pt x="328" y="0" on="1"/>
        <pt x="36" y="0" on="1"/>
        <pt x="36" y="45" on="1"/>
        <pt x="120" y="69" on="1"/>
        <pt x="120" y="546" on="1"/>
        <pt x="35" y="569" on="1"/>
        <pt x="35" y="614" on="1"/>
        <pt x="309" y="614" on="1"/>
      </contour>
      <contour>
        <pt x="279" y="552" on="0"/>
        <pt x="255" y="546" on="1"/>
        <pt x="255" y="69" on="1"/>
        <pt x="293" y="57" on="0"/>
        <pt x="333" y="57" on="1"/>
        <pt x="419" y="57" on="0"/>
        <pt x="483" y="200" on="0"/>
        <pt x="483" y="320" on="1"/>
        <pt x="483" y="388" on="0"/>
        <pt x="440" y="493" on="0"/>
        <pt x="361" y="552" on="0"/>
        <pt x="308" y="552" on="1"/>
      </contour>
    </TTGlyph>
    <TTGlyph name="Dcaron" xMin="35" yMin="0" xMax="625" yMax="800">
      <contour>
        <pt x="156" y="775" on="1"/>
        <pt x="182" y="800" on="1"/>
        <pt x="308" y="723" on="1"/>
        <pt x="437" y="800" on="1"/>
        <pt x="460" y="775" on="1"/>
        <pt x="351" y="641" on="1"/>
        <pt x="266" y="641" on="1"/>
      </contour>
      <contour>
        <pt x="36" y="45" on="1"/>
        <pt x="120" y="69" on="1"/>
        <pt x="120" y="546" on="1"/>
        <pt x="35" y="569" on="1"/>
        <pt x="35" y="614" on="1"/>
        <pt x="309" y="614" on="1"/>
        <pt x="471" y="614" on="0"/>
        <pt x="625" y="457" on="0"/>
        <pt x="625" y="320" on="1"/>
        <pt x="625" y="178" on="0"/>
        <pt x="478" y="0" on="0"/>
        <pt x="328" y="0" on="1"/>
        <pt x="36" y="0" on="1"/>
      </contour>
      <contour>
        <pt x="419" y="57" on="0"/>
        <pt x="483" y="200" on="0"/>
        <pt x="483" y="320" on="1"/>
        <pt x="483" y="388" on="0"/>
        <pt x="440" y="493" on="0"/>
        <pt x="361" y="552" on="0"/>
        <pt x="308" y="552" on="1"/>
        <pt x="279" y="552" on="0"/>
        <pt x="255" y="546" on="1"/>
        <pt x="255" y="69" on="1"/>
        <pt x="293" y="57" on="0"/>
        <pt x="333" y="57" on="1"/>
      </contour>
    </TTGlyph>
    <TTGlyph name="Dcroat" xMin="38" yMin="0" xMax="628" yMax="614">
      <component glyphName=".ttfautohint" x="38" y="0" flags="0x0"/>
      <component glyphName="Eth" x="0" y="0" flags="0x0"/>
    </TTGlyph>
    <TTGlyph name="E" xMin="35" yMin="0" xMax="518" yMax="614">
      <contour>
        <pt x="431" y="396" on="1"/>
        <pt x="431" y="205" on="1"/>
        <pt x="378" y="205" on="1"/>
        <pt x="359" y="274" on="1"/>
        <pt x="255" y="274" on="1"/>
        <pt x="255" y="69" on="1"/>
        <pt x="436" y="69" on="1"/>
        <pt x="462" y="162" on="1"/>
        <pt x="518" y="162" on="1"/>
        <pt x="518" y="0" on="1"/>
        <pt x="36" y="0" on="1"/>
        <pt x="36" y="45" on="1"/>
        <pt x="120" y="69" on="1"/>
        <pt x="120" y="546" on="1"/>
        <pt x="35" y="569" on="1"/>
        <pt x="35" y="614" on="1"/>
        <pt x="498" y="614" on="1"/>
        <pt x="498" y="468" on="1"/>
        <pt x="442" y="468" on="1"/>
        <pt x="420" y="546" on="1"/>
        <pt x="255" y="546" on="1"/>
        <pt x="255" y="330" on="1"/>
        <pt x="361" y="330" on="1"/>
        <pt x="378" y="396" on="1"/>
      </contour>
    </TTGlyph>
    <TTGlyph name="Eacute" xMin="35" yMin="0" xMax="518" yMax="800">
      <contour>
        <pt x="174" y="669" on="1"/>
        <pt x="330" y="800" on="1"/>
        <pt x="429" y="766" on="1"/>
        <pt x="429" y="743" on="1"/>
        <pt x="201" y="634" on="1"/>
      </contour>
      <contour>
        <pt x="36" y="45" on="1"/>
        <pt x="120" y="69" on="1"/>
        <pt x="120" y="546" on="1"/>
        <pt x="35" y="569" on="1"/>
        <pt x="35" y="614" on="1"/>
        <pt x="498" y="614" on="1"/>
        <pt x="498" y="468" on="1"/>
        <pt x="442" y="468" on="1"/>
        <pt x="420" y="546" on="1"/>
        <pt x="255" y="546" on="1"/>
        <pt x="255" y="330" on="1"/>
        <pt x="361" y="330" on="1"/>
        <pt x="378" y="396" on="1"/>
        <pt x="431" y="396" on="1"/>
        <pt x="431" y="205" on="1"/>
        <pt x="378" y="205" on="1"/>
        <pt x="359" y="274" on="1"/>
        <pt x="255" y="274" on="1"/>
        <pt x="255" y="69" on="1"/>
        <pt x="436" y="69" on="1"/>
        <pt x="462" y="162" on="1"/>
        <pt x="518" y="162" on="1"/>
        <pt x="518" y="0" on="1"/>
        <pt x="36" y="0" on="1"/>
      </contour>
    </TTGlyph>
    <TTGlyph name="Ebreve" xMin="35" yMin="0" xMax="518" yMax="788">
      <component glyphName=".ttfautohint" x="35" y="0" flags="0x0"/>
      <component glyphName="E" x="0" y="0" flags="0x0"/>
      <component glyphName="uni0306" x="400" y="0" flags="0x0"/>
    </TTGlyph>
    <TTGlyph name="Ecaron" xMin="35" yMin="0" xMax="518" yMax="800">
      <contour>
        <pt x="148" y="775" on="1"/>
        <pt x="174" y="800" on="1"/>
        <pt x="300" y="723" on="1"/>
        <pt x="429" y="800" on="1"/>
        <pt x="452" y="775" on="1"/>
        <pt x="343" y="641" on="1"/>
        <pt x="258" y="641" on="1"/>
      </contour>
      <contour>
        <pt x="36" y="45" on="1"/>
        <pt x="120" y="69" on="1"/>
        <pt x="120" y="546" on="1"/>
        <pt x="35" y="569" on="1"/>
        <pt x="35" y="614" on="1"/>
        <pt x="498" y="614" on="1"/>
        <pt x="498" y="468" on="1"/>
        <pt x="442" y="468" on="1"/>
        <pt x="420" y="546" on="1"/>
        <pt x="255" y="546" on="1"/>
        <pt x="255" y="330" on="1"/>
        <pt x="361" y="330" on="1"/>
        <pt x="378" y="396" on="1"/>
        <pt x="431" y="396" on="1"/>
        <pt x="431" y="205" on="1"/>
        <pt x="378" y="205" on="1"/>
        <pt x="359" y="274" on="1"/>
        <pt x="255" y="274" on="1"/>
        <pt x="255" y="69" on="1"/>
        <pt x="436" y="69" on="1"/>
        <pt x="462" y="162" on="1"/>
        <pt x="518" y="162" on="1"/>
        <pt x="518" y="0" on="1"/>
        <pt x="36" y="0" on="1"/>
      </contour>
    </TTGlyph>
    <TTGlyph name="Ecircumflex" xMin="35" yMin="0" xMax="518" yMax="800">
      <contour>
        <pt x="285" y="717" on="1"/>
        <pt x="159" y="640" on="1"/>
        <pt x="133" y="665" on="1"/>
        <pt x="243" y="800" on="1"/>
        <pt x="328" y="800" on="1"/>
        <pt x="437" y="665" on="1"/>
        <pt x="414" y="640" on="1"/>
      </contour>
      <contour>
        <pt x="431" y="396" on="1"/>
        <pt x="431" y="205" on="1"/>
        <pt x="378" y="205" on="1"/>
        <pt x="359" y="274" on="1"/>
        <pt x="255" y="274" on="1"/>
        <pt x="255" y="69" on="1"/>
        <pt x="436" y="69" on="1"/>
        <pt x="462" y="162" on="1"/>
        <pt x="518" y="162" on="1"/>
        <pt x="518" y="0" on="1"/>
        <pt x="36" y="0" on="1"/>
        <pt x="36" y="45" on="1"/>
        <pt x="120" y="69" on="1"/>
        <pt x="120" y="546" on="1"/>
        <pt x="35" y="569" on="1"/>
        <pt x="35" y="614" on="1"/>
        <pt x="498" y="614" on="1"/>
        <pt x="498" y="468" on="1"/>
        <pt x="442" y="468" on="1"/>
        <pt x="420" y="546" on="1"/>
        <pt x="255" y="546" on="1"/>
        <pt x="255" y="330" on="1"/>
        <pt x="361" y="330" on="1"/>
        <pt x="378" y="396" on="1"/>
      </contour>
    </TTGlyph>
    <TTGlyph name="Edieresis" xMin="35" yMin="0" xMax="518" yMax="792">
      <contour>
        <pt x="236" y="688" on="0"/>
        <pt x="193" y="647" on="0"/>
        <pt x="162" y="647" on="1"/>
        <pt x="130" y="647" on="0"/>
        <pt x="84" y="688" on="0"/>
        <pt x="84" y="719" on="1"/>
        <pt x="84" y="749" on="0"/>
        <pt x="131" y="792" on="0"/>
        <pt x="162" y="792" on="1"/>
        <pt x="192" y="792" on="0"/>
        <pt x="236" y="749" on="0"/>
        <pt x="236" y="719" on="1"/>
      </contour>
      <contour>
        <pt x="467" y="688" on="0"/>
        <pt x="423" y="647" on="0"/>
        <pt x="394" y="647" on="1"/>
        <pt x="362" y="647" on="0"/>
        <pt x="317" y="688" on="0"/>
        <pt x="317" y="719" on="1"/>
        <pt x="317" y="750" on="0"/>
        <pt x="362" y="792" on="0"/>
        <pt x="394" y="792" on="1"/>
        <pt x="423" y="792" on="0"/>
        <pt x="467" y="749" on="0"/>
        <pt x="467" y="719" on="1"/>
      </contour>
      <contour>
        <pt x="431" y="396" on="1"/>
        <pt x="431" y="205" on="1"/>
        <pt x="378" y="205" on="1"/>
        <pt x="359" y="274" on="1"/>
        <pt x="255" y="274" on="1"/>
        <pt x="255" y="69" on="1"/>
        <pt x="436" y="69" on="1"/>
        <pt x="462" y="162" on="1"/>
        <pt x="518" y="162" on="1"/>
        <pt x="518" y="0" on="1"/>
        <pt x="36" y="0" on="1"/>
        <pt x="36" y="45" on="1"/>
        <pt x="120" y="69" on="1"/>
        <pt x="120" y="546" on="1"/>
        <pt x="35" y="569" on="1"/>
        <pt x="35" y="614" on="1"/>
        <pt x="498" y="614" on="1"/>
        <pt x="498" y="468" on="1"/>
        <pt x="442" y="468" on="1"/>
        <pt x="420" y="546" on="1"/>
        <pt x="255" y="546" on="1"/>
        <pt x="255" y="330" on="1"/>
        <pt x="361" y="330" on="1"/>
        <pt x="378" y="396" on="1"/>
      </contour>
    </TTGlyph>
    <TTGlyph name="Edotaccent" xMin="35" yMin="0" xMax="518" yMax="799">
      <contour>
        <pt x="376" y="681" on="0"/>
        <pt x="328" y="635" on="0"/>
        <pt x="294" y="635" on="1"/>
        <pt x="260" y="635" on="0"/>
        <pt x="208" y="682" on="0"/>
        <pt x="208" y="715" on="1"/>
        <pt x="208" y="749" on="0"/>
        <pt x="260" y="799" on="0"/>
        <pt x="294" y="799" on="1"/>
        <pt x="328" y="799" on="0"/>
        <pt x="376" y="749" on="0"/>
        <pt x="376" y="715" on="1"/>
      </contour>
      <contour>
        <pt x="431" y="396" on="1"/>
        <pt x="431" y="205" on="1"/>
        <pt x="378" y="205" on="1"/>
        <pt x="359" y="274" on="1"/>
        <pt x="255" y="274" on="1"/>
        <pt x="255" y="69" on="1"/>
        <pt x="436" y="69" on="1"/>
        <pt x="462" y="162" on="1"/>
        <pt x="518" y="162" on="1"/>
        <pt x="518" y="0" on="1"/>
        <pt x="36" y="0" on="1"/>
        <pt x="36" y="45" on="1"/>
        <pt x="120" y="69" on="1"/>
        <pt x="120" y="546" on="1"/>
        <pt x="35" y="569" on="1"/>
        <pt x="35" y="614" on="1"/>
        <pt x="498" y="614" on="1"/>
        <pt x="498" y="468" on="1"/>
        <pt x="442" y="468" on="1"/>
        <pt x="420" y="546" on="1"/>
        <pt x="255" y="546" on="1"/>
        <pt x="255" y="330" on="1"/>
        <pt x="361" y="330" on="1"/>
        <pt x="378" y="396" on="1"/>
      </contour>
    </TTGlyph>
    <TTGlyph name="Egrave" xMin="35" yMin="0" xMax="518" yMax="800">
      <contour>
        <pt x="141" y="743" on="1"/>
        <pt x="145" y="766" on="1"/>
        <pt x="242" y="800" on="1"/>
        <pt x="396" y="669" on="1"/>
        <pt x="373" y="634" on="1"/>
      </contour>
      <contour>
        <pt x="36" y="45" on="1"/>
        <pt x="120" y="69" on="1"/>
        <pt x="120" y="546" on="1"/>
        <pt x="35" y="569" on="1"/>
        <pt x="35" y="614" on="1"/>
        <pt x="498" y="614" on="1"/>
        <pt x="498" y="468" on="1"/>
        <pt x="442" y="468" on="1"/>
        <pt x="420" y="546" on="1"/>
        <pt x="255" y="546" on="1"/>
        <pt x="255" y="330" on="1"/>
        <pt x="361" y="330" on="1"/>
        <pt x="378" y="396" on="1"/>
        <pt x="431" y="396" on="1"/>
        <pt x="431" y="205" on="1"/>
        <pt x="378" y="205" on="1"/>
        <pt x="359" y="274" on="1"/>
        <pt x="255" y="274" on="1"/>
        <pt x="255" y="69" on="1"/>
        <pt x="436" y="69" on="1"/>
        <pt x="462" y="162" on="1"/>
        <pt x="518" y="162" on="1"/>
        <pt x="518" y="0" on="1"/>
        <pt x="36" y="0" on="1"/>
      </contour>
    </TTGlyph>
    <TTGlyph name="Emacron" xMin="35" yMin="0" xMax="518" yMax="758">
      <contour>
        <pt x="414" y="758" on="1"/>
        <pt x="414" y="679" on="1"/>
        <pt x="173" y="679" on="1"/>
        <pt x="173" y="758" on="1"/>
      </contour>
      <contour>
        <pt x="431" y="396" on="1"/>
        <pt x="431" y="205" on="1"/>
        <pt x="378" y="205" on="1"/>
        <pt x="359" y="274" on="1"/>
        <pt x="255" y="274" on="1"/>
        <pt x="255" y="69" on="1"/>
        <pt x="436" y="69" on="1"/>
        <pt x="462" y="162" on="1"/>
        <pt x="518" y="162" on="1"/>
        <pt x="518" y="0" on="1"/>
        <pt x="36" y="0" on="1"/>
        <pt x="36" y="45" on="1"/>
        <pt x="120" y="69" on="1"/>
        <pt x="120" y="546" on="1"/>
        <pt x="35" y="569" on="1"/>
        <pt x="35" y="614" on="1"/>
        <pt x="498" y="614" on="1"/>
        <pt x="498" y="468" on="1"/>
        <pt x="442" y="468" on="1"/>
        <pt x="420" y="546" on="1"/>
        <pt x="255" y="546" on="1"/>
        <pt x="255" y="330" on="1"/>
        <pt x="361" y="330" on="1"/>
        <pt x="378" y="396" on="1"/>
      </contour>
    </TTGlyph>
    <TTGlyph name="Eng" xMin="35" yMin="-168" xMax="704" yMax="614">
      <contour>
        <pt x="451" y="-168" on="0"/>
        <pt x="389" y="-153" on="0"/>
        <pt x="360" y="-139" on="1"/>
        <pt x="366" y="-92" on="1"/>
        <pt x="411" y="-92" on="1"/>
        <pt x="448" y="-92" on="0"/>
        <pt x="484" y="-48" on="0"/>
        <pt x="484" y="-19" on="1"/>
        <pt x="484" y="24" on="1"/>
        <pt x="189" y="456" on="1"/>
        <pt x="189" y="69" on="1"/>
        <pt x="274" y="45" on="1"/>
        <pt x="274" y="0" on="1"/>
        <pt x="36" y="0" on="1"/>
        <pt x="36" y="45" on="1"/>
        <pt x="120" y="69" on="1"/>
        <pt x="120" y="546" on="1"/>
        <pt x="35" y="569" on="1"/>
        <pt x="35" y="614" on="1"/>
        <pt x="241" y="614" on="1"/>
        <pt x="546" y="163" on="1"/>
        <pt x="546" y="546" on="1"/>
        <pt x="461" y="569" on="1"/>
        <pt x="461" y="614" on="1"/>
        <pt x="704" y="614" on="1"/>
        <pt x="704" y="569" on="1"/>
        <pt x="619" y="546" on="1"/>
        <pt x="619" y="56" on="1"/>
        <pt x="619" y="-61" on="0"/>
        <pt x="532" y="-168" on="0"/>
        <pt x="470" y="-168" on="1"/>
      </contour>
    </TTGlyph>
    <TTGlyph name="Eogonek" xMin="35" yMin="-233" xMax="544" yMax="614">
      <contour>
        <pt x="380" y="-233" on="0"/>
        <pt x="332" y="-184" on="0"/>
        <pt x="332" y="-147" on="1"/>
        <pt x="332" y="-116" on="0"/>
        <pt x="378" y="-36" on="0"/>
        <pt x="422" y="0" on="1"/>
        <pt x="36" y="0" on="1"/>
        <pt x="36" y="45" on="1"/>
        <pt x="120" y="69" on="1"/>
        <pt x="120" y="546" on="1"/>
        <pt x="35" y="569" on="1"/>
        <pt x="35" y="614" on="1"/>
        <pt x="498" y="614" on="1"/>
        <pt x="498" y="468" on="1"/>
        <pt x="442" y="468" on="1"/>
        <pt x="420" y="546" on="1"/>
        <pt x="255" y="546" on="1"/>
        <pt x="255" y="330" on="1"/>
        <pt x="361" y="330" on="1"/>
        <pt x="378" y="396" on="1"/>
        <pt x="431" y="396" on="1"/>
        <pt x="431" y="205" on="1"/>
        <pt x="378" y="205" on="1"/>
        <pt x="359" y="274" on="1"/>
        <pt x="255" y="274" on="1"/>
        <pt x="255" y="69" on="1"/>
        <pt x="436" y="69" on="1"/>
        <pt x="462" y="162" on="1"/>
        <pt x="518" y="162" on="1"/>
        <pt x="518" y="0" on="1"/>
        <pt x="467" y="0" on="1"/>
        <pt x="455" y="-12" on="0"/>
        <pt x="417" y="-85" on="0"/>
        <pt x="417" y="-126" on="1"/>
        <pt x="417" y="-171" on="0"/>
        <pt x="460" y="-171" on="1"/>
        <pt x="490" y="-171" on="0"/>
        <pt x="521" y="-149" on="1"/>
        <pt x="544" y="-171" on="1"/>
        <pt x="544" y="-173" on="0"/>
        <pt x="517" y="-205" on="0"/>
        <pt x="468" y="-233" on="0"/>
        <pt x="434" y="-233" on="1"/>
      </contour>
    </TTGlyph>
    <TTGlyph name="Eth" xMin="38" yMin="0" xMax="628" yMax="614">
      <contour>
        <pt x="39" y="45" on="1"/>
        <pt x="123" y="69" on="1"/>
        <pt x="123" y="274" on="1"/>
        <pt x="40" y="274" on="1"/>
        <pt x="40" y="330" on="1"/>
        <pt x="123" y="330" on="1"/>
        <pt x="123" y="546" on="1"/>
        <pt x="38" y="569" on="1"/>
        <pt x="38" y="614" on="1"/>
        <pt x="312" y="614" on="1"/>
        <pt x="474" y="614" on="0"/>
        <pt x="628" y="457" on="0"/>
        <pt x="628" y="320" on="1"/>
        <pt x="628" y="178" on="0"/>
        <pt x="481" y="0" on="0"/>
        <pt x="331" y="0" on="1"/>
        <pt x="39" y="0" on="1"/>
      </contour>
      <contour>
        <pt x="422" y="57" on="0"/>
        <pt x="486" y="200" on="0"/>
        <pt x="486" y="320" on="1"/>
        <pt x="486" y="388" on="0"/>
        <pt x="443" y="493" on="0"/>
        <pt x="364" y="552" on="0"/>
        <pt x="311" y="552" on="1"/>
        <pt x="282" y="552" on="0"/>
        <pt x="258" y="546" on="1"/>
        <pt x="258" y="330" on="1"/>
        <pt x="371" y="330" on="1"/>
        <pt x="371" y="274" on="1"/>
        <pt x="258" y="274" on="1"/>
        <pt x="258" y="69" on="1"/>
        <pt x="296" y="57" on="0"/>
        <pt x="336" y="57" on="1"/>
      </contour>
    </TTGlyph>
    <TTGlyph name="Euro" xMin="16" yMin="-5" xMax="509" yMax="622">
      <contour>
        <pt x="235" y="281" on="0"/>
        <pt x="236" y="270" on="1"/>
        <pt x="414" y="270" on="1"/>
        <pt x="405" y="212" on="1"/>
        <pt x="240" y="212" on="1"/>
        <pt x="250" y="139" on="0"/>
        <pt x="321" y="60" on="0"/>
        <pt x="394" y="60" on="1"/>
        <pt x="427" y="60" on="0"/>
        <pt x="495" y="72" on="1"/>
        <pt x="505" y="18" on="1"/>
        <pt x="441" y="-5" on="0"/>
        <pt x="365" y="-5" on="1"/>
        <pt x="297" y="-5" on="0"/>
        <pt x="196" y="26" on="0"/>
        <pt x="121" y="122" on="0"/>
        <pt x="108" y="212" on="1"/>
        <pt x="16" y="212" on="1"/>
        <pt x="25" y="270" on="1"/>
        <pt x="102" y="270" on="1"/>
        <pt x="101" y="281" on="0"/>
        <pt x="101" y="313" on="1"/>
        <pt x="101" y="331" on="1"/>
        <pt x="16" y="331" on="1"/>
        <pt x="25" y="389" on="1"/>
        <pt x="106" y="389" on="1"/>
        <pt x="136" y="622" on="0"/>
        <pt x="347" y="622" on="1"/>
        <pt x="385" y="622" on="0"/>
        <pt x="472" y="606" on="0"/>
        <pt x="509" y="594" on="1"/>
        <pt x="496" y="457" on="1"/>
        <pt x="449" y="457" on="1"/>
        <pt x="426" y="546" on="1"/>
        <pt x="396" y="555" on="0"/>
        <pt x="364" y="555" on="1"/>
        <pt x="315" y="555" on="0"/>
        <pt x="249" y="482" on="0"/>
        <pt x="239" y="389" on="1"/>
        <pt x="414" y="389" on="1"/>
        <pt x="405" y="331" on="1"/>
        <pt x="235" y="331" on="1"/>
        <pt x="235" y="311" on="1"/>
      </contour>
    </TTGlyph>
    <TTGlyph name="F" xMin="35" yMin="0" xMax="498" yMax="614">
      <contour>
        <pt x="498" y="468" on="1"/>
        <pt x="442" y="468" on="1"/>
        <pt x="420" y="546" on="1"/>
        <pt x="255" y="546" on="1"/>
        <pt x="255" y="320" on="1"/>
        <pt x="361" y="320" on="1"/>
        <pt x="378" y="386" on="1"/>
        <pt x="431" y="386" on="1"/>
        <pt x="431" y="195" on="1"/>
        <pt x="378" y="195" on="1"/>
        <pt x="359" y="264" on="1"/>
        <pt x="255" y="264" on="1"/>
        <pt x="255" y="75" on="1"/>
        <pt x="361" y="50" on="1"/>
        <pt x="361" y="0" on="1"/>
        <pt x="36" y="0" on="1"/>
        <pt x="36" y="45" on="1"/>
        <pt x="120" y="69" on="1"/>
        <pt x="120" y="546" on="1"/>
        <pt x="35" y="569" on="1"/>
        <pt x="35" y="614" on="1"/>
        <pt x="498" y="614" on="1"/>
      </contour>
    </TTGlyph>
    <TTGlyph name="G" xMin="30" yMin="-9" xMax="604" yMax="629">
      <contour>
        <pt x="420" y="558" on="0"/>
        <pt x="360" y="558" on="1"/>
        <pt x="255" y="558" on="0"/>
        <pt x="172" y="413" on="0"/>
        <pt x="172" y="312" on="1"/>
        <pt x="172" y="201" on="0"/>
        <pt x="250" y="63" on="0"/>
        <pt x="339" y="63" on="1"/>
        <pt x="383" y="63" on="0"/>
        <pt x="409" y="71" on="1"/>
        <pt x="409" y="221" on="1"/>
        <pt x="325" y="244" on="1"/>
        <pt x="325" y="289" on="1"/>
        <pt x="604" y="289" on="1"/>
        <pt x="604" y="242" on="1"/>
        <pt x="544" y="223" on="1"/>
        <pt x="544" y="33" on="1"/>
        <pt x="508" y="13" on="0"/>
        <pt x="403" y="-9" on="0"/>
        <pt x="346" y="-9" on="1"/>
        <pt x="181" y="-9" on="0"/>
        <pt x="30" y="169" on="0"/>
        <pt x="30" y="312" on="1"/>
        <pt x="30" y="453" on="0"/>
        <pt x="190" y="629" on="0"/>
        <pt x="358" y="629" on="1"/>
        <pt x="405" y="629" on="0"/>
        <pt x="510" y="612" on="0"/>
        <pt x="542" y="600" on="1"/>
        <pt x="531" y="447" on="1"/>
        <pt x="475" y="447" on="1"/>
        <pt x="450" y="545" on="1"/>
      </contour>
    </TTGlyph>
    <TTGlyph name="G_tilde.loclGUA" xMin="30" yMin="-9" xMax="604" yMax="790">
      <contour>
        <pt x="463" y="661" on="0"/>
        <pt x="420" y="661" on="1"/>
        <pt x="392" y="661" on="0"/>
        <pt x="322" y="681" on="1"/>
        <pt x="263" y="698" on="0"/>
        <pt x="244" y="698" on="1"/>
        <pt x="233" y="698" on="0"/>
        <pt x="216" y="684" on="0"/>
        <pt x="205" y="669" on="0"/>
        <pt x="204" y="667" on="1"/>
        <pt x="157" y="686" on="1"/>
        <pt x="173" y="731" on="0"/>
        <pt x="220" y="790" on="0"/>
        <pt x="244" y="790" on="1"/>
        <pt x="273" y="790" on="0"/>
        <pt x="341" y="770" on="1"/>
        <pt x="400" y="753" on="0"/>
        <pt x="420" y="753" on="1"/>
        <pt x="431" y="753" on="0"/>
        <pt x="450" y="767" on="0"/>
        <pt x="461" y="782" on="0"/>
        <pt x="462" y="784" on="1"/>
        <pt x="506" y="765" on="1"/>
      </contour>
      <contour>
        <pt x="420" y="558" on="0"/>
        <pt x="360" y="558" on="1"/>
        <pt x="255" y="558" on="0"/>
        <pt x="172" y="413" on="0"/>
        <pt x="172" y="312" on="1"/>
        <pt x="172" y="201" on="0"/>
        <pt x="250" y="63" on="0"/>
        <pt x="339" y="63" on="1"/>
        <pt x="383" y="63" on="0"/>
        <pt x="409" y="71" on="1"/>
        <pt x="409" y="221" on="1"/>
        <pt x="325" y="244" on="1"/>
        <pt x="325" y="289" on="1"/>
        <pt x="604" y="289" on="1"/>
        <pt x="604" y="242" on="1"/>
        <pt x="544" y="223" on="1"/>
        <pt x="544" y="33" on="1"/>
        <pt x="508" y="13" on="0"/>
        <pt x="403" y="-9" on="0"/>
        <pt x="346" y="-9" on="1"/>
        <pt x="181" y="-9" on="0"/>
        <pt x="30" y="169" on="0"/>
        <pt x="30" y="312" on="1"/>
        <pt x="30" y="453" on="0"/>
        <pt x="190" y="629" on="0"/>
        <pt x="358" y="629" on="1"/>
        <pt x="405" y="629" on="0"/>
        <pt x="510" y="612" on="0"/>
        <pt x="542" y="600" on="1"/>
        <pt x="531" y="447" on="1"/>
        <pt x="475" y="447" on="1"/>
        <pt x="450" y="545" on="1"/>
      </contour>
    </TTGlyph>
    <TTGlyph name="Gbreve" xMin="30" yMin="-9" xMax="604" yMax="788">
      <contour>
        <pt x="254" y="651" on="0"/>
        <pt x="206" y="723" on="0"/>
        <pt x="206" y="786" on="1"/>
        <pt x="265" y="788" on="1"/>
        <pt x="265" y="763" on="0"/>
        <pt x="294" y="727" on="0"/>
        <pt x="328" y="727" on="1"/>
        <pt x="364" y="727" on="0"/>
        <pt x="393" y="763" on="0"/>
        <pt x="393" y="788" on="1"/>
        <pt x="449" y="786" on="1"/>
        <pt x="449" y="725" on="0"/>
        <pt x="395" y="651" on="0"/>
        <pt x="324" y="651" on="1"/>
      </contour>
      <contour>
        <pt x="420" y="558" on="0"/>
        <pt x="360" y="558" on="1"/>
        <pt x="255" y="558" on="0"/>
        <pt x="172" y="413" on="0"/>
        <pt x="172" y="312" on="1"/>
        <pt x="172" y="201" on="0"/>
        <pt x="250" y="63" on="0"/>
        <pt x="339" y="63" on="1"/>
        <pt x="383" y="63" on="0"/>
        <pt x="409" y="71" on="1"/>
        <pt x="409" y="221" on="1"/>
        <pt x="325" y="244" on="1"/>
        <pt x="325" y="289" on="1"/>
        <pt x="604" y="289" on="1"/>
        <pt x="604" y="242" on="1"/>
        <pt x="544" y="223" on="1"/>
        <pt x="544" y="33" on="1"/>
        <pt x="508" y="13" on="0"/>
        <pt x="403" y="-9" on="0"/>
        <pt x="346" y="-9" on="1"/>
        <pt x="181" y="-9" on="0"/>
        <pt x="30" y="169" on="0"/>
        <pt x="30" y="312" on="1"/>
        <pt x="30" y="453" on="0"/>
        <pt x="190" y="629" on="0"/>
        <pt x="358" y="629" on="1"/>
        <pt x="405" y="629" on="0"/>
        <pt x="510" y="612" on="0"/>
        <pt x="542" y="600" on="1"/>
        <pt x="531" y="447" on="1"/>
        <pt x="475" y="447" on="1"/>
        <pt x="450" y="545" on="1"/>
      </contour>
    </TTGlyph>
    <TTGlyph name="Gcaron" xMin="30" yMin="-9" xMax="604" yMax="800">
      <component glyphName=".ttfautohint" x="30" y="0" flags="0x0"/>
      <component glyphName="G" x="0" y="0" flags="0x0"/>
      <component glyphName="uni030C" x="438" y="0" flags="0x0"/>
    </TTGlyph>
    <TTGlyph name="Gcircumflex" xMin="30" yMin="-9" xMax="604" yMax="800">
      <component glyphName=".ttfautohint" x="30" y="0" flags="0x0"/>
      <component glyphName="G" x="0" y="0" flags="0x0"/>
      <component glyphName="uni0302" x="438" y="0" flags="0x0"/>
    </TTGlyph>
    <TTGlyph name="Gcommaaccent" xMin="30" yMin="-236" xMax="604" yMax="629">
      <contour>
        <pt x="181" y="-9" on="0"/>
        <pt x="30" y="169" on="0"/>
        <pt x="30" y="312" on="1"/>
        <pt x="30" y="453" on="0"/>
        <pt x="190" y="629" on="0"/>
        <pt x="358" y="629" on="1"/>
        <pt x="405" y="629" on="0"/>
        <pt x="510" y="612" on="0"/>
        <pt x="542" y="600" on="1"/>
        <pt x="531" y="447" on="1"/>
        <pt x="475" y="447" on="1"/>
        <pt x="450" y="545" on="1"/>
        <pt x="420" y="558" on="0"/>
        <pt x="360" y="558" on="1"/>
        <pt x="255" y="558" on="0"/>
        <pt x="172" y="413" on="0"/>
        <pt x="172" y="312" on="1"/>
        <pt x="172" y="201" on="0"/>
        <pt x="250" y="63" on="0"/>
        <pt x="339" y="63" on="1"/>
        <pt x="383" y="63" on="0"/>
        <pt x="409" y="71" on="1"/>
        <pt x="409" y="221" on="1"/>
        <pt x="325" y="244" on="1"/>
        <pt x="325" y="289" on="1"/>
        <pt x="604" y="289" on="1"/>
        <pt x="604" y="242" on="1"/>
        <pt x="544" y="223" on="1"/>
        <pt x="544" y="33" on="1"/>
        <pt x="508" y="13" on="0"/>
        <pt x="403" y="-9" on="0"/>
        <pt x="346" y="-9" on="1"/>
      </contour>
      <contour>
        <pt x="277" y="-44" on="1"/>
        <pt x="367" y="-24" on="1"/>
        <pt x="392" y="-48" on="1"/>
        <pt x="312" y="-236" on="1"/>
        <pt x="268" y="-229" on="1"/>
      </contour>
    </TTGlyph>
    <TTGlyph name="Gdotaccent" xMin="30" yMin="-9" xMax="604" yMax="799">
      <component glyphName=".ttfautohint" x="30" y="0" flags="0x0"/>
      <component glyphName="G" x="0" y="0" flags="0x0"/>
      <component glyphName="uni0307" x="438" y="0" flags="0x0"/>
    </TTGlyph>
    <TTGlyph name="H" xMin="35" yMin="0" xMax="701" yMax="614">
      <contour>
        <pt x="35" y="45" on="1"/>
        <pt x="120" y="69" on="1"/>
        <pt x="120" y="546" on="1"/>
        <pt x="35" y="569" on="1"/>
        <pt x="35" y="614" on="1"/>
        <pt x="340" y="614" on="1"/>
        <pt x="340" y="569" on="1"/>
        <pt x="255" y="546" on="1"/>
        <pt x="255" y="335" on="1"/>
        <pt x="481" y="335" on="1"/>
        <pt x="481" y="546" on="1"/>
        <pt x="395" y="569" on="1"/>
        <pt x="395" y="614" on="1"/>
        <pt x="701" y="614" on="1"/>
        <pt x="701" y="569" on="1"/>
        <pt x="616" y="546" on="1"/>
        <pt x="616" y="69" on="1"/>
        <pt x="701" y="45" on="1"/>
        <pt x="701" y="0" on="1"/>
        <pt x="396" y="0" on="1"/>
        <pt x="396" y="45" on="1"/>
        <pt x="481" y="69" on="1"/>
        <pt x="481" y="276" on="1"/>
        <pt x="255" y="276" on="1"/>
        <pt x="255" y="69" on="1"/>
        <pt x="340" y="45" on="1"/>
        <pt x="340" y="0" on="1"/>
        <pt x="35" y="0" on="1"/>
      </contour>
    </TTGlyph>
    <TTGlyph name="Hbar" xMin="35" yMin="0" xMax="701" yMax="614">
      <contour>
        <pt x="616" y="546" on="1"/>
        <pt x="616" y="445" on="1"/>
        <pt x="697" y="445" on="1"/>
        <pt x="697" y="390" on="1"/>
        <pt x="616" y="390" on="1"/>
        <pt x="616" y="69" on="1"/>
        <pt x="701" y="45" on="1"/>
        <pt x="701" y="0" on="1"/>
        <pt x="396" y="0" on="1"/>
        <pt x="396" y="45" on="1"/>
        <pt x="481" y="69" on="1"/>
        <pt x="481" y="246" on="1"/>
        <pt x="255" y="246" on="1"/>
        <pt x="255" y="69" on="1"/>
        <pt x="340" y="45" on="1"/>
        <pt x="340" y="0" on="1"/>
        <pt x="35" y="0" on="1"/>
        <pt x="35" y="45" on="1"/>
        <pt x="120" y="69" on="1"/>
        <pt x="120" y="390" on="1"/>
        <pt x="39" y="390" on="1"/>
        <pt x="39" y="445" on="1"/>
        <pt x="120" y="445" on="1"/>
        <pt x="120" y="546" on="1"/>
        <pt x="35" y="569" on="1"/>
        <pt x="35" y="614" on="1"/>
        <pt x="340" y="614" on="1"/>
        <pt x="340" y="569" on="1"/>
        <pt x="255" y="546" on="1"/>
        <pt x="255" y="445" on="1"/>
        <pt x="481" y="445" on="1"/>
        <pt x="481" y="546" on="1"/>
        <pt x="395" y="569" on="1"/>
        <pt x="395" y="614" on="1"/>
        <pt x="701" y="614" on="1"/>
        <pt x="701" y="569" on="1"/>
      </contour>
      <contour>
        <pt x="481" y="390" on="1"/>
        <pt x="255" y="390" on="1"/>
        <pt x="255" y="305" on="1"/>
        <pt x="481" y="305" on="1"/>
      </contour>
    </TTGlyph>
    <TTGlyph name="Hcircumflex" xMin="35" yMin="0" xMax="701" yMax="800">
      <component glyphName=".ttfautohint" x="35" y="0" flags="0x0"/>
      <component glyphName="H" x="0" y="0" flags="0x0"/>
      <component glyphName="uni0302" x="496" y="0" flags="0x0"/>
    </TTGlyph>
    <TTGlyph name="I" xMin="35" yMin="0" xMax="340" yMax="614">
      <contour>
        <pt x="36" y="45" on="1"/>
        <pt x="120" y="69" on="1"/>
        <pt x="120" y="546" on="1"/>
        <pt x="35" y="569" on="1"/>
        <pt x="35" y="614" on="1"/>
        <pt x="340" y="614" on="1"/>
        <pt x="340" y="569" on="1"/>
        <pt x="255" y="546" on="1"/>
        <pt x="255" y="69" on="1"/>
        <pt x="340" y="45" on="1"/>
        <pt x="340" y="0" on="1"/>
        <pt x="36" y="0" on="1"/>
      </contour>
    </TTGlyph>
    <TTGlyph name="IJ" xMin="35" yMin="-150" xMax="708" yMax="614">
      <component glyphName=".ttfautohint" x="35" y="0" flags="0x0"/>
      <component glyphName="I" x="0" y="0" flags="0x0"/>
      <component glyphName="J" x="375" y="0" flags="0x0"/>
    </TTGlyph>
    <TTGlyph name="Iacute" xMin="35" yMin="0" xMax="340" yMax="800">
      <contour>
        <pt x="60" y="669" on="1"/>
        <pt x="216" y="800" on="1"/>
        <pt x="315" y="766" on="1"/>
        <pt x="315" y="743" on="1"/>
        <pt x="87" y="634" on="1"/>
      </contour>
      <contour>
        <pt x="36" y="45" on="1"/>
        <pt x="120" y="69" on="1"/>
        <pt x="120" y="546" on="1"/>
        <pt x="35" y="569" on="1"/>
        <pt x="35" y="614" on="1"/>
        <pt x="340" y="614" on="1"/>
        <pt x="340" y="569" on="1"/>
        <pt x="255" y="546" on="1"/>
        <pt x="255" y="69" on="1"/>
        <pt x="340" y="45" on="1"/>
        <pt x="340" y="0" on="1"/>
        <pt x="36" y="0" on="1"/>
      </contour>
    </TTGlyph>
    <TTGlyph name="Iacute_J.loclNLD" xMin="35" yMin="-150" xMax="741" yMax="800">
      <component glyphName=".ttfautohint" x="35" y="0" flags="0x0"/>
      <component glyphName="I" x="0" y="0" flags="0x0"/>
      <component glyphName="acutecomb" x="378" y="0" flags="0x0"/>
      <component glyphName="J" x="375" y="0" flags="0x0"/>
      <component glyphName="acutecomb" x="741" y="0" flags="0x0"/>
    </TTGlyph>
    <TTGlyph name="Ibreve" xMin="35" yMin="0" xMax="340" yMax="788">
      <component glyphName=".ttfautohint" x="35" y="0" flags="0x0"/>
      <component glyphName="I" x="0" y="0" flags="0x0"/>
      <component glyphName="uni0306" x="315" y="0" flags="0x0"/>
    </TTGlyph>
    <TTGlyph name="Icircumflex" xMin="35" yMin="0" xMax="340" yMax="800">
      <contour>
        <pt x="35" y="665" on="1"/>
        <pt x="145" y="800" on="1"/>
        <pt x="230" y="800" on="1"/>
        <pt x="339" y="665" on="1"/>
        <pt x="316" y="640" on="1"/>
        <pt x="187" y="717" on="1"/>
        <pt x="61" y="640" on="1"/>
      </contour>
      <contour>
        <pt x="36" y="45" on="1"/>
        <pt x="120" y="69" on="1"/>
        <pt x="120" y="546" on="1"/>
        <pt x="35" y="569" on="1"/>
        <pt x="35" y="614" on="1"/>
        <pt x="340" y="614" on="1"/>
        <pt x="340" y="569" on="1"/>
        <pt x="255" y="546" on="1"/>
        <pt x="255" y="69" on="1"/>
        <pt x="340" y="45" on="1"/>
        <pt x="340" y="0" on="1"/>
        <pt x="36" y="0" on="1"/>
      </contour>
    </TTGlyph>
    <TTGlyph name="Idieresis" xMin="-4" yMin="0" xMax="379" yMax="792">
      <contour>
        <pt x="42" y="647" on="0"/>
        <pt x="-4" y="688" on="0"/>
        <pt x="-4" y="719" on="1"/>
        <pt x="-4" y="749" on="0"/>
        <pt x="43" y="792" on="0"/>
        <pt x="74" y="792" on="1"/>
        <pt x="104" y="792" on="0"/>
        <pt x="148" y="749" on="0"/>
        <pt x="148" y="719" on="1"/>
        <pt x="148" y="688" on="0"/>
        <pt x="105" y="647" on="0"/>
        <pt x="74" y="647" on="1"/>
      </contour>
      <contour>
        <pt x="274" y="647" on="0"/>
        <pt x="229" y="688" on="0"/>
        <pt x="229" y="719" on="1"/>
        <pt x="229" y="750" on="0"/>
        <pt x="274" y="792" on="0"/>
        <pt x="306" y="792" on="1"/>
        <pt x="335" y="792" on="0"/>
        <pt x="379" y="749" on="0"/>
        <pt x="379" y="719" on="1"/>
        <pt x="379" y="688" on="0"/>
        <pt x="335" y="647" on="0"/>
        <pt x="306" y="647" on="1"/>
      </contour>
      <contour>
        <pt x="36" y="45" on="1"/>
        <pt x="120" y="69" on="1"/>
        <pt x="120" y="546" on="1"/>
        <pt x="35" y="569" on="1"/>
        <pt x="35" y="614" on="1"/>
        <pt x="340" y="614" on="1"/>
        <pt x="340" y="569" on="1"/>
        <pt x="255" y="546" on="1"/>
        <pt x="255" y="69" on="1"/>
        <pt x="340" y="45" on="1"/>
        <pt x="340" y="0" on="1"/>
        <pt x="36" y="0" on="1"/>
      </contour>
    </TTGlyph>
    <TTGlyph name="Idotaccent" xMin="35" yMin="0" xMax="340" yMax="799">
      <contour>
        <pt x="155" y="635" on="0"/>
        <pt x="103" y="682" on="0"/>
        <pt x="103" y="715" on="1"/>
        <pt x="103" y="749" on="0"/>
        <pt x="155" y="799" on="0"/>
        <pt x="189" y="799" on="1"/>
        <pt x="223" y="799" on="0"/>
        <pt x="271" y="749" on="0"/>
        <pt x="271" y="715" on="1"/>
        <pt x="271" y="681" on="0"/>
        <pt x="223" y="635" on="0"/>
        <pt x="189" y="635" on="1"/>
      </contour>
      <contour>
        <pt x="36" y="45" on="1"/>
        <pt x="120" y="69" on="1"/>
        <pt x="120" y="546" on="1"/>
        <pt x="35" y="569" on="1"/>
        <pt x="35" y="614" on="1"/>
        <pt x="340" y="614" on="1"/>
        <pt x="340" y="569" on="1"/>
        <pt x="255" y="546" on="1"/>
        <pt x="255" y="69" on="1"/>
        <pt x="340" y="45" on="1"/>
        <pt x="340" y="0" on="1"/>
        <pt x="36" y="0" on="1"/>
      </contour>
    </TTGlyph>
    <TTGlyph name="Igrave" xMin="35" yMin="0" xMax="340" yMax="800">
      <contour>
        <pt x="60" y="743" on="1"/>
        <pt x="64" y="766" on="1"/>
        <pt x="161" y="800" on="1"/>
        <pt x="315" y="669" on="1"/>
        <pt x="292" y="634" on="1"/>
      </contour>
      <contour>
        <pt x="36" y="45" on="1"/>
        <pt x="120" y="69" on="1"/>
        <pt x="120" y="546" on="1"/>
        <pt x="35" y="569" on="1"/>
        <pt x="35" y="614" on="1"/>
        <pt x="340" y="614" on="1"/>
        <pt x="340" y="569" on="1"/>
        <pt x="255" y="546" on="1"/>
        <pt x="255" y="69" on="1"/>
        <pt x="340" y="45" on="1"/>
        <pt x="340" y="0" on="1"/>
        <pt x="36" y="0" on="1"/>
      </contour>
    </TTGlyph>
    <TTGlyph name="Imacron" xMin="35" yMin="0" xMax="340" yMax="758">
      <contour>
        <pt x="65" y="758" on="1"/>
        <pt x="306" y="758" on="1"/>
        <pt x="306" y="679" on="1"/>
        <pt x="65" y="679" on="1"/>
      </contour>
      <contour>
        <pt x="36" y="45" on="1"/>
        <pt x="120" y="69" on="1"/>
        <pt x="120" y="546" on="1"/>
        <pt x="35" y="569" on="1"/>
        <pt x="35" y="614" on="1"/>
        <pt x="340" y="614" on="1"/>
        <pt x="340" y="569" on="1"/>
        <pt x="255" y="546" on="1"/>
        <pt x="255" y="69" on="1"/>
        <pt x="340" y="45" on="1"/>
        <pt x="340" y="0" on="1"/>
        <pt x="36" y="0" on="1"/>
      </contour>
    </TTGlyph>
    <TTGlyph name="Iogonek" xMin="35" yMin="-233" xMax="352" yMax="614">
      <contour>
        <pt x="189" y="-233" on="0"/>
        <pt x="140" y="-185" on="0"/>
        <pt x="140" y="-149" on="1"/>
        <pt x="140" y="-107" on="0"/>
        <pt x="197" y="-29" on="0"/>
        <pt x="242" y="0" on="1"/>
        <pt x="36" y="0" on="1"/>
        <pt x="36" y="45" on="1"/>
        <pt x="120" y="69" on="1"/>
        <pt x="120" y="546" on="1"/>
        <pt x="35" y="569" on="1"/>
        <pt x="35" y="614" on="1"/>
        <pt x="340" y="614" on="1"/>
        <pt x="340" y="569" on="1"/>
        <pt x="255" y="546" on="1"/>
        <pt x="255" y="69" on="1"/>
        <pt x="340" y="45" on="1"/>
        <pt x="340" y="0" on="1"/>
        <pt x="283" y="-14" on="0"/>
        <pt x="225" y="-88" on="0"/>
        <pt x="225" y="-125" on="1"/>
        <pt x="225" y="-171" on="0"/>
        <pt x="269" y="-171" on="1"/>
        <pt x="297" y="-171" on="0"/>
        <pt x="329" y="-149" on="1"/>
        <pt x="352" y="-171" on="1"/>
        <pt x="337" y="-195" on="0"/>
        <pt x="283" y="-233" on="0"/>
        <pt x="243" y="-233" on="1"/>
      </contour>
    </TTGlyph>
    <TTGlyph name="Itilde" xMin="0" yMin="0" xMax="349" yMax="790">
      <contour>
        <pt x="235" y="661" on="0"/>
        <pt x="165" y="681" on="1"/>
        <pt x="106" y="698" on="0"/>
        <pt x="87" y="698" on="1"/>
        <pt x="76" y="698" on="0"/>
        <pt x="59" y="684" on="0"/>
        <pt x="48" y="669" on="0"/>
        <pt x="47" y="667" on="1"/>
        <pt x="0" y="686" on="1"/>
        <pt x="16" y="731" on="0"/>
        <pt x="63" y="790" on="0"/>
        <pt x="87" y="790" on="1"/>
        <pt x="116" y="790" on="0"/>
        <pt x="184" y="770" on="1"/>
        <pt x="243" y="753" on="0"/>
        <pt x="263" y="753" on="1"/>
        <pt x="274" y="753" on="0"/>
        <pt x="293" y="767" on="0"/>
        <pt x="304" y="782" on="0"/>
        <pt x="305" y="784" on="1"/>
        <pt x="349" y="765" on="1"/>
        <pt x="306" y="661" on="0"/>
        <pt x="263" y="661" on="1"/>
      </contour>
      <contour>
        <pt x="36" y="45" on="1"/>
        <pt x="120" y="69" on="1"/>
        <pt x="120" y="546" on="1"/>
        <pt x="35" y="569" on="1"/>
        <pt x="35" y="614" on="1"/>
        <pt x="340" y="614" on="1"/>
        <pt x="340" y="569" on="1"/>
        <pt x="255" y="546" on="1"/>
        <pt x="255" y="69" on="1"/>
        <pt x="340" y="45" on="1"/>
        <pt x="340" y="0" on="1"/>
        <pt x="36" y="0" on="1"/>
      </contour>
    </TTGlyph>
    <TTGlyph name="J" xMin="-30" yMin="-150" xMax="333" yMax="614">
      <contour>
        <pt x="18" y="-150" on="0"/>
        <pt x="-30" y="-118" on="1"/>
        <pt x="-26" y="-81" on="1"/>
        <pt x="42" y="-81" on="1"/>
        <pt x="84" y="-81" on="0"/>
        <pt x="114" y="-18" on="0"/>
        <pt x="114" y="41" on="1"/>
        <pt x="114" y="546" on="1"/>
        <pt x="29" y="569" on="1"/>
        <pt x="29" y="614" on="1"/>
        <pt x="333" y="614" on="1"/>
        <pt x="333" y="569" on="1"/>
        <pt x="248" y="546" on="1"/>
        <pt x="248" y="63" on="1"/>
        <pt x="248" y="-55" on="0"/>
        <pt x="164" y="-150" on="0"/>
        <pt x="81" y="-150" on="1"/>
      </contour>
    </TTGlyph>
    <TTGlyph name="Jcircumflex" xMin="-30" yMin="-150" xMax="333" yMax="800">
      <component glyphName=".ttfautohint" x="0" y="0" flags="0x0"/>
      <component glyphName="J" x="0" y="0" flags="0x0"/>
      <component glyphName="uni0302" x="304" y="0" flags="0x0"/>
    </TTGlyph>
    <TTGlyph name="K" xMin="35" yMin="0" xMax="613" yMax="614">
      <contour>
        <pt x="429" y="0" on="1"/>
        <pt x="254" y="253" on="1"/>
        <pt x="254" y="68" on="1"/>
        <pt x="319" y="46" on="1"/>
        <pt x="319" y="0" on="1"/>
        <pt x="35" y="0" on="1"/>
        <pt x="35" y="45" on="1"/>
        <pt x="119" y="69" on="1"/>
        <pt x="119" y="546" on="1"/>
        <pt x="35" y="569" on="1"/>
        <pt x="35" y="614" on="1"/>
        <pt x="319" y="614" on="1"/>
        <pt x="319" y="568" on="1"/>
        <pt x="254" y="546" on="1"/>
        <pt x="254" y="347" on="1"/>
        <pt x="437" y="554" on="1"/>
        <pt x="382" y="569" on="1"/>
        <pt x="382" y="614" on="1"/>
        <pt x="587" y="614" on="1"/>
        <pt x="587" y="571" on="1"/>
        <pt x="519" y="549" on="1"/>
        <pt x="344" y="343" on="1"/>
        <pt x="532" y="73" on="1"/>
        <pt x="613" y="45" on="1"/>
        <pt x="613" y="0" on="1"/>
      </contour>
    </TTGlyph>
    <TTGlyph name="Kcommaaccent" xMin="35" yMin="-236" xMax="613" yMax="614">
      <contour>
        <pt x="35" y="45" on="1"/>
        <pt x="119" y="69" on="1"/>
        <pt x="119" y="546" on="1"/>
        <pt x="35" y="569" on="1"/>
        <pt x="35" y="614" on="1"/>
        <pt x="319" y="614" on="1"/>
        <pt x="319" y="568" on="1"/>
        <pt x="254" y="546" on="1"/>
        <pt x="254" y="347" on="1"/>
        <pt x="437" y="554" on="1"/>
        <pt x="382" y="569" on="1"/>
        <pt x="382" y="614" on="1"/>
        <pt x="587" y="614" on="1"/>
        <pt x="587" y="571" on="1"/>
        <pt x="519" y="549" on="1"/>
        <pt x="344" y="343" on="1"/>
        <pt x="532" y="73" on="1"/>
        <pt x="613" y="45" on="1"/>
        <pt x="613" y="0" on="1"/>
        <pt x="429" y="0" on="1"/>
        <pt x="254" y="253" on="1"/>
        <pt x="254" y="68" on="1"/>
        <pt x="319" y="46" on="1"/>
        <pt x="319" y="0" on="1"/>
        <pt x="35" y="0" on="1"/>
      </contour>
      <contour>
        <pt x="282" y="-44" on="1"/>
        <pt x="372" y="-24" on="1"/>
        <pt x="397" y="-48" on="1"/>
        <pt x="317" y="-236" on="1"/>
        <pt x="273" y="-229" on="1"/>
      </contour>
    </TTGlyph>
    <TTGlyph name="L" xMin="35" yMin="0" xMax="486" yMax="614">
      <contour>
        <pt x="35" y="0" on="1"/>
        <pt x="35" y="45" on="1"/>
        <pt x="119" y="69" on="1"/>
        <pt x="119" y="546" on="1"/>
        <pt x="35" y="569" on="1"/>
        <pt x="35" y="614" on="1"/>
        <pt x="339" y="614" on="1"/>
        <pt x="339" y="569" on="1"/>
        <pt x="254" y="546" on="1"/>
        <pt x="254" y="69" on="1"/>
        <pt x="404" y="69" on="1"/>
        <pt x="430" y="162" on="1"/>
        <pt x="486" y="162" on="1"/>
        <pt x="486" y="0" on="1"/>
      </contour>
    </TTGlyph>
    <TTGlyph name="Lacute" xMin="35" yMin="0" xMax="486" yMax="800">
      <contour>
        <pt x="78" y="669" on="1"/>
        <pt x="234" y="800" on="1"/>
        <pt x="333" y="766" on="1"/>
        <pt x="333" y="743" on="1"/>
        <pt x="105" y="634" on="1"/>
      </contour>
      <contour>
        <pt x="35" y="0" on="1"/>
        <pt x="35" y="45" on="1"/>
        <pt x="119" y="69" on="1"/>
        <pt x="119" y="546" on="1"/>
        <pt x="35" y="569" on="1"/>
        <pt x="35" y="614" on="1"/>
        <pt x="339" y="614" on="1"/>
        <pt x="339" y="569" on="1"/>
        <pt x="254" y="546" on="1"/>
        <pt x="254" y="69" on="1"/>
        <pt x="404" y="69" on="1"/>
        <pt x="430" y="162" on="1"/>
        <pt x="486" y="162" on="1"/>
        <pt x="486" y="0" on="1"/>
      </contour>
    </TTGlyph>
    <TTGlyph name="Lcaron" xMin="35" yMin="0" xMax="486" yMax="800">
      <contour>
        <pt x="40" y="775" on="1"/>
        <pt x="66" y="800" on="1"/>
        <pt x="192" y="723" on="1"/>
        <pt x="321" y="800" on="1"/>
        <pt x="344" y="775" on="1"/>
        <pt x="235" y="641" on="1"/>
        <pt x="150" y="641" on="1"/>
      </contour>
      <contour>
        <pt x="35" y="45" on="1"/>
        <pt x="119" y="69" on="1"/>
        <pt x="119" y="546" on="1"/>
        <pt x="35" y="569" on="1"/>
        <pt x="35" y="614" on="1"/>
        <pt x="339" y="614" on="1"/>
        <pt x="339" y="569" on="1"/>
        <pt x="254" y="546" on="1"/>
        <pt x="254" y="69" on="1"/>
        <pt x="404" y="69" on="1"/>
        <pt x="430" y="162" on="1"/>
        <pt x="486" y="162" on="1"/>
        <pt x="486" y="0" on="1"/>
        <pt x="35" y="0" on="1"/>
      </contour>
    </TTGlyph>
    <TTGlyph name="Lcommaaccent" xMin="35" yMin="-236" xMax="486" yMax="614">
      <contour>
        <pt x="35" y="45" on="1"/>
        <pt x="119" y="69" on="1"/>
        <pt x="119" y="546" on="1"/>
        <pt x="35" y="569" on="1"/>
        <pt x="35" y="614" on="1"/>
        <pt x="339" y="614" on="1"/>
        <pt x="339" y="569" on="1"/>
        <pt x="254" y="546" on="1"/>
        <pt x="254" y="69" on="1"/>
        <pt x="404" y="69" on="1"/>
        <pt x="430" y="162" on="1"/>
        <pt x="486" y="162" on="1"/>
        <pt x="486" y="0" on="1"/>
        <pt x="35" y="0" on="1"/>
      </contour>
      <contour>
        <pt x="229" y="-44" on="1"/>
        <pt x="319" y="-24" on="1"/>
        <pt x="344" y="-48" on="1"/>
        <pt x="264" y="-236" on="1"/>
        <pt x="220" y="-229" on="1"/>
      </contour>
    </TTGlyph>
    <TTGlyph name="Ldot" xMin="35" yMin="0" xMax="493" yMax="614">
      <component glyphName=".ttfautohint" x="35" y="0" flags="0x0"/>
      <component glyphName="L" x="0" y="0" flags="0x0"/>
      <component glyphName="periodcentered" x="285" y="164" flags="0x4"/>
    </TTGlyph>
    <TTGlyph name="Lslash" xMin="28" yMin="0" xMax="486" yMax="614">
      <contour>
        <pt x="35" y="45" on="1"/>
        <pt x="119" y="69" on="1"/>
        <pt x="119" y="230" on="1"/>
        <pt x="60" y="195" on="1"/>
        <pt x="28" y="251" on="1"/>
        <pt x="119" y="305" on="1"/>
        <pt x="119" y="546" on="1"/>
        <pt x="35" y="569" on="1"/>
        <pt x="35" y="614" on="1"/>
        <pt x="339" y="614" on="1"/>
        <pt x="339" y="569" on="1"/>
        <pt x="254" y="546" on="1"/>
        <pt x="254" y="386" on="1"/>
        <pt x="338" y="436" on="1"/>
        <pt x="370" y="380" on="1"/>
        <pt x="254" y="310" on="1"/>
        <pt x="254" y="69" on="1"/>
        <pt x="404" y="69" on="1"/>
        <pt x="430" y="162" on="1"/>
        <pt x="486" y="162" on="1"/>
        <pt x="486" y="0" on="1"/>
        <pt x="35" y="0" on="1"/>
      </contour>
    </TTGlyph>
    <TTGlyph name="M" xMin="19" yMin="-10" xMax="792" yMax="614">
      <contour>
        <pt x="19" y="0" on="1"/>
        <pt x="19" y="45" on="1"/>
        <pt x="103" y="69" on="1"/>
        <pt x="121" y="546" on="1"/>
        <pt x="37" y="569" on="1"/>
        <pt x="37" y="614" on="1"/>
        <pt x="245" y="614" on="1"/>
        <pt x="401" y="146" on="1"/>
        <pt x="555" y="614" on="1"/>
        <pt x="771" y="614" on="1"/>
        <pt x="771" y="569" on="1"/>
        <pt x="686" y="546" on="1"/>
        <pt x="707" y="69" on="1"/>
        <pt x="792" y="45" on="1"/>
        <pt x="792" y="0" on="1"/>
        <pt x="496" y="0" on="1"/>
        <pt x="496" y="45" on="1"/>
        <pt x="580" y="69" on="1"/>
        <pt x="565" y="435" on="1"/>
        <pt x="417" y="0" on="1"/>
        <pt x="343" y="-10" on="1"/>
        <pt x="185" y="432" on="1"/>
        <pt x="171" y="69" on="1"/>
        <pt x="256" y="45" on="1"/>
        <pt x="256" y="0" on="1"/>
      </contour>
    </TTGlyph>
    <TTGlyph name="N" xMin="35" yMin="-10" xMax="704" yMax="614">
      <contour>
        <pt x="704" y="614" on="1"/>
        <pt x="704" y="569" on="1"/>
        <pt x="619" y="546" on="1"/>
        <pt x="619" y="0" on="1"/>
        <pt x="507" y="-10" on="1"/>
        <pt x="189" y="456" on="1"/>
        <pt x="189" y="69" on="1"/>
        <pt x="274" y="45" on="1"/>
        <pt x="274" y="0" on="1"/>
        <pt x="36" y="0" on="1"/>
        <pt x="36" y="45" on="1"/>
        <pt x="120" y="69" on="1"/>
        <pt x="120" y="546" on="1"/>
        <pt x="35" y="569" on="1"/>
        <pt x="35" y="614" on="1"/>
        <pt x="241" y="614" on="1"/>
        <pt x="546" y="163" on="1"/>
        <pt x="546" y="546" on="1"/>
        <pt x="461" y="569" on="1"/>
        <pt x="461" y="614" on="1"/>
      </contour>
    </TTGlyph>
    <TTGlyph name="Nacute" xMin="35" yMin="-10" xMax="704" yMax="800">
      <contour>
        <pt x="271" y="669" on="1"/>
        <pt x="427" y="800" on="1"/>
        <pt x="526" y="766" on="1"/>
        <pt x="526" y="743" on="1"/>
        <pt x="298" y="634" on="1"/>
      </contour>
      <contour>
        <pt x="704" y="614" on="1"/>
        <pt x="704" y="569" on="1"/>
        <pt x="619" y="546" on="1"/>
        <pt x="619" y="0" on="1"/>
        <pt x="507" y="-10" on="1"/>
        <pt x="189" y="456" on="1"/>
        <pt x="189" y="69" on="1"/>
        <pt x="274" y="45" on="1"/>
        <pt x="274" y="0" on="1"/>
        <pt x="36" y="0" on="1"/>
        <pt x="36" y="45" on="1"/>
        <pt x="120" y="69" on="1"/>
        <pt x="120" y="546" on="1"/>
        <pt x="35" y="569" on="1"/>
        <pt x="35" y="614" on="1"/>
        <pt x="241" y="614" on="1"/>
        <pt x="546" y="163" on="1"/>
        <pt x="546" y="546" on="1"/>
        <pt x="461" y="569" on="1"/>
        <pt x="461" y="614" on="1"/>
      </contour>
    </TTGlyph>
    <TTGlyph name="Nacute.loclPLK" xMin="35" yMin="-10" xMax="704" yMax="814">
      <component glyphName=".ttfautohint" x="35" y="0" flags="0x0"/>
      <component glyphName="N" x="0" y="0" flags="0x0"/>
      <component glyphName="acute.loclPLK.case" x="265" y="0" flags="0x0"/>
    </TTGlyph>
    <TTGlyph name="Ncaron" xMin="35" yMin="-10" xMax="704" yMax="800">
      <contour>
        <pt x="217" y="775" on="1"/>
        <pt x="243" y="800" on="1"/>
        <pt x="369" y="723" on="1"/>
        <pt x="498" y="800" on="1"/>
        <pt x="521" y="775" on="1"/>
        <pt x="412" y="641" on="1"/>
        <pt x="327" y="641" on="1"/>
      </contour>
      <contour>
        <pt x="189" y="456" on="1"/>
        <pt x="189" y="69" on="1"/>
        <pt x="274" y="45" on="1"/>
        <pt x="274" y="0" on="1"/>
        <pt x="36" y="0" on="1"/>
        <pt x="36" y="45" on="1"/>
        <pt x="120" y="69" on="1"/>
        <pt x="120" y="546" on="1"/>
        <pt x="35" y="569" on="1"/>
        <pt x="35" y="614" on="1"/>
        <pt x="241" y="614" on="1"/>
        <pt x="546" y="163" on="1"/>
        <pt x="546" y="546" on="1"/>
        <pt x="461" y="569" on="1"/>
        <pt x="461" y="614" on="1"/>
        <pt x="704" y="614" on="1"/>
        <pt x="704" y="569" on="1"/>
        <pt x="619" y="546" on="1"/>
        <pt x="619" y="0" on="1"/>
        <pt x="507" y="-10" on="1"/>
      </contour>
    </TTGlyph>
    <TTGlyph name="Ncommaaccent" xMin="35" yMin="-236" xMax="704" yMax="614">
      <contour>
        <pt x="189" y="456" on="1"/>
        <pt x="189" y="69" on="1"/>
        <pt x="274" y="45" on="1"/>
        <pt x="274" y="0" on="1"/>
        <pt x="36" y="0" on="1"/>
        <pt x="36" y="45" on="1"/>
        <pt x="120" y="69" on="1"/>
        <pt x="120" y="546" on="1"/>
        <pt x="35" y="569" on="1"/>
        <pt x="35" y="614" on="1"/>
        <pt x="241" y="614" on="1"/>
        <pt x="546" y="163" on="1"/>
        <pt x="546" y="546" on="1"/>
        <pt x="461" y="569" on="1"/>
        <pt x="461" y="614" on="1"/>
        <pt x="704" y="614" on="1"/>
        <pt x="704" y="569" on="1"/>
        <pt x="619" y="546" on="1"/>
        <pt x="619" y="0" on="1"/>
        <pt x="507" y="-10" on="1"/>
      </contour>
      <contour>
        <pt x="322" y="-44" on="1"/>
        <pt x="412" y="-24" on="1"/>
        <pt x="437" y="-48" on="1"/>
        <pt x="357" y="-236" on="1"/>
        <pt x="313" y="-229" on="1"/>
      </contour>
    </TTGlyph>
    <TTGlyph name="Ntilde" xMin="35" yMin="-10" xMax="704" yMax="790">
      <contour>
        <pt x="504" y="661" on="0"/>
        <pt x="461" y="661" on="1"/>
        <pt x="433" y="661" on="0"/>
        <pt x="363" y="681" on="1"/>
        <pt x="304" y="698" on="0"/>
        <pt x="285" y="698" on="1"/>
        <pt x="274" y="698" on="0"/>
        <pt x="257" y="684" on="0"/>
        <pt x="246" y="669" on="0"/>
        <pt x="245" y="667" on="1"/>
        <pt x="198" y="686" on="1"/>
        <pt x="214" y="731" on="0"/>
        <pt x="261" y="790" on="0"/>
        <pt x="285" y="790" on="1"/>
        <pt x="314" y="790" on="0"/>
        <pt x="382" y="770" on="1"/>
        <pt x="441" y="753" on="0"/>
        <pt x="461" y="753" on="1"/>
        <pt x="472" y="753" on="0"/>
        <pt x="491" y="767" on="0"/>
        <pt x="502" y="782" on="0"/>
        <pt x="503" y="784" on="1"/>
        <pt x="547" y="765" on="1"/>
      </contour>
      <contour>
        <pt x="704" y="614" on="1"/>
        <pt x="704" y="569" on="1"/>
        <pt x="619" y="546" on="1"/>
        <pt x="619" y="0" on="1"/>
        <pt x="507" y="-10" on="1"/>
        <pt x="189" y="456" on="1"/>
        <pt x="189" y="69" on="1"/>
        <pt x="274" y="45" on="1"/>
        <pt x="274" y="0" on="1"/>
        <pt x="36" y="0" on="1"/>
        <pt x="36" y="45" on="1"/>
        <pt x="120" y="69" on="1"/>
        <pt x="120" y="546" on="1"/>
        <pt x="35" y="569" on="1"/>
        <pt x="35" y="614" on="1"/>
        <pt x="241" y="614" on="1"/>
        <pt x="546" y="163" on="1"/>
        <pt x="546" y="546" on="1"/>
        <pt x="461" y="569" on="1"/>
        <pt x="461" y="614" on="1"/>
      </contour>
    </TTGlyph>
    <TTGlyph name="O" xMin="30" yMin="-9" xMax="633" yMax="628">
      <contour>
        <pt x="487" y="628" on="0"/>
        <pt x="633" y="452" on="0"/>
        <pt x="633" y="311" on="1"/>
        <pt x="633" y="169" on="0"/>
        <pt x="486" y="-9" on="0"/>
        <pt x="333" y="-9" on="1"/>
        <pt x="231" y="-9" on="0"/>
        <pt x="95" y="76" on="0"/>
        <pt x="30" y="220" on="0"/>
        <pt x="30" y="311" on="1"/>
        <pt x="30" y="401" on="0"/>
        <pt x="93" y="544" on="0"/>
        <pt x="229" y="628" on="0"/>
        <pt x="333" y="628" on="1"/>
      </contour>
      <contour>
        <pt x="488" y="411" on="0"/>
        <pt x="420" y="558" on="0"/>
        <pt x="327" y="558" on="1"/>
        <pt x="238" y="558" on="0"/>
        <pt x="175" y="412" on="0"/>
        <pt x="175" y="311" on="1"/>
        <pt x="175" y="62" on="0"/>
        <pt x="337" y="62" on="1"/>
        <pt x="426" y="62" on="0"/>
        <pt x="488" y="207" on="0"/>
        <pt x="488" y="311" on="1"/>
      </contour>
    </TTGlyph>
    <TTGlyph name="OE" xMin="30" yMin="0" xMax="796" yMax="614">
      <contour>
        <pt x="776" y="468" on="1"/>
        <pt x="720" y="468" on="1"/>
        <pt x="698" y="546" on="1"/>
        <pt x="539" y="546" on="1"/>
        <pt x="539" y="330" on="1"/>
        <pt x="639" y="330" on="1"/>
        <pt x="656" y="396" on="1"/>
        <pt x="709" y="396" on="1"/>
        <pt x="709" y="205" on="1"/>
        <pt x="656" y="205" on="1"/>
        <pt x="637" y="274" on="1"/>
        <pt x="539" y="274" on="1"/>
        <pt x="539" y="69" on="1"/>
        <pt x="714" y="69" on="1"/>
        <pt x="740" y="162" on="1"/>
        <pt x="796" y="162" on="1"/>
        <pt x="796" y="0" on="1"/>
        <pt x="323" y="0" on="1"/>
        <pt x="176" y="0" on="0"/>
        <pt x="30" y="172" on="0"/>
        <pt x="30" y="311" on="1"/>
        <pt x="30" y="449" on="0"/>
        <pt x="174" y="614" on="0"/>
        <pt x="322" y="614" on="1"/>
        <pt x="776" y="614" on="1"/>
      </contour>
      <contour>
        <pt x="367" y="560" on="0"/>
        <pt x="317" y="560" on="1"/>
        <pt x="173" y="560" on="0"/>
        <pt x="173" y="311" on="1"/>
        <pt x="173" y="203" on="0"/>
        <pt x="239" y="54" on="0"/>
        <pt x="327" y="54" on="1"/>
        <pt x="370" y="54" on="0"/>
        <pt x="407" y="69" on="1"/>
        <pt x="407" y="546" on="1"/>
      </contour>
    </TTGlyph>
    <TTGlyph name="Oacute" xMin="30" yMin="-9" xMax="633" yMax="800">
      <component glyphName=".ttfautohint" x="30" y="0" flags="0x0"/>
      <component glyphName="O" x="0" y="0" flags="0x0"/>
      <component glyphName="acute.case" x="267" y="0" flags="0x0"/>
    </TTGlyph>
    <TTGlyph name="Oacute.loclPLK" xMin="30" yMin="-9" xMax="633" yMax="814">
      <component glyphName=".ttfautohint" x="30" y="0" flags="0x0"/>
      <component glyphName="O" x="0" y="0" flags="0x0"/>
      <component glyphName="acute.loclPLK.case" x="237" y="0" flags="0x0"/>
    </TTGlyph>
    <TTGlyph name="Obreve" xMin="30" yMin="-9" xMax="633" yMax="788">
      <component glyphName=".ttfautohint" x="30" y="0" flags="0x0"/>
      <component glyphName="O" x="0" y="0" flags="0x0"/>
      <component glyphName="uni0306" x="459" y="0" flags="0x0"/>
    </TTGlyph>
    <TTGlyph name="Ocircumflex" xMin="30" yMin="-9" xMax="633" yMax="800">
      <contour>
        <pt x="331" y="717" on="1"/>
        <pt x="205" y="640" on="1"/>
        <pt x="179" y="665" on="1"/>
        <pt x="289" y="800" on="1"/>
        <pt x="374" y="800" on="1"/>
        <pt x="483" y="665" on="1"/>
        <pt x="460" y="640" on="1"/>
      </contour>
      <contour>
        <pt x="487" y="628" on="0"/>
        <pt x="633" y="452" on="0"/>
        <pt x="633" y="311" on="1"/>
        <pt x="633" y="169" on="0"/>
        <pt x="486" y="-9" on="0"/>
        <pt x="333" y="-9" on="1"/>
        <pt x="231" y="-9" on="0"/>
        <pt x="95" y="76" on="0"/>
        <pt x="30" y="220" on="0"/>
        <pt x="30" y="311" on="1"/>
        <pt x="30" y="401" on="0"/>
        <pt x="93" y="544" on="0"/>
        <pt x="229" y="628" on="0"/>
        <pt x="333" y="628" on="1"/>
      </contour>
      <contour>
        <pt x="488" y="411" on="0"/>
        <pt x="420" y="558" on="0"/>
        <pt x="327" y="558" on="1"/>
        <pt x="238" y="558" on="0"/>
        <pt x="175" y="412" on="0"/>
        <pt x="175" y="311" on="1"/>
        <pt x="175" y="62" on="0"/>
        <pt x="337" y="62" on="1"/>
        <pt x="426" y="62" on="0"/>
        <pt x="488" y="207" on="0"/>
        <pt x="488" y="311" on="1"/>
      </contour>
    </TTGlyph>
    <TTGlyph name="Odieresis" xMin="30" yMin="-9" xMax="633" yMax="792">
      <contour>
        <pt x="292" y="688" on="0"/>
        <pt x="249" y="647" on="0"/>
        <pt x="218" y="647" on="1"/>
        <pt x="186" y="647" on="0"/>
        <pt x="140" y="688" on="0"/>
        <pt x="140" y="719" on="1"/>
        <pt x="140" y="749" on="0"/>
        <pt x="187" y="792" on="0"/>
        <pt x="218" y="792" on="1"/>
        <pt x="248" y="792" on="0"/>
        <pt x="292" y="749" on="0"/>
        <pt x="292" y="719" on="1"/>
      </contour>
      <contour>
        <pt x="523" y="688" on="0"/>
        <pt x="479" y="647" on="0"/>
        <pt x="450" y="647" on="1"/>
        <pt x="418" y="647" on="0"/>
        <pt x="373" y="688" on="0"/>
        <pt x="373" y="719" on="1"/>
        <pt x="373" y="750" on="0"/>
        <pt x="418" y="792" on="0"/>
        <pt x="450" y="792" on="1"/>
        <pt x="479" y="792" on="0"/>
        <pt x="523" y="749" on="0"/>
        <pt x="523" y="719" on="1"/>
      </contour>
      <contour>
        <pt x="487" y="628" on="0"/>
        <pt x="633" y="452" on="0"/>
        <pt x="633" y="311" on="1"/>
        <pt x="633" y="169" on="0"/>
        <pt x="486" y="-9" on="0"/>
        <pt x="333" y="-9" on="1"/>
        <pt x="231" y="-9" on="0"/>
        <pt x="95" y="76" on="0"/>
        <pt x="30" y="220" on="0"/>
        <pt x="30" y="311" on="1"/>
        <pt x="30" y="401" on="0"/>
        <pt x="93" y="544" on="0"/>
        <pt x="229" y="628" on="0"/>
        <pt x="333" y="628" on="1"/>
      </contour>
      <contour>
        <pt x="488" y="411" on="0"/>
        <pt x="420" y="558" on="0"/>
        <pt x="327" y="558" on="1"/>
        <pt x="238" y="558" on="0"/>
        <pt x="175" y="412" on="0"/>
        <pt x="175" y="311" on="1"/>
        <pt x="175" y="62" on="0"/>
        <pt x="337" y="62" on="1"/>
        <pt x="426" y="62" on="0"/>
        <pt x="488" y="207" on="0"/>
        <pt x="488" y="311" on="1"/>
      </contour>
    </TTGlyph>
    <TTGlyph name="Ograve" xMin="30" yMin="-9" xMax="633" yMax="800">
      <contour>
        <pt x="184" y="743" on="1"/>
        <pt x="188" y="766" on="1"/>
        <pt x="285" y="800" on="1"/>
        <pt x="439" y="669" on="1"/>
        <pt x="416" y="634" on="1"/>
      </contour>
      <contour>
        <pt x="487" y="628" on="0"/>
        <pt x="633" y="452" on="0"/>
        <pt x="633" y="311" on="1"/>
        <pt x="633" y="169" on="0"/>
        <pt x="486" y="-9" on="0"/>
        <pt x="333" y="-9" on="1"/>
        <pt x="231" y="-9" on="0"/>
        <pt x="95" y="76" on="0"/>
        <pt x="30" y="220" on="0"/>
        <pt x="30" y="311" on="1"/>
        <pt x="30" y="401" on="0"/>
        <pt x="93" y="544" on="0"/>
        <pt x="229" y="628" on="0"/>
        <pt x="333" y="628" on="1"/>
      </contour>
      <contour>
        <pt x="488" y="411" on="0"/>
        <pt x="420" y="558" on="0"/>
        <pt x="327" y="558" on="1"/>
        <pt x="238" y="558" on="0"/>
        <pt x="175" y="412" on="0"/>
        <pt x="175" y="311" on="1"/>
        <pt x="175" y="62" on="0"/>
        <pt x="337" y="62" on="1"/>
        <pt x="426" y="62" on="0"/>
        <pt x="488" y="207" on="0"/>
        <pt x="488" y="311" on="1"/>
      </contour>
    </TTGlyph>
    <TTGlyph name="Ohorn" xMin="30" yMin="-9" xMax="681" yMax="706">
      <contour>
        <pt x="681" y="608" on="0"/>
        <pt x="612" y="551" on="0"/>
        <pt x="560" y="539" on="1"/>
        <pt x="633" y="456" on="0"/>
        <pt x="633" y="311" on="1"/>
        <pt x="633" y="169" on="0"/>
        <pt x="486" y="-9" on="0"/>
        <pt x="333" y="-9" on="1"/>
        <pt x="231" y="-9" on="0"/>
        <pt x="95" y="76" on="0"/>
        <pt x="30" y="220" on="0"/>
        <pt x="30" y="311" on="1"/>
        <pt x="30" y="401" on="0"/>
        <pt x="93" y="544" on="0"/>
        <pt x="229" y="628" on="0"/>
        <pt x="333" y="628" on="1"/>
        <pt x="436" y="628" on="0"/>
        <pt x="506" y="585" on="1"/>
        <pt x="527" y="585" on="1"/>
        <pt x="555" y="585" on="0"/>
        <pt x="583" y="607" on="0"/>
        <pt x="583" y="638" on="1"/>
        <pt x="583" y="657" on="0"/>
        <pt x="578" y="679" on="1"/>
        <pt x="584" y="692" on="1"/>
        <pt x="668" y="706" on="1"/>
        <pt x="674" y="693" on="0"/>
        <pt x="681" y="661" on="0"/>
        <pt x="681" y="649" on="1"/>
      </contour>
      <contour>
        <pt x="426" y="62" on="0"/>
        <pt x="488" y="207" on="0"/>
        <pt x="488" y="311" on="1"/>
        <pt x="488" y="411" on="0"/>
        <pt x="420" y="558" on="0"/>
        <pt x="327" y="558" on="1"/>
        <pt x="238" y="558" on="0"/>
        <pt x="175" y="412" on="0"/>
        <pt x="175" y="311" on="1"/>
        <pt x="175" y="62" on="0"/>
        <pt x="337" y="62" on="1"/>
      </contour>
    </TTGlyph>
    <TTGlyph name="Ohungarumlaut" xMin="30" yMin="-9" xMax="633" yMax="814">
      <contour>
        <pt x="198" y="654" on="1"/>
        <pt x="290" y="814" on="1"/>
        <pt x="382" y="814" on="1"/>
        <pt x="382" y="792" on="1"/>
        <pt x="229" y="631" on="1"/>
      </contour>
      <contour>
        <pt x="359" y="654" on="1"/>
        <pt x="451" y="814" on="1"/>
        <pt x="543" y="814" on="1"/>
        <pt x="543" y="792" on="1"/>
        <pt x="390" y="631" on="1"/>
      </contour>
      <contour>
        <pt x="231" y="-9" on="0"/>
        <pt x="95" y="76" on="0"/>
        <pt x="30" y="220" on="0"/>
        <pt x="30" y="311" on="1"/>
        <pt x="30" y="401" on="0"/>
        <pt x="93" y="544" on="0"/>
        <pt x="229" y="628" on="0"/>
        <pt x="333" y="628" on="1"/>
        <pt x="487" y="628" on="0"/>
        <pt x="633" y="452" on="0"/>
        <pt x="633" y="311" on="1"/>
        <pt x="633" y="169" on="0"/>
        <pt x="486" y="-9" on="0"/>
        <pt x="333" y="-9" on="1"/>
      </contour>
      <contour>
        <pt x="426" y="62" on="0"/>
        <pt x="488" y="207" on="0"/>
        <pt x="488" y="311" on="1"/>
        <pt x="488" y="411" on="0"/>
        <pt x="420" y="558" on="0"/>
        <pt x="327" y="558" on="1"/>
        <pt x="238" y="558" on="0"/>
        <pt x="175" y="412" on="0"/>
        <pt x="175" y="311" on="1"/>
        <pt x="175" y="62" on="0"/>
        <pt x="337" y="62" on="1"/>
      </contour>
    </TTGlyph>
    <TTGlyph name="Omacron" xMin="30" yMin="-9" xMax="633" yMax="758">
      <contour>
        <pt x="452" y="758" on="1"/>
        <pt x="452" y="679" on="1"/>
        <pt x="211" y="679" on="1"/>
        <pt x="211" y="758" on="1"/>
      </contour>
      <contour>
        <pt x="487" y="628" on="0"/>
        <pt x="633" y="452" on="0"/>
        <pt x="633" y="311" on="1"/>
        <pt x="633" y="169" on="0"/>
        <pt x="486" y="-9" on="0"/>
        <pt x="333" y="-9" on="1"/>
        <pt x="231" y="-9" on="0"/>
        <pt x="95" y="76" on="0"/>
        <pt x="30" y="220" on="0"/>
        <pt x="30" y="311" on="1"/>
        <pt x="30" y="401" on="0"/>
        <pt x="93" y="544" on="0"/>
        <pt x="229" y="628" on="0"/>
        <pt x="333" y="628" on="1"/>
      </contour>
      <contour>
        <pt x="488" y="411" on="0"/>
        <pt x="420" y="558" on="0"/>
        <pt x="327" y="558" on="1"/>
        <pt x="238" y="558" on="0"/>
        <pt x="175" y="412" on="0"/>
        <pt x="175" y="311" on="1"/>
        <pt x="175" y="62" on="0"/>
        <pt x="337" y="62" on="1"/>
        <pt x="426" y="62" on="0"/>
        <pt x="488" y="207" on="0"/>
        <pt x="488" y="311" on="1"/>
      </contour>
    </TTGlyph>
    <TTGlyph name="Oslash" xMin="30" yMin="-94" xMax="633" yMax="708">
      <contour>
        <pt x="175" y="26" on="1"/>
        <pt x="102" y="64" on="0"/>
        <pt x="30" y="214" on="0"/>
        <pt x="30" y="311" on="1"/>
        <pt x="30" y="401" on="0"/>
        <pt x="93" y="544" on="0"/>
        <pt x="229" y="628" on="0"/>
        <pt x="333" y="628" on="1"/>
        <pt x="373" y="628" on="0"/>
        <pt x="406" y="622" on="1"/>
        <pt x="440" y="708" on="1"/>
        <pt x="524" y="708" on="1"/>
        <pt x="481" y="598" on="1"/>
        <pt x="559" y="562" on="0"/>
        <pt x="633" y="411" on="0"/>
        <pt x="633" y="311" on="1"/>
        <pt x="633" y="169" on="0"/>
        <pt x="486" y="-9" on="0"/>
        <pt x="333" y="-9" on="1"/>
        <pt x="286" y="-9" on="0"/>
        <pt x="247" y="0" on="1"/>
        <pt x="210" y="-94" on="1"/>
        <pt x="129" y="-94" on="1"/>
      </contour>
      <contour>
        <pt x="381" y="556" on="1"/>
        <pt x="357" y="565" on="0"/>
        <pt x="327" y="565" on="1"/>
        <pt x="175" y="565" on="0"/>
        <pt x="175" y="311" on="1"/>
        <pt x="175" y="186" on="0"/>
        <pt x="213" y="122" on="1"/>
      </contour>
      <contour>
        <pt x="426" y="54" on="0"/>
        <pt x="488" y="203" on="0"/>
        <pt x="488" y="311" on="1"/>
        <pt x="488" y="439" on="0"/>
        <pt x="444" y="504" on="1"/>
        <pt x="273" y="66" on="1"/>
        <pt x="300" y="54" on="0"/>
        <pt x="337" y="54" on="1"/>
      </contour>
    </TTGlyph>
    <TTGlyph name="Oslashacute" xMin="30" yMin="-94" xMax="633" yMax="800">
      <component glyphName=".ttfautohint" x="30" y="0" flags="0x0"/>
      <component glyphName="Oslash" x="0" y="0" flags="0x0"/>
      <component glyphName="acutecomb" x="452" y="0" flags="0x0"/>
    </TTGlyph>
    <TTGlyph name="Otilde" xMin="30" yMin="-9" xMax="633" yMax="790">
      <contour>
        <pt x="463" y="661" on="0"/>
        <pt x="420" y="661" on="1"/>
        <pt x="392" y="661" on="0"/>
        <pt x="322" y="681" on="1"/>
        <pt x="263" y="698" on="0"/>
        <pt x="244" y="698" on="1"/>
        <pt x="233" y="698" on="0"/>
        <pt x="216" y="684" on="0"/>
        <pt x="205" y="669" on="0"/>
        <pt x="204" y="667" on="1"/>
        <pt x="157" y="686" on="1"/>
        <pt x="173" y="731" on="0"/>
        <pt x="220" y="790" on="0"/>
        <pt x="244" y="790" on="1"/>
        <pt x="273" y="790" on="0"/>
        <pt x="341" y="770" on="1"/>
        <pt x="400" y="753" on="0"/>
        <pt x="420" y="753" on="1"/>
        <pt x="431" y="753" on="0"/>
        <pt x="450" y="767" on="0"/>
        <pt x="461" y="782" on="0"/>
        <pt x="462" y="784" on="1"/>
        <pt x="506" y="765" on="1"/>
      </contour>
      <contour>
        <pt x="487" y="628" on="0"/>
        <pt x="633" y="452" on="0"/>
        <pt x="633" y="311" on="1"/>
        <pt x="633" y="169" on="0"/>
        <pt x="486" y="-9" on="0"/>
        <pt x="333" y="-9" on="1"/>
        <pt x="231" y="-9" on="0"/>
        <pt x="95" y="76" on="0"/>
        <pt x="30" y="220" on="0"/>
        <pt x="30" y="311" on="1"/>
        <pt x="30" y="401" on="0"/>
        <pt x="93" y="544" on="0"/>
        <pt x="229" y="628" on="0"/>
        <pt x="333" y="628" on="1"/>
      </contour>
      <contour>
        <pt x="488" y="411" on="0"/>
        <pt x="420" y="558" on="0"/>
        <pt x="327" y="558" on="1"/>
        <pt x="238" y="558" on="0"/>
        <pt x="175" y="412" on="0"/>
        <pt x="175" y="311" on="1"/>
        <pt x="175" y="62" on="0"/>
        <pt x="337" y="62" on="1"/>
        <pt x="426" y="62" on="0"/>
        <pt x="488" y="207" on="0"/>
        <pt x="488" y="311" on="1"/>
      </contour>
    </TTGlyph>
    <TTGlyph name="P" xMin="35" yMin="0" xMax="539" yMax="614">
      <contour>
        <pt x="378" y="614" on="0"/>
        <pt x="478" y="573" on="0"/>
        <pt x="539" y="493" on="0"/>
        <pt x="539" y="437" on="1"/>
        <pt x="539" y="371" on="0"/>
        <pt x="472" y="284" on="0"/>
        <pt x="367" y="243" on="0"/>
        <pt x="309" y="243" on="1"/>
        <pt x="301" y="243" on="0"/>
        <pt x="261" y="245" on="0"/>
        <pt x="255" y="247" on="1"/>
        <pt x="255" y="69" on="1"/>
        <pt x="361" y="46" on="1"/>
        <pt x="361" y="0" on="1"/>
        <pt x="36" y="0" on="1"/>
        <pt x="36" y="45" on="1"/>
        <pt x="120" y="69" on="1"/>
        <pt x="120" y="546" on="1"/>
        <pt x="35" y="569" on="1"/>
        <pt x="35" y="614" on="1"/>
        <pt x="321" y="614" on="1"/>
      </contour>
      <contour>
        <pt x="265" y="293" on="0"/>
        <pt x="285" y="293" on="1"/>
        <pt x="341" y="293" on="0"/>
        <pt x="402" y="370" on="0"/>
        <pt x="402" y="430" on="1"/>
        <pt x="402" y="485" on="0"/>
        <pt x="352" y="551" on="0"/>
        <pt x="310" y="551" on="1"/>
        <pt x="276" y="551" on="0"/>
        <pt x="255" y="546" on="1"/>
        <pt x="255" y="296" on="1"/>
      </contour>
    </TTGlyph>
    <TTGlyph name="Q" xMin="30" yMin="-157" xMax="680" yMax="628">
      <contour>
        <pt x="658" y="-135" on="0"/>
        <pt x="590" y="-157" on="0"/>
        <pt x="563" y="-157" on="1"/>
        <pt x="535" y="-157" on="0"/>
        <pt x="464" y="-131" on="0"/>
        <pt x="408" y="-96" on="1"/>
        <pt x="253" y="0" on="1"/>
        <pt x="142" y="23" on="0"/>
        <pt x="30" y="191" on="0"/>
        <pt x="30" y="311" on="1"/>
        <pt x="30" y="451" on="0"/>
        <pt x="179" y="628" on="0"/>
        <pt x="332" y="628" on="1"/>
        <pt x="486" y="628" on="0"/>
        <pt x="632" y="452" on="0"/>
        <pt x="632" y="311" on="1"/>
        <pt x="632" y="191" on="0"/>
        <pt x="518" y="17" on="0"/>
        <pt x="400" y="-5" on="1"/>
        <pt x="573" y="-85" on="0"/>
        <pt x="607" y="-85" on="1"/>
        <pt x="676" y="-85" on="1"/>
        <pt x="680" y="-122" on="1"/>
      </contour>
      <contour>
        <pt x="174" y="63" on="0"/>
        <pt x="336" y="63" on="1"/>
        <pt x="427" y="63" on="0"/>
        <pt x="488" y="206" on="0"/>
        <pt x="488" y="311" on="1"/>
        <pt x="488" y="411" on="0"/>
        <pt x="419" y="558" on="0"/>
        <pt x="326" y="558" on="1"/>
        <pt x="237" y="558" on="0"/>
        <pt x="174" y="412" on="0"/>
        <pt x="174" y="311" on="1"/>
      </contour>
    </TTGlyph>
    <TTGlyph name="R" xMin="35" yMin="0" xMax="603" yMax="614">
      <contour>
        <pt x="372" y="127" on="0"/>
        <pt x="326" y="238" on="0"/>
        <pt x="298" y="268" on="0"/>
        <pt x="280" y="268" on="1"/>
        <pt x="255" y="268" on="1"/>
        <pt x="255" y="69" on="1"/>
        <pt x="329" y="45" on="1"/>
        <pt x="329" y="0" on="1"/>
        <pt x="36" y="0" on="1"/>
        <pt x="36" y="45" on="1"/>
        <pt x="120" y="69" on="1"/>
        <pt x="120" y="546" on="1"/>
        <pt x="35" y="569" on="1"/>
        <pt x="35" y="614" on="1"/>
        <pt x="318" y="614" on="1"/>
        <pt x="432" y="614" on="0"/>
        <pt x="542" y="534" on="0"/>
        <pt x="542" y="465" on="1"/>
        <pt x="542" y="339" on="0"/>
        <pt x="399" y="295" on="1"/>
        <pt x="424" y="287" on="0"/>
        <pt x="452" y="261" on="0"/>
        <pt x="478" y="209" on="0"/>
        <pt x="507" y="142" on="1"/>
        <pt x="539" y="68" on="1"/>
        <pt x="603" y="45" on="1"/>
        <pt x="603" y="0" on="1"/>
        <pt x="418" y="0" on="1"/>
      </contour>
      <contour>
        <pt x="348" y="323" on="0"/>
        <pt x="406" y="391" on="0"/>
        <pt x="406" y="448" on="1"/>
        <pt x="406" y="500" on="0"/>
        <pt x="351" y="553" on="0"/>
        <pt x="303" y="553" on="1"/>
        <pt x="274" y="553" on="0"/>
        <pt x="255" y="546" on="1"/>
        <pt x="255" y="323" on="1"/>
        <pt x="296" y="323" on="1"/>
      </contour>
    </TTGlyph>
    <TTGlyph name="Racute" xMin="35" yMin="0" xMax="603" yMax="800">
      <contour>
        <pt x="191" y="669" on="1"/>
        <pt x="347" y="800" on="1"/>
        <pt x="446" y="766" on="1"/>
        <pt x="446" y="743" on="1"/>
        <pt x="218" y="634" on="1"/>
      </contour>
      <contour>
        <pt x="372" y="127" on="0"/>
        <pt x="326" y="238" on="0"/>
        <pt x="298" y="268" on="0"/>
        <pt x="280" y="268" on="1"/>
        <pt x="255" y="268" on="1"/>
        <pt x="255" y="69" on="1"/>
        <pt x="329" y="45" on="1"/>
        <pt x="329" y="0" on="1"/>
        <pt x="36" y="0" on="1"/>
        <pt x="36" y="45" on="1"/>
        <pt x="120" y="69" on="1"/>
        <pt x="120" y="546" on="1"/>
        <pt x="35" y="569" on="1"/>
        <pt x="35" y="614" on="1"/>
        <pt x="318" y="614" on="1"/>
        <pt x="432" y="614" on="0"/>
        <pt x="542" y="534" on="0"/>
        <pt x="542" y="465" on="1"/>
        <pt x="542" y="339" on="0"/>
        <pt x="399" y="295" on="1"/>
        <pt x="424" y="287" on="0"/>
        <pt x="452" y="261" on="0"/>
        <pt x="478" y="209" on="0"/>
        <pt x="507" y="142" on="1"/>
        <pt x="539" y="68" on="1"/>
        <pt x="603" y="45" on="1"/>
        <pt x="603" y="0" on="1"/>
        <pt x="418" y="0" on="1"/>
      </contour>
      <contour>
        <pt x="348" y="323" on="0"/>
        <pt x="406" y="391" on="0"/>
        <pt x="406" y="448" on="1"/>
        <pt x="406" y="500" on="0"/>
        <pt x="351" y="553" on="0"/>
        <pt x="303" y="553" on="1"/>
        <pt x="274" y="553" on="0"/>
        <pt x="255" y="546" on="1"/>
        <pt x="255" y="323" on="1"/>
        <pt x="296" y="323" on="1"/>
      </contour>
    </TTGlyph>
    <TTGlyph name="Rcaron" xMin="35" yMin="0" xMax="603" yMax="800">
      <contour>
        <pt x="149" y="775" on="1"/>
        <pt x="175" y="800" on="1"/>
        <pt x="301" y="723" on="1"/>
        <pt x="430" y="800" on="1"/>
        <pt x="453" y="775" on="1"/>
        <pt x="344" y="641" on="1"/>
        <pt x="259" y="641" on="1"/>
      </contour>
      <contour>
        <pt x="36" y="45" on="1"/>
        <pt x="120" y="69" on="1"/>
        <pt x="120" y="546" on="1"/>
        <pt x="35" y="569" on="1"/>
        <pt x="35" y="614" on="1"/>
        <pt x="318" y="614" on="1"/>
        <pt x="432" y="614" on="0"/>
        <pt x="542" y="534" on="0"/>
        <pt x="542" y="465" on="1"/>
        <pt x="542" y="339" on="0"/>
        <pt x="399" y="295" on="1"/>
        <pt x="424" y="287" on="0"/>
        <pt x="452" y="261" on="0"/>
        <pt x="478" y="209" on="0"/>
        <pt x="507" y="142" on="1"/>
        <pt x="539" y="68" on="1"/>
        <pt x="603" y="45" on="1"/>
        <pt x="603" y="0" on="1"/>
        <pt x="418" y="0" on="1"/>
        <pt x="372" y="127" on="0"/>
        <pt x="326" y="238" on="0"/>
        <pt x="298" y="268" on="0"/>
        <pt x="280" y="268" on="1"/>
        <pt x="255" y="268" on="1"/>
        <pt x="255" y="69" on="1"/>
        <pt x="329" y="45" on="1"/>
        <pt x="329" y="0" on="1"/>
        <pt x="36" y="0" on="1"/>
      </contour>
      <contour>
        <pt x="296" y="323" on="1"/>
        <pt x="348" y="323" on="0"/>
        <pt x="406" y="391" on="0"/>
        <pt x="406" y="448" on="1"/>
        <pt x="406" y="500" on="0"/>
        <pt x="351" y="553" on="0"/>
        <pt x="303" y="553" on="1"/>
        <pt x="274" y="553" on="0"/>
        <pt x="255" y="546" on="1"/>
        <pt x="255" y="323" on="1"/>
      </contour>
    </TTGlyph>
    <TTGlyph name="Rcommaaccent" xMin="35" yMin="-236" xMax="603" yMax="614">
      <contour>
        <pt x="36" y="45" on="1"/>
        <pt x="120" y="69" on="1"/>
        <pt x="120" y="546" on="1"/>
        <pt x="35" y="569" on="1"/>
        <pt x="35" y="614" on="1"/>
        <pt x="318" y="614" on="1"/>
        <pt x="432" y="614" on="0"/>
        <pt x="542" y="534" on="0"/>
        <pt x="542" y="465" on="1"/>
        <pt x="542" y="339" on="0"/>
        <pt x="399" y="295" on="1"/>
        <pt x="424" y="287" on="0"/>
        <pt x="452" y="261" on="0"/>
        <pt x="478" y="209" on="0"/>
        <pt x="507" y="142" on="1"/>
        <pt x="539" y="68" on="1"/>
        <pt x="603" y="45" on="1"/>
        <pt x="603" y="0" on="1"/>
        <pt x="418" y="0" on="1"/>
        <pt x="372" y="127" on="0"/>
        <pt x="326" y="238" on="0"/>
        <pt x="298" y="268" on="0"/>
        <pt x="280" y="268" on="1"/>
        <pt x="255" y="268" on="1"/>
        <pt x="255" y="69" on="1"/>
        <pt x="329" y="45" on="1"/>
        <pt x="329" y="0" on="1"/>
        <pt x="36" y="0" on="1"/>
      </contour>
      <contour>
        <pt x="296" y="323" on="1"/>
        <pt x="348" y="323" on="0"/>
        <pt x="406" y="391" on="0"/>
        <pt x="406" y="448" on="1"/>
        <pt x="406" y="500" on="0"/>
        <pt x="351" y="553" on="0"/>
        <pt x="303" y="553" on="1"/>
        <pt x="274" y="553" on="0"/>
        <pt x="255" y="546" on="1"/>
        <pt x="255" y="323" on="1"/>
      </contour>
      <contour>
        <pt x="284" y="-44" on="1"/>
        <pt x="374" y="-24" on="1"/>
        <pt x="399" y="-48" on="1"/>
        <pt x="319" y="-236" on="1"/>
        <pt x="275" y="-229" on="1"/>
      </contour>
    </TTGlyph>
    <TTGlyph name="S" xMin="30" yMin="-9" xMax="450" yMax="628">
      <contour>
        <pt x="41" y="532" on="0"/>
        <pt x="153" y="628" on="0"/>
        <pt x="254" y="628" on="1"/>
        <pt x="345" y="628" on="0"/>
        <pt x="429" y="601" on="1"/>
        <pt x="418" y="456" on="1"/>
        <pt x="365" y="456" on="1"/>
        <pt x="343" y="547" on="1"/>
        <pt x="331" y="551" on="0"/>
        <pt x="282" y="558" on="0"/>
        <pt x="266" y="558" on="1"/>
        <pt x="216" y="558" on="0"/>
        <pt x="155" y="521" on="0"/>
        <pt x="155" y="478" on="1"/>
        <pt x="155" y="443" on="0"/>
        <pt x="200" y="398" on="0"/>
        <pt x="243" y="380" on="1"/>
        <pt x="334" y="342" on="1"/>
        <pt x="395" y="316" on="0"/>
        <pt x="450" y="236" on="0"/>
        <pt x="450" y="179" on="1"/>
        <pt x="450" y="91" on="0"/>
        <pt x="330" y="-9" on="0"/>
        <pt x="215" y="-9" on="1"/>
        <pt x="170" y="-9" on="0"/>
        <pt x="69" y="7" on="0"/>
        <pt x="30" y="22" on="1"/>
        <pt x="45" y="165" on="1"/>
        <pt x="101" y="165" on="1"/>
        <pt x="117" y="78" on="1"/>
        <pt x="169" y="63" on="0"/>
        <pt x="213" y="63" on="1"/>
        <pt x="266" y="63" on="0"/>
        <pt x="327" y="103" on="0"/>
        <pt x="327" y="140" on="1"/>
        <pt x="327" y="174" on="0"/>
        <pt x="288" y="214" on="0"/>
        <pt x="241" y="235" on="1"/>
        <pt x="149" y="275" on="1"/>
        <pt x="105" y="294" on="0"/>
        <pt x="41" y="378" on="0"/>
        <pt x="41" y="445" on="1"/>
      </contour>
    </TTGlyph>
    <TTGlyph name="Sacute" xMin="30" yMin="-9" xMax="450" yMax="800">
      <contour>
        <pt x="135" y="669" on="1"/>
        <pt x="291" y="800" on="1"/>
        <pt x="390" y="766" on="1"/>
        <pt x="390" y="743" on="1"/>
        <pt x="162" y="634" on="1"/>
      </contour>
      <contour>
        <pt x="41" y="532" on="0"/>
        <pt x="153" y="628" on="0"/>
        <pt x="254" y="628" on="1"/>
        <pt x="345" y="628" on="0"/>
        <pt x="429" y="601" on="1"/>
        <pt x="418" y="456" on="1"/>
        <pt x="365" y="456" on="1"/>
        <pt x="343" y="547" on="1"/>
        <pt x="331" y="551" on="0"/>
        <pt x="282" y="558" on="0"/>
        <pt x="266" y="558" on="1"/>
        <pt x="216" y="558" on="0"/>
        <pt x="155" y="521" on="0"/>
        <pt x="155" y="478" on="1"/>
        <pt x="155" y="443" on="0"/>
        <pt x="200" y="398" on="0"/>
        <pt x="243" y="380" on="1"/>
        <pt x="334" y="342" on="1"/>
        <pt x="395" y="316" on="0"/>
        <pt x="450" y="236" on="0"/>
        <pt x="450" y="179" on="1"/>
        <pt x="450" y="91" on="0"/>
        <pt x="330" y="-9" on="0"/>
        <pt x="215" y="-9" on="1"/>
        <pt x="170" y="-9" on="0"/>
        <pt x="69" y="7" on="0"/>
        <pt x="30" y="22" on="1"/>
        <pt x="45" y="165" on="1"/>
        <pt x="101" y="165" on="1"/>
        <pt x="117" y="78" on="1"/>
        <pt x="169" y="63" on="0"/>
        <pt x="213" y="63" on="1"/>
        <pt x="266" y="63" on="0"/>
        <pt x="327" y="103" on="0"/>
        <pt x="327" y="140" on="1"/>
        <pt x="327" y="174" on="0"/>
        <pt x="288" y="214" on="0"/>
        <pt x="241" y="235" on="1"/>
        <pt x="149" y="275" on="1"/>
        <pt x="105" y="294" on="0"/>
        <pt x="41" y="378" on="0"/>
        <pt x="41" y="445" on="1"/>
      </contour>
    </TTGlyph>
    <TTGlyph name="Sacute.loclPLK" xMin="30" yMin="-9" xMax="450" yMax="814">
      <component glyphName=".ttfautohint" x="30" y="0" flags="0x0"/>
      <component glyphName="S" x="0" y="0" flags="0x0"/>
      <component glyphName="acute.loclPLK.case" x="147" y="0" flags="0x0"/>
    </TTGlyph>
    <TTGlyph name="Scaron" xMin="30" yMin="-9" xMax="450" yMax="800">
      <contour>
        <pt x="97" y="775" on="1"/>
        <pt x="123" y="800" on="1"/>
        <pt x="249" y="723" on="1"/>
        <pt x="378" y="800" on="1"/>
        <pt x="401" y="775" on="1"/>
        <pt x="292" y="641" on="1"/>
        <pt x="207" y="641" on="1"/>
      </contour>
      <contour>
        <pt x="170" y="-9" on="0"/>
        <pt x="69" y="7" on="0"/>
        <pt x="30" y="22" on="1"/>
        <pt x="45" y="165" on="1"/>
        <pt x="101" y="165" on="1"/>
        <pt x="117" y="78" on="1"/>
        <pt x="169" y="63" on="0"/>
        <pt x="213" y="63" on="1"/>
        <pt x="266" y="63" on="0"/>
        <pt x="327" y="103" on="0"/>
        <pt x="327" y="140" on="1"/>
        <pt x="327" y="174" on="0"/>
        <pt x="288" y="214" on="0"/>
        <pt x="241" y="235" on="1"/>
        <pt x="149" y="275" on="1"/>
        <pt x="105" y="294" on="0"/>
        <pt x="41" y="378" on="0"/>
        <pt x="41" y="445" on="1"/>
        <pt x="41" y="532" on="0"/>
        <pt x="153" y="628" on="0"/>
        <pt x="254" y="628" on="1"/>
        <pt x="345" y="628" on="0"/>
        <pt x="429" y="601" on="1"/>
        <pt x="418" y="456" on="1"/>
        <pt x="365" y="456" on="1"/>
        <pt x="343" y="547" on="1"/>
        <pt x="331" y="551" on="0"/>
        <pt x="282" y="558" on="0"/>
        <pt x="266" y="558" on="1"/>
        <pt x="216" y="558" on="0"/>
        <pt x="155" y="521" on="0"/>
        <pt x="155" y="478" on="1"/>
        <pt x="155" y="443" on="0"/>
        <pt x="200" y="398" on="0"/>
        <pt x="243" y="380" on="1"/>
        <pt x="334" y="342" on="1"/>
        <pt x="395" y="316" on="0"/>
        <pt x="450" y="236" on="0"/>
        <pt x="450" y="179" on="1"/>
        <pt x="450" y="91" on="0"/>
        <pt x="330" y="-9" on="0"/>
        <pt x="215" y="-9" on="1"/>
      </contour>
    </TTGlyph>
    <TTGlyph name="Scedilla" xMin="30" yMin="-220" xMax="450" yMax="628">
      <contour>
        <pt x="162" y="-220" on="0"/>
        <pt x="139" y="-209" on="1"/>
        <pt x="147" y="-169" on="1"/>
        <pt x="160" y="-176" on="0"/>
        <pt x="175" y="-176" on="1"/>
        <pt x="202" y="-176" on="0"/>
        <pt x="233" y="-148" on="0"/>
        <pt x="233" y="-131" on="1"/>
        <pt x="233" y="-115" on="0"/>
        <pt x="207" y="-93" on="0"/>
        <pt x="178" y="-92" on="1"/>
        <pt x="171" y="-73" on="1"/>
        <pt x="194" y="-8" on="1"/>
        <pt x="151" y="-6" on="0"/>
        <pt x="64" y="9" on="0"/>
        <pt x="30" y="22" on="1"/>
        <pt x="45" y="165" on="1"/>
        <pt x="101" y="165" on="1"/>
        <pt x="117" y="78" on="1"/>
        <pt x="169" y="63" on="0"/>
        <pt x="213" y="63" on="1"/>
        <pt x="266" y="63" on="0"/>
        <pt x="327" y="103" on="0"/>
        <pt x="327" y="140" on="1"/>
        <pt x="327" y="174" on="0"/>
        <pt x="288" y="214" on="0"/>
        <pt x="241" y="235" on="1"/>
        <pt x="149" y="275" on="1"/>
        <pt x="105" y="294" on="0"/>
        <pt x="41" y="378" on="0"/>
        <pt x="41" y="445" on="1"/>
        <pt x="41" y="532" on="0"/>
        <pt x="153" y="628" on="0"/>
        <pt x="254" y="628" on="1"/>
        <pt x="345" y="628" on="0"/>
        <pt x="429" y="601" on="1"/>
        <pt x="418" y="456" on="1"/>
        <pt x="365" y="456" on="1"/>
        <pt x="343" y="547" on="1"/>
        <pt x="331" y="551" on="0"/>
        <pt x="282" y="558" on="0"/>
        <pt x="266" y="558" on="1"/>
        <pt x="216" y="558" on="0"/>
        <pt x="155" y="521" on="0"/>
        <pt x="155" y="478" on="1"/>
        <pt x="155" y="443" on="0"/>
        <pt x="200" y="398" on="0"/>
        <pt x="243" y="380" on="1"/>
        <pt x="334" y="342" on="1"/>
        <pt x="395" y="316" on="0"/>
        <pt x="450" y="236" on="0"/>
        <pt x="450" y="179" on="1"/>
        <pt x="450" y="96" on="0"/>
        <pt x="343" y="-2" on="0"/>
        <pt x="241" y="-8" on="1"/>
        <pt x="230" y="-46" on="1"/>
        <pt x="279" y="-46" on="0"/>
        <pt x="329" y="-86" on="0"/>
        <pt x="329" y="-118" on="1"/>
        <pt x="329" y="-145" on="0"/>
        <pt x="291" y="-192" on="0"/>
        <pt x="228" y="-220" on="0"/>
        <pt x="193" y="-220" on="1"/>
      </contour>
    </TTGlyph>
    <TTGlyph name="Scircumflex" xMin="30" yMin="-9" xMax="450" yMax="800">
      <component glyphName=".ttfautohint" x="30" y="0" flags="0x0"/>
      <component glyphName="S" x="0" y="0" flags="0x0"/>
      <component glyphName="uni0302" x="370" y="0" flags="0x0"/>
    </TTGlyph>
    <TTGlyph name="Scommaaccent" xMin="30" yMin="-236" xMax="450" yMax="628">
      <contour>
        <pt x="170" y="-9" on="0"/>
        <pt x="69" y="7" on="0"/>
        <pt x="30" y="22" on="1"/>
        <pt x="45" y="165" on="1"/>
        <pt x="101" y="165" on="1"/>
        <pt x="117" y="78" on="1"/>
        <pt x="169" y="63" on="0"/>
        <pt x="213" y="63" on="1"/>
        <pt x="266" y="63" on="0"/>
        <pt x="327" y="103" on="0"/>
        <pt x="327" y="140" on="1"/>
        <pt x="327" y="174" on="0"/>
        <pt x="288" y="214" on="0"/>
        <pt x="241" y="235" on="1"/>
        <pt x="149" y="275" on="1"/>
        <pt x="105" y="294" on="0"/>
        <pt x="41" y="378" on="0"/>
        <pt x="41" y="445" on="1"/>
        <pt x="41" y="532" on="0"/>
        <pt x="153" y="628" on="0"/>
        <pt x="254" y="628" on="1"/>
        <pt x="345" y="628" on="0"/>
        <pt x="429" y="601" on="1"/>
        <pt x="418" y="456" on="1"/>
        <pt x="365" y="456" on="1"/>
        <pt x="343" y="547" on="1"/>
        <pt x="331" y="551" on="0"/>
        <pt x="282" y="558" on="0"/>
        <pt x="266" y="558" on="1"/>
        <pt x="216" y="558" on="0"/>
        <pt x="155" y="521" on="0"/>
        <pt x="155" y="478" on="1"/>
        <pt x="155" y="443" on="0"/>
        <pt x="200" y="398" on="0"/>
        <pt x="243" y="380" on="1"/>
        <pt x="334" y="342" on="1"/>
        <pt x="395" y="316" on="0"/>
        <pt x="450" y="236" on="0"/>
        <pt x="450" y="179" on="1"/>
        <pt x="450" y="91" on="0"/>
        <pt x="330" y="-9" on="0"/>
        <pt x="215" y="-9" on="1"/>
      </contour>
      <contour>
        <pt x="189" y="-44" on="1"/>
        <pt x="279" y="-24" on="1"/>
        <pt x="304" y="-48" on="1"/>
        <pt x="224" y="-236" on="1"/>
        <pt x="180" y="-229" on="1"/>
      </contour>
    </TTGlyph>
    <TTGlyph name="T" xMin="7" yMin="0" xMax="532" yMax="614">
      <contour>
        <pt x="532" y="614" on="1"/>
        <pt x="526" y="455" on="1"/>
        <pt x="469" y="455" on="1"/>
        <pt x="449" y="546" on="1"/>
        <pt x="337" y="546" on="1"/>
        <pt x="337" y="69" on="1"/>
        <pt x="422" y="45" on="1"/>
        <pt x="422" y="0" on="1"/>
        <pt x="118" y="0" on="1"/>
        <pt x="118" y="45" on="1"/>
        <pt x="202" y="69" on="1"/>
        <pt x="202" y="546" on="1"/>
        <pt x="88" y="546" on="1"/>
        <pt x="69" y="455" on="1"/>
        <pt x="14" y="455" on="1"/>
        <pt x="7" y="614" on="1"/>
      </contour>
    </TTGlyph>
    <TTGlyph name="Tbar" xMin="7" yMin="0" xMax="532" yMax="614">
      <contour>
        <pt x="337" y="546" on="1"/>
        <pt x="337" y="343" on="1"/>
        <pt x="503" y="343" on="1"/>
        <pt x="503" y="288" on="1"/>
        <pt x="337" y="288" on="1"/>
        <pt x="337" y="69" on="1"/>
        <pt x="422" y="45" on="1"/>
        <pt x="422" y="0" on="1"/>
        <pt x="118" y="0" on="1"/>
        <pt x="118" y="45" on="1"/>
        <pt x="202" y="69" on="1"/>
        <pt x="202" y="288" on="1"/>
        <pt x="39" y="288" on="1"/>
        <pt x="39" y="343" on="1"/>
        <pt x="202" y="343" on="1"/>
        <pt x="202" y="546" on="1"/>
        <pt x="88" y="546" on="1"/>
        <pt x="69" y="455" on="1"/>
        <pt x="14" y="455" on="1"/>
        <pt x="7" y="614" on="1"/>
        <pt x="532" y="614" on="1"/>
        <pt x="526" y="455" on="1"/>
        <pt x="469" y="455" on="1"/>
        <pt x="449" y="546" on="1"/>
      </contour>
    </TTGlyph>
    <TTGlyph name="Tcaron" xMin="7" yMin="0" xMax="532" yMax="800">
      <contour>
        <pt x="119" y="775" on="1"/>
        <pt x="145" y="800" on="1"/>
        <pt x="271" y="723" on="1"/>
        <pt x="400" y="800" on="1"/>
        <pt x="423" y="775" on="1"/>
        <pt x="314" y="641" on="1"/>
        <pt x="229" y="641" on="1"/>
      </contour>
      <contour>
        <pt x="118" y="45" on="1"/>
        <pt x="202" y="69" on="1"/>
        <pt x="202" y="546" on="1"/>
        <pt x="88" y="546" on="1"/>
        <pt x="69" y="455" on="1"/>
        <pt x="14" y="455" on="1"/>
        <pt x="7" y="614" on="1"/>
        <pt x="532" y="614" on="1"/>
        <pt x="526" y="455" on="1"/>
        <pt x="469" y="455" on="1"/>
        <pt x="449" y="546" on="1"/>
        <pt x="337" y="546" on="1"/>
        <pt x="337" y="69" on="1"/>
        <pt x="422" y="45" on="1"/>
        <pt x="422" y="0" on="1"/>
        <pt x="118" y="0" on="1"/>
      </contour>
    </TTGlyph>
    <TTGlyph name="Thorn" xMin="35" yMin="0" xMax="517" yMax="614">
      <contour>
        <pt x="36" y="45" on="1"/>
        <pt x="120" y="69" on="1"/>
        <pt x="120" y="546" on="1"/>
        <pt x="35" y="569" on="1"/>
        <pt x="35" y="614" on="1"/>
        <pt x="340" y="614" on="1"/>
        <pt x="340" y="569" on="1"/>
        <pt x="255" y="546" on="1"/>
        <pt x="255" y="475" on="1"/>
        <pt x="306" y="475" on="1"/>
        <pt x="400" y="475" on="0"/>
        <pt x="517" y="390" on="0"/>
        <pt x="517" y="312" on="1"/>
        <pt x="517" y="251" on="0"/>
        <pt x="456" y="170" on="0"/>
        <pt x="359" y="133" on="0"/>
        <pt x="305" y="133" on="1"/>
        <pt x="297" y="133" on="0"/>
        <pt x="261" y="135" on="0"/>
        <pt x="255" y="137" on="1"/>
        <pt x="255" y="69" on="1"/>
        <pt x="340" y="45" on="1"/>
        <pt x="340" y="0" on="1"/>
        <pt x="36" y="0" on="1"/>
      </contour>
      <contour>
        <pt x="335" y="183" on="0"/>
        <pt x="391" y="250" on="0"/>
        <pt x="391" y="305" on="1"/>
        <pt x="391" y="357" on="0"/>
        <pt x="337" y="413" on="0"/>
        <pt x="283" y="413" on="1"/>
        <pt x="255" y="413" on="1"/>
        <pt x="255" y="186" on="1"/>
        <pt x="265" y="183" on="0"/>
        <pt x="283" y="183" on="1"/>
      </contour>
    </TTGlyph>
    <TTGlyph name="U" xMin="6" yMin="-9" xMax="657" yMax="614">
      <contour>
        <pt x="572" y="185" on="0"/>
        <pt x="535" y="74" on="0"/>
        <pt x="430" y="-9" on="0"/>
        <pt x="336" y="-9" on="1"/>
        <pt x="238" y="-9" on="0"/>
        <pt x="130" y="63" on="0"/>
        <pt x="91" y="182" on="0"/>
        <pt x="91" y="265" on="1"/>
        <pt x="91" y="546" on="1"/>
        <pt x="6" y="569" on="1"/>
        <pt x="6" y="614" on="1"/>
        <pt x="311" y="614" on="1"/>
        <pt x="311" y="569" on="1"/>
        <pt x="226" y="546" on="1"/>
        <pt x="226" y="265" on="1"/>
        <pt x="226" y="200" on="0"/>
        <pt x="245" y="114" on="0"/>
        <pt x="302" y="63" on="0"/>
        <pt x="356" y="63" on="1"/>
        <pt x="428" y="63" on="0"/>
        <pt x="497" y="162" on="0"/>
        <pt x="497" y="245" on="1"/>
        <pt x="497" y="546" on="1"/>
        <pt x="412" y="569" on="1"/>
        <pt x="412" y="614" on="1"/>
        <pt x="657" y="614" on="1"/>
        <pt x="657" y="569" on="1"/>
        <pt x="572" y="546" on="1"/>
        <pt x="572" y="236" on="1"/>
      </contour>
    </TTGlyph>
    <TTGlyph name="Uacute" xMin="6" yMin="-9" xMax="657" yMax="800">
      <contour>
        <pt x="232" y="669" on="1"/>
        <pt x="388" y="800" on="1"/>
        <pt x="487" y="766" on="1"/>
        <pt x="487" y="743" on="1"/>
        <pt x="259" y="634" on="1"/>
      </contour>
      <contour>
        <pt x="572" y="185" on="0"/>
        <pt x="535" y="74" on="0"/>
        <pt x="430" y="-9" on="0"/>
        <pt x="336" y="-9" on="1"/>
        <pt x="238" y="-9" on="0"/>
        <pt x="130" y="63" on="0"/>
        <pt x="91" y="182" on="0"/>
        <pt x="91" y="265" on="1"/>
        <pt x="91" y="546" on="1"/>
        <pt x="6" y="569" on="1"/>
        <pt x="6" y="614" on="1"/>
        <pt x="311" y="614" on="1"/>
        <pt x="311" y="569" on="1"/>
        <pt x="226" y="546" on="1"/>
        <pt x="226" y="265" on="1"/>
        <pt x="226" y="200" on="0"/>
        <pt x="245" y="114" on="0"/>
        <pt x="302" y="63" on="0"/>
        <pt x="356" y="63" on="1"/>
        <pt x="428" y="63" on="0"/>
        <pt x="497" y="162" on="0"/>
        <pt x="497" y="245" on="1"/>
        <pt x="497" y="546" on="1"/>
        <pt x="412" y="569" on="1"/>
        <pt x="412" y="614" on="1"/>
        <pt x="657" y="614" on="1"/>
        <pt x="657" y="569" on="1"/>
        <pt x="572" y="546" on="1"/>
        <pt x="572" y="236" on="1"/>
      </contour>
    </TTGlyph>
    <TTGlyph name="Ubreve" xMin="6" yMin="-9" xMax="657" yMax="788">
      <component glyphName=".ttfautohint" x="6" y="0" flags="0x0"/>
      <component glyphName="U" x="0" y="0" flags="0x0"/>
      <component glyphName="uni0306" x="458" y="0" flags="0x0"/>
    </TTGlyph>
    <TTGlyph name="Ucircumflex" xMin="6" yMin="-9" xMax="657" yMax="800">
      <contour>
        <pt x="350" y="717" on="1"/>
        <pt x="224" y="640" on="1"/>
        <pt x="198" y="665" on="1"/>
        <pt x="308" y="800" on="1"/>
        <pt x="393" y="800" on="1"/>
        <pt x="502" y="665" on="1"/>
        <pt x="479" y="640" on="1"/>
      </contour>
      <contour>
        <pt x="572" y="185" on="0"/>
        <pt x="535" y="74" on="0"/>
        <pt x="430" y="-9" on="0"/>
        <pt x="336" y="-9" on="1"/>
        <pt x="238" y="-9" on="0"/>
        <pt x="130" y="63" on="0"/>
        <pt x="91" y="182" on="0"/>
        <pt x="91" y="265" on="1"/>
        <pt x="91" y="546" on="1"/>
        <pt x="6" y="569" on="1"/>
        <pt x="6" y="614" on="1"/>
        <pt x="311" y="614" on="1"/>
        <pt x="311" y="569" on="1"/>
        <pt x="226" y="546" on="1"/>
        <pt x="226" y="265" on="1"/>
        <pt x="226" y="200" on="0"/>
        <pt x="245" y="114" on="0"/>
        <pt x="302" y="63" on="0"/>
        <pt x="356" y="63" on="1"/>
        <pt x="428" y="63" on="0"/>
        <pt x="497" y="162" on="0"/>
        <pt x="497" y="245" on="1"/>
        <pt x="497" y="546" on="1"/>
        <pt x="412" y="569" on="1"/>
        <pt x="412" y="614" on="1"/>
        <pt x="657" y="614" on="1"/>
        <pt x="657" y="569" on="1"/>
        <pt x="572" y="546" on="1"/>
        <pt x="572" y="236" on="1"/>
      </contour>
    </TTGlyph>
    <TTGlyph name="Udieresis" xMin="6" yMin="-9" xMax="657" yMax="792">
      <contour>
        <pt x="314" y="688" on="0"/>
        <pt x="271" y="647" on="0"/>
        <pt x="240" y="647" on="1"/>
        <pt x="208" y="647" on="0"/>
        <pt x="162" y="688" on="0"/>
        <pt x="162" y="719" on="1"/>
        <pt x="162" y="749" on="0"/>
        <pt x="209" y="792" on="0"/>
        <pt x="240" y="792" on="1"/>
        <pt x="270" y="792" on="0"/>
        <pt x="314" y="749" on="0"/>
        <pt x="314" y="719" on="1"/>
      </contour>
      <contour>
        <pt x="545" y="688" on="0"/>
        <pt x="501" y="647" on="0"/>
        <pt x="472" y="647" on="1"/>
        <pt x="440" y="647" on="0"/>
        <pt x="395" y="688" on="0"/>
        <pt x="395" y="719" on="1"/>
        <pt x="395" y="750" on="0"/>
        <pt x="440" y="792" on="0"/>
        <pt x="472" y="792" on="1"/>
        <pt x="501" y="792" on="0"/>
        <pt x="545" y="749" on="0"/>
        <pt x="545" y="719" on="1"/>
      </contour>
      <contour>
        <pt x="572" y="185" on="0"/>
        <pt x="535" y="74" on="0"/>
        <pt x="430" y="-9" on="0"/>
        <pt x="336" y="-9" on="1"/>
        <pt x="238" y="-9" on="0"/>
        <pt x="130" y="63" on="0"/>
        <pt x="91" y="182" on="0"/>
        <pt x="91" y="265" on="1"/>
        <pt x="91" y="546" on="1"/>
        <pt x="6" y="569" on="1"/>
        <pt x="6" y="614" on="1"/>
        <pt x="311" y="614" on="1"/>
        <pt x="311" y="569" on="1"/>
        <pt x="226" y="546" on="1"/>
        <pt x="226" y="265" on="1"/>
        <pt x="226" y="200" on="0"/>
        <pt x="245" y="114" on="0"/>
        <pt x="302" y="63" on="0"/>
        <pt x="356" y="63" on="1"/>
        <pt x="428" y="63" on="0"/>
        <pt x="497" y="162" on="0"/>
        <pt x="497" y="245" on="1"/>
        <pt x="497" y="546" on="1"/>
        <pt x="412" y="569" on="1"/>
        <pt x="412" y="614" on="1"/>
        <pt x="657" y="614" on="1"/>
        <pt x="657" y="569" on="1"/>
        <pt x="572" y="546" on="1"/>
        <pt x="572" y="236" on="1"/>
      </contour>
    </TTGlyph>
    <TTGlyph name="Ugrave" xMin="6" yMin="-9" xMax="657" yMax="800">
      <contour>
        <pt x="194" y="743" on="1"/>
        <pt x="198" y="766" on="1"/>
        <pt x="295" y="800" on="1"/>
        <pt x="449" y="669" on="1"/>
        <pt x="426" y="634" on="1"/>
      </contour>
      <contour>
        <pt x="572" y="185" on="0"/>
        <pt x="535" y="74" on="0"/>
        <pt x="430" y="-9" on="0"/>
        <pt x="336" y="-9" on="1"/>
        <pt x="238" y="-9" on="0"/>
        <pt x="130" y="63" on="0"/>
        <pt x="91" y="182" on="0"/>
        <pt x="91" y="265" on="1"/>
        <pt x="91" y="546" on="1"/>
        <pt x="6" y="569" on="1"/>
        <pt x="6" y="614" on="1"/>
        <pt x="311" y="614" on="1"/>
        <pt x="311" y="569" on="1"/>
        <pt x="226" y="546" on="1"/>
        <pt x="226" y="265" on="1"/>
        <pt x="226" y="200" on="0"/>
        <pt x="245" y="114" on="0"/>
        <pt x="302" y="63" on="0"/>
        <pt x="356" y="63" on="1"/>
        <pt x="428" y="63" on="0"/>
        <pt x="497" y="162" on="0"/>
        <pt x="497" y="245" on="1"/>
        <pt x="497" y="546" on="1"/>
        <pt x="412" y="569" on="1"/>
        <pt x="412" y="614" on="1"/>
        <pt x="657" y="614" on="1"/>
        <pt x="657" y="569" on="1"/>
        <pt x="572" y="546" on="1"/>
        <pt x="572" y="236" on="1"/>
      </contour>
    </TTGlyph>
    <TTGlyph name="Uhorn" xMin="6" yMin="-9" xMax="685" yMax="735">
      <contour>
        <pt x="685" y="633" on="0"/>
        <pt x="641" y="601" on="1"/>
        <pt x="572" y="546" on="1"/>
        <pt x="572" y="236" on="1"/>
        <pt x="572" y="185" on="0"/>
        <pt x="535" y="74" on="0"/>
        <pt x="430" y="-9" on="0"/>
        <pt x="336" y="-9" on="1"/>
        <pt x="238" y="-9" on="0"/>
        <pt x="130" y="63" on="0"/>
        <pt x="91" y="182" on="0"/>
        <pt x="91" y="265" on="1"/>
        <pt x="91" y="546" on="1"/>
        <pt x="6" y="569" on="1"/>
        <pt x="6" y="614" on="1"/>
        <pt x="311" y="614" on="1"/>
        <pt x="311" y="569" on="1"/>
        <pt x="226" y="546" on="1"/>
        <pt x="226" y="265" on="1"/>
        <pt x="226" y="200" on="0"/>
        <pt x="245" y="114" on="0"/>
        <pt x="302" y="63" on="0"/>
        <pt x="356" y="63" on="1"/>
        <pt x="428" y="63" on="0"/>
        <pt x="497" y="162" on="0"/>
        <pt x="497" y="245" on="1"/>
        <pt x="497" y="546" on="1"/>
        <pt x="412" y="569" on="1"/>
        <pt x="412" y="614" on="1"/>
        <pt x="531" y="614" on="1"/>
        <pt x="559" y="614" on="0"/>
        <pt x="587" y="636" on="0"/>
        <pt x="587" y="667" on="1"/>
        <pt x="587" y="686" on="0"/>
        <pt x="582" y="708" on="1"/>
        <pt x="588" y="721" on="1"/>
        <pt x="672" y="735" on="1"/>
        <pt x="678" y="722" on="0"/>
        <pt x="685" y="690" on="0"/>
        <pt x="685" y="678" on="1"/>
      </contour>
    </TTGlyph>
    <TTGlyph name="Uhungarumlaut" xMin="6" yMin="-9" xMax="657" yMax="814">
      <contour>
        <pt x="217" y="654" on="1"/>
        <pt x="309" y="814" on="1"/>
        <pt x="401" y="814" on="1"/>
        <pt x="401" y="792" on="1"/>
        <pt x="248" y="631" on="1"/>
      </contour>
      <contour>
        <pt x="378" y="654" on="1"/>
        <pt x="470" y="814" on="1"/>
        <pt x="562" y="814" on="1"/>
        <pt x="562" y="792" on="1"/>
        <pt x="409" y="631" on="1"/>
      </contour>
      <contour>
        <pt x="572" y="185" on="0"/>
        <pt x="535" y="74" on="0"/>
        <pt x="430" y="-9" on="0"/>
        <pt x="336" y="-9" on="1"/>
        <pt x="238" y="-9" on="0"/>
        <pt x="130" y="63" on="0"/>
        <pt x="91" y="182" on="0"/>
        <pt x="91" y="265" on="1"/>
        <pt x="91" y="546" on="1"/>
        <pt x="6" y="569" on="1"/>
        <pt x="6" y="614" on="1"/>
        <pt x="311" y="614" on="1"/>
        <pt x="311" y="569" on="1"/>
        <pt x="226" y="546" on="1"/>
        <pt x="226" y="265" on="1"/>
        <pt x="226" y="200" on="0"/>
        <pt x="245" y="114" on="0"/>
        <pt x="302" y="63" on="0"/>
        <pt x="356" y="63" on="1"/>
        <pt x="428" y="63" on="0"/>
        <pt x="497" y="162" on="0"/>
        <pt x="497" y="245" on="1"/>
        <pt x="497" y="546" on="1"/>
        <pt x="412" y="569" on="1"/>
        <pt x="412" y="614" on="1"/>
        <pt x="657" y="614" on="1"/>
        <pt x="657" y="569" on="1"/>
        <pt x="572" y="546" on="1"/>
        <pt x="572" y="236" on="1"/>
      </contour>
    </TTGlyph>
    <TTGlyph name="Umacron" xMin="6" yMin="-9" xMax="657" yMax="758">
      <contour>
        <pt x="482" y="758" on="1"/>
        <pt x="482" y="679" on="1"/>
        <pt x="241" y="679" on="1"/>
        <pt x="241" y="758" on="1"/>
      </contour>
      <contour>
        <pt x="572" y="185" on="0"/>
        <pt x="535" y="74" on="0"/>
        <pt x="430" y="-9" on="0"/>
        <pt x="336" y="-9" on="1"/>
        <pt x="238" y="-9" on="0"/>
        <pt x="130" y="63" on="0"/>
        <pt x="91" y="182" on="0"/>
        <pt x="91" y="265" on="1"/>
        <pt x="91" y="546" on="1"/>
        <pt x="6" y="569" on="1"/>
        <pt x="6" y="614" on="1"/>
        <pt x="311" y="614" on="1"/>
        <pt x="311" y="569" on="1"/>
        <pt x="226" y="546" on="1"/>
        <pt x="226" y="265" on="1"/>
        <pt x="226" y="200" on="0"/>
        <pt x="245" y="114" on="0"/>
        <pt x="302" y="63" on="0"/>
        <pt x="356" y="63" on="1"/>
        <pt x="428" y="63" on="0"/>
        <pt x="497" y="162" on="0"/>
        <pt x="497" y="245" on="1"/>
        <pt x="497" y="546" on="1"/>
        <pt x="412" y="569" on="1"/>
        <pt x="412" y="614" on="1"/>
        <pt x="657" y="614" on="1"/>
        <pt x="657" y="569" on="1"/>
        <pt x="572" y="546" on="1"/>
        <pt x="572" y="236" on="1"/>
      </contour>
    </TTGlyph>
    <TTGlyph name="Uogonek" xMin="6" yMin="-233" xMax="657" yMax="614">
      <contour>
        <pt x="323" y="-233" on="0"/>
        <pt x="275" y="-184" on="0"/>
        <pt x="275" y="-147" on="1"/>
        <pt x="275" y="-112" on="0"/>
        <pt x="327" y="-38" on="0"/>
        <pt x="375" y="-3" on="1"/>
        <pt x="356" y="-9" on="0"/>
        <pt x="336" y="-9" on="1"/>
        <pt x="238" y="-9" on="0"/>
        <pt x="130" y="63" on="0"/>
        <pt x="91" y="182" on="0"/>
        <pt x="91" y="265" on="1"/>
        <pt x="91" y="546" on="1"/>
        <pt x="6" y="569" on="1"/>
        <pt x="6" y="614" on="1"/>
        <pt x="311" y="614" on="1"/>
        <pt x="311" y="569" on="1"/>
        <pt x="226" y="546" on="1"/>
        <pt x="226" y="265" on="1"/>
        <pt x="226" y="200" on="0"/>
        <pt x="245" y="114" on="0"/>
        <pt x="302" y="63" on="0"/>
        <pt x="356" y="63" on="1"/>
        <pt x="428" y="63" on="0"/>
        <pt x="497" y="162" on="0"/>
        <pt x="497" y="245" on="1"/>
        <pt x="497" y="546" on="1"/>
        <pt x="412" y="569" on="1"/>
        <pt x="412" y="614" on="1"/>
        <pt x="657" y="614" on="1"/>
        <pt x="657" y="569" on="1"/>
        <pt x="572" y="546" on="1"/>
        <pt x="572" y="236" on="1"/>
        <pt x="572" y="179" on="0"/>
        <pt x="527" y="59" on="0"/>
        <pt x="470" y="24" on="1"/>
        <pt x="415" y="-9" on="0"/>
        <pt x="360" y="-74" on="0"/>
        <pt x="360" y="-126" on="1"/>
        <pt x="360" y="-171" on="0"/>
        <pt x="403" y="-171" on="1"/>
        <pt x="433" y="-171" on="0"/>
        <pt x="464" y="-149" on="1"/>
        <pt x="487" y="-171" on="1"/>
        <pt x="487" y="-173" on="0"/>
        <pt x="460" y="-205" on="0"/>
        <pt x="411" y="-233" on="0"/>
        <pt x="377" y="-233" on="1"/>
      </contour>
    </TTGlyph>
    <TTGlyph name="Uring" xMin="6" yMin="-9" xMax="657" yMax="819">
      <contour>
        <pt x="308" y="627" on="0"/>
        <pt x="249" y="679" on="0"/>
        <pt x="249" y="721" on="1"/>
        <pt x="249" y="764" on="0"/>
        <pt x="308" y="819" on="0"/>
        <pt x="362" y="819" on="1"/>
        <pt x="417" y="819" on="0"/>
        <pt x="476" y="764" on="0"/>
        <pt x="476" y="721" on="1"/>
        <pt x="476" y="679" on="0"/>
        <pt x="418" y="627" on="0"/>
        <pt x="362" y="627" on="1"/>
      </contour>
      <contour>
        <pt x="386" y="674" on="0"/>
        <pt x="402" y="699" on="0"/>
        <pt x="402" y="721" on="1"/>
        <pt x="402" y="744" on="0"/>
        <pt x="386" y="771" on="0"/>
        <pt x="362" y="771" on="1"/>
        <pt x="338" y="771" on="0"/>
        <pt x="323" y="744" on="0"/>
        <pt x="323" y="721" on="1"/>
        <pt x="323" y="699" on="0"/>
        <pt x="338" y="674" on="0"/>
        <pt x="362" y="674" on="1"/>
      </contour>
      <contour>
        <pt x="238" y="-9" on="0"/>
        <pt x="130" y="63" on="0"/>
        <pt x="91" y="182" on="0"/>
        <pt x="91" y="265" on="1"/>
        <pt x="91" y="546" on="1"/>
        <pt x="6" y="569" on="1"/>
        <pt x="6" y="614" on="1"/>
        <pt x="311" y="614" on="1"/>
        <pt x="311" y="569" on="1"/>
        <pt x="226" y="546" on="1"/>
        <pt x="226" y="265" on="1"/>
        <pt x="226" y="200" on="0"/>
        <pt x="245" y="114" on="0"/>
        <pt x="302" y="63" on="0"/>
        <pt x="356" y="63" on="1"/>
        <pt x="428" y="63" on="0"/>
        <pt x="497" y="162" on="0"/>
        <pt x="497" y="245" on="1"/>
        <pt x="497" y="546" on="1"/>
        <pt x="412" y="569" on="1"/>
        <pt x="412" y="614" on="1"/>
        <pt x="657" y="614" on="1"/>
        <pt x="657" y="569" on="1"/>
        <pt x="572" y="546" on="1"/>
        <pt x="572" y="236" on="1"/>
        <pt x="572" y="185" on="0"/>
        <pt x="535" y="74" on="0"/>
        <pt x="430" y="-9" on="0"/>
        <pt x="336" y="-9" on="1"/>
      </contour>
    </TTGlyph>
    <TTGlyph name="Utilde" xMin="6" yMin="-9" xMax="657" yMax="790">
      <contour>
        <pt x="486" y="661" on="0"/>
        <pt x="443" y="661" on="1"/>
        <pt x="415" y="661" on="0"/>
        <pt x="345" y="681" on="1"/>
        <pt x="286" y="698" on="0"/>
        <pt x="267" y="698" on="1"/>
        <pt x="256" y="698" on="0"/>
        <pt x="239" y="684" on="0"/>
        <pt x="228" y="669" on="0"/>
        <pt x="227" y="667" on="1"/>
        <pt x="180" y="686" on="1"/>
        <pt x="196" y="731" on="0"/>
        <pt x="243" y="790" on="0"/>
        <pt x="267" y="790" on="1"/>
        <pt x="296" y="790" on="0"/>
        <pt x="364" y="770" on="1"/>
        <pt x="423" y="753" on="0"/>
        <pt x="443" y="753" on="1"/>
        <pt x="454" y="753" on="0"/>
        <pt x="473" y="767" on="0"/>
        <pt x="484" y="782" on="0"/>
        <pt x="485" y="784" on="1"/>
        <pt x="529" y="765" on="1"/>
      </contour>
      <contour>
        <pt x="572" y="185" on="0"/>
        <pt x="535" y="74" on="0"/>
        <pt x="430" y="-9" on="0"/>
        <pt x="336" y="-9" on="1"/>
        <pt x="238" y="-9" on="0"/>
        <pt x="130" y="63" on="0"/>
        <pt x="91" y="182" on="0"/>
        <pt x="91" y="265" on="1"/>
        <pt x="91" y="546" on="1"/>
        <pt x="6" y="569" on="1"/>
        <pt x="6" y="614" on="1"/>
        <pt x="311" y="614" on="1"/>
        <pt x="311" y="569" on="1"/>
        <pt x="226" y="546" on="1"/>
        <pt x="226" y="265" on="1"/>
        <pt x="226" y="196" on="0"/>
        <pt x="245" y="107" on="0"/>
        <pt x="302" y="54" on="0"/>
        <pt x="356" y="54" on="1"/>
        <pt x="428" y="54" on="0"/>
        <pt x="497" y="158" on="0"/>
        <pt x="497" y="245" on="1"/>
        <pt x="497" y="546" on="1"/>
        <pt x="412" y="569" on="1"/>
        <pt x="412" y="614" on="1"/>
        <pt x="657" y="614" on="1"/>
        <pt x="657" y="569" on="1"/>
        <pt x="572" y="546" on="1"/>
        <pt x="572" y="236" on="1"/>
      </contour>
    </TTGlyph>
    <TTGlyph name="V" xMin="-4" yMin="-10" xMax="600" yMax="614">
      <contour>
        <pt x="67" y="545" on="1"/>
        <pt x="-4" y="569" on="1"/>
        <pt x="-4" y="614" on="1"/>
        <pt x="274" y="614" on="1"/>
        <pt x="274" y="569" on="1"/>
        <pt x="209" y="549" on="1"/>
        <pt x="327" y="193" on="1"/>
        <pt x="331" y="180" on="1"/>
        <pt x="335" y="194" on="1"/>
        <pt x="448" y="546" on="1"/>
        <pt x="380" y="569" on="1"/>
        <pt x="380" y="614" on="1"/>
        <pt x="600" y="614" on="1"/>
        <pt x="600" y="570" on="1"/>
        <pt x="529" y="545" on="1"/>
        <pt x="344" y="3" on="1"/>
        <pt x="267" y="-10" on="1"/>
      </contour>
    </TTGlyph>
    <TTGlyph name="W" xMin="-3" yMin="-10" xMax="815" yMax="614">
      <contour>
        <pt x="815" y="614" on="1"/>
        <pt x="815" y="570" on="1"/>
        <pt x="744" y="546" on="1"/>
        <pt x="618" y="3" on="1"/>
        <pt x="541" y="-10" on="1"/>
        <pt x="410" y="400" on="1"/>
        <pt x="301" y="3" on="1"/>
        <pt x="224" y="-10" on="1"/>
        <pt x="68" y="545" on="1"/>
        <pt x="-3" y="569" on="1"/>
        <pt x="-3" y="614" on="1"/>
        <pt x="275" y="614" on="1"/>
        <pt x="275" y="569" on="1"/>
        <pt x="210" y="549" on="1"/>
        <pt x="285" y="204" on="1"/>
        <pt x="367" y="540" on="1"/>
        <pt x="492" y="563" on="1"/>
        <pt x="595" y="199" on="1"/>
        <pt x="665" y="546" on="1"/>
        <pt x="595" y="569" on="1"/>
        <pt x="595" y="614" on="1"/>
      </contour>
    </TTGlyph>
    <TTGlyph name="Wacute" xMin="-3" yMin="-10" xMax="815" yMax="800">
      <component glyphName=".ttfautohint" x="0" y="0" flags="0x0"/>
      <component glyphName="W" x="0" y="0" flags="0x0"/>
      <component glyphName="acutecomb" x="586" y="0" flags="0x0"/>
    </TTGlyph>
    <TTGlyph name="Wcircumflex" xMin="-3" yMin="-10" xMax="815" yMax="800">
      <component glyphName=".ttfautohint" x="0" y="0" flags="0x0"/>
      <component glyphName="W" x="0" y="0" flags="0x0"/>
      <component glyphName="uni0302" x="524" y="0" flags="0x0"/>
    </TTGlyph>
    <TTGlyph name="Wdieresis" xMin="-3" yMin="-10" xMax="815" yMax="792">
      <component glyphName=".ttfautohint" x="0" y="0" flags="0x0"/>
      <component glyphName="W" x="0" y="0" flags="0x0"/>
      <component glyphName="uni0308" x="523" y="0" flags="0x0"/>
    </TTGlyph>
    <TTGlyph name="Wgrave" xMin="-3" yMin="-10" xMax="815" yMax="800">
      <component glyphName=".ttfautohint" x="0" y="0" flags="0x0"/>
      <component glyphName="W" x="0" y="0" flags="0x0"/>
      <component glyphName="gravecomb" x="453" y="0" flags="0x0"/>
    </TTGlyph>
    <TTGlyph name="X" xMin="7" yMin="0" xMax="607" yMax="614">
      <contour>
        <pt x="234" y="0" on="1"/>
        <pt x="7" y="0" on="1"/>
        <pt x="7" y="45" on="1"/>
        <pt x="74" y="65" on="1"/>
        <pt x="236" y="303" on="1"/>
        <pt x="81" y="549" on="1"/>
        <pt x="14" y="569" on="1"/>
        <pt x="14" y="614" on="1"/>
        <pt x="296" y="614" on="1"/>
        <pt x="296" y="565" on="1"/>
        <pt x="224" y="549" on="1"/>
        <pt x="327" y="389" on="1"/>
        <pt x="435" y="549" on="1"/>
        <pt x="363" y="565" on="1"/>
        <pt x="363" y="614" on="1"/>
        <pt x="591" y="614" on="1"/>
        <pt x="591" y="569" on="1"/>
        <pt x="524" y="549" on="1"/>
        <pt x="369" y="324" on="1"/>
        <pt x="530" y="65" on="1"/>
        <pt x="607" y="45" on="1"/>
        <pt x="607" y="0" on="1"/>
        <pt x="325" y="0" on="1"/>
        <pt x="325" y="49" on="1"/>
        <pt x="387" y="65" on="1"/>
        <pt x="277" y="236" on="1"/>
        <pt x="163" y="65" on="1"/>
        <pt x="234" y="46" on="1"/>
      </contour>
    </TTGlyph>
    <TTGlyph name="Y" xMin="9" yMin="0" xMax="578" yMax="614">
      <contour>
        <pt x="358" y="614" on="1"/>
        <pt x="578" y="614" on="1"/>
        <pt x="578" y="570" on="1"/>
        <pt x="507" y="545" on="1"/>
        <pt x="365" y="256" on="1"/>
        <pt x="365" y="69" on="1"/>
        <pt x="451" y="45" on="1"/>
        <pt x="451" y="0" on="1"/>
        <pt x="147" y="0" on="1"/>
        <pt x="147" y="45" on="1"/>
        <pt x="231" y="69" on="1"/>
        <pt x="231" y="256" on="1"/>
        <pt x="80" y="545" on="1"/>
        <pt x="9" y="569" on="1"/>
        <pt x="9" y="614" on="1"/>
        <pt x="292" y="614" on="1"/>
        <pt x="292" y="567" on="1"/>
        <pt x="224" y="546" on="1"/>
        <pt x="329" y="344" on="1"/>
        <pt x="429" y="548" on="1"/>
        <pt x="358" y="568" on="1"/>
      </contour>
    </TTGlyph>
    <TTGlyph name="Y.loclGUA" xMin="-4" yMin="-168" xMax="682" yMax="614">
      <contour>
        <pt x="218" y="-88" on="0"/>
        <pt x="279" y="-96" on="0"/>
        <pt x="296" y="-96" on="1"/>
        <pt x="393" y="-96" on="0"/>
        <pt x="471" y="-19" on="0"/>
        <pt x="471" y="69" on="1"/>
        <pt x="471" y="107" on="1"/>
        <pt x="418" y="51" on="0"/>
        <pt x="320" y="51" on="1"/>
        <pt x="223" y="51" on="0"/>
        <pt x="119" y="117" on="0"/>
        <pt x="81" y="237" on="0"/>
        <pt x="81" y="332" on="1"/>
        <pt x="81" y="546" on="1"/>
        <pt x="-4" y="569" on="1"/>
        <pt x="-4" y="614" on="1"/>
        <pt x="301" y="614" on="1"/>
        <pt x="301" y="569" on="1"/>
        <pt x="216" y="546" on="1"/>
        <pt x="216" y="332" on="1"/>
        <pt x="216" y="265" on="0"/>
        <pt x="234" y="175" on="0"/>
        <pt x="291" y="122" on="0"/>
        <pt x="345" y="122" on="1"/>
        <pt x="427" y="122" on="0"/>
        <pt x="470" y="192" on="1"/>
        <pt x="470" y="546" on="1"/>
        <pt x="385" y="569" on="1"/>
        <pt x="385" y="614" on="1"/>
        <pt x="682" y="614" on="1"/>
        <pt x="682" y="569" on="1"/>
        <pt x="597" y="546" on="1"/>
        <pt x="597" y="74" on="1"/>
        <pt x="597" y="6" on="0"/>
        <pt x="535" y="-104" on="0"/>
        <pt x="404" y="-168" on="0"/>
        <pt x="304" y="-168" on="1"/>
        <pt x="196" y="-168" on="0"/>
        <pt x="112" y="-137" on="1"/>
        <pt x="127" y="6" on="1"/>
        <pt x="183" y="6" on="1"/>
        <pt x="199" y="-81" on="1"/>
      </contour>
    </TTGlyph>
    <TTGlyph name="Yacute" xMin="9" yMin="0" xMax="578" yMax="800">
      <contour>
        <pt x="210" y="669" on="1"/>
        <pt x="366" y="800" on="1"/>
        <pt x="465" y="766" on="1"/>
        <pt x="465" y="743" on="1"/>
        <pt x="237" y="634" on="1"/>
      </contour>
      <contour>
        <pt x="358" y="614" on="1"/>
        <pt x="578" y="614" on="1"/>
        <pt x="578" y="570" on="1"/>
        <pt x="507" y="545" on="1"/>
        <pt x="365" y="256" on="1"/>
        <pt x="365" y="69" on="1"/>
        <pt x="451" y="45" on="1"/>
        <pt x="451" y="0" on="1"/>
        <pt x="147" y="0" on="1"/>
        <pt x="147" y="45" on="1"/>
        <pt x="231" y="69" on="1"/>
        <pt x="231" y="256" on="1"/>
        <pt x="80" y="545" on="1"/>
        <pt x="9" y="569" on="1"/>
        <pt x="9" y="614" on="1"/>
        <pt x="292" y="614" on="1"/>
        <pt x="292" y="567" on="1"/>
        <pt x="224" y="546" on="1"/>
        <pt x="329" y="344" on="1"/>
        <pt x="429" y="548" on="1"/>
        <pt x="358" y="568" on="1"/>
      </contour>
    </TTGlyph>
    <TTGlyph name="Yacute.loclGUA" xMin="-4" yMin="-168" xMax="682" yMax="800">
      <contour>
        <pt x="242" y="669" on="1"/>
        <pt x="398" y="800" on="1"/>
        <pt x="497" y="766" on="1"/>
        <pt x="497" y="743" on="1"/>
        <pt x="269" y="634" on="1"/>
      </contour>
      <contour>
        <pt x="218" y="-88" on="0"/>
        <pt x="279" y="-96" on="0"/>
        <pt x="296" y="-96" on="1"/>
        <pt x="393" y="-96" on="0"/>
        <pt x="471" y="-19" on="0"/>
        <pt x="471" y="69" on="1"/>
        <pt x="471" y="107" on="1"/>
        <pt x="418" y="51" on="0"/>
        <pt x="320" y="51" on="1"/>
        <pt x="223" y="51" on="0"/>
        <pt x="119" y="117" on="0"/>
        <pt x="81" y="237" on="0"/>
        <pt x="81" y="332" on="1"/>
        <pt x="81" y="546" on="1"/>
        <pt x="-4" y="569" on="1"/>
        <pt x="-4" y="614" on="1"/>
        <pt x="301" y="614" on="1"/>
        <pt x="301" y="569" on="1"/>
        <pt x="216" y="546" on="1"/>
        <pt x="216" y="332" on="1"/>
        <pt x="216" y="265" on="0"/>
        <pt x="234" y="175" on="0"/>
        <pt x="291" y="122" on="0"/>
        <pt x="345" y="122" on="1"/>
        <pt x="427" y="122" on="0"/>
        <pt x="470" y="192" on="1"/>
        <pt x="470" y="546" on="1"/>
        <pt x="385" y="569" on="1"/>
        <pt x="385" y="614" on="1"/>
        <pt x="682" y="614" on="1"/>
        <pt x="682" y="569" on="1"/>
        <pt x="597" y="546" on="1"/>
        <pt x="597" y="74" on="1"/>
        <pt x="597" y="6" on="0"/>
        <pt x="535" y="-104" on="0"/>
        <pt x="404" y="-168" on="0"/>
        <pt x="304" y="-168" on="1"/>
        <pt x="196" y="-168" on="0"/>
        <pt x="112" y="-137" on="1"/>
        <pt x="127" y="6" on="1"/>
        <pt x="183" y="6" on="1"/>
        <pt x="199" y="-81" on="1"/>
      </contour>
    </TTGlyph>
    <TTGlyph name="Ycircumflex" xMin="9" yMin="0" xMax="578" yMax="800">
      <contour>
        <pt x="305" y="717" on="1"/>
        <pt x="179" y="640" on="1"/>
        <pt x="153" y="665" on="1"/>
        <pt x="263" y="800" on="1"/>
        <pt x="348" y="800" on="1"/>
        <pt x="457" y="665" on="1"/>
        <pt x="434" y="640" on="1"/>
      </contour>
      <contour>
        <pt x="358" y="614" on="1"/>
        <pt x="578" y="614" on="1"/>
        <pt x="578" y="570" on="1"/>
        <pt x="507" y="545" on="1"/>
        <pt x="365" y="256" on="1"/>
        <pt x="365" y="69" on="1"/>
        <pt x="451" y="45" on="1"/>
        <pt x="451" y="0" on="1"/>
        <pt x="147" y="0" on="1"/>
        <pt x="147" y="45" on="1"/>
        <pt x="231" y="69" on="1"/>
        <pt x="231" y="256" on="1"/>
        <pt x="80" y="545" on="1"/>
        <pt x="9" y="569" on="1"/>
        <pt x="9" y="614" on="1"/>
        <pt x="292" y="614" on="1"/>
        <pt x="292" y="567" on="1"/>
        <pt x="224" y="546" on="1"/>
        <pt x="329" y="344" on="1"/>
        <pt x="429" y="548" on="1"/>
        <pt x="358" y="568" on="1"/>
      </contour>
    </TTGlyph>
    <TTGlyph name="Ycircumflex.loclGUA" xMin="-4" yMin="-168" xMax="682" yMax="800">
      <contour>
        <pt x="189" y="665" on="1"/>
        <pt x="299" y="800" on="1"/>
        <pt x="384" y="800" on="1"/>
        <pt x="493" y="665" on="1"/>
        <pt x="470" y="640" on="1"/>
        <pt x="341" y="717" on="1"/>
        <pt x="215" y="640" on="1"/>
      </contour>
      <contour>
        <pt x="196" y="-168" on="0"/>
        <pt x="112" y="-137" on="1"/>
        <pt x="127" y="6" on="1"/>
        <pt x="183" y="6" on="1"/>
        <pt x="199" y="-81" on="1"/>
        <pt x="218" y="-88" on="0"/>
        <pt x="279" y="-96" on="0"/>
        <pt x="296" y="-96" on="1"/>
        <pt x="393" y="-96" on="0"/>
        <pt x="471" y="-19" on="0"/>
        <pt x="471" y="69" on="1"/>
        <pt x="471" y="107" on="1"/>
        <pt x="418" y="51" on="0"/>
        <pt x="320" y="51" on="1"/>
        <pt x="223" y="51" on="0"/>
        <pt x="119" y="117" on="0"/>
        <pt x="81" y="237" on="0"/>
        <pt x="81" y="332" on="1"/>
        <pt x="81" y="546" on="1"/>
        <pt x="-4" y="569" on="1"/>
        <pt x="-4" y="614" on="1"/>
        <pt x="301" y="614" on="1"/>
        <pt x="301" y="569" on="1"/>
        <pt x="216" y="546" on="1"/>
        <pt x="216" y="332" on="1"/>
        <pt x="216" y="265" on="0"/>
        <pt x="234" y="175" on="0"/>
        <pt x="291" y="122" on="0"/>
        <pt x="345" y="122" on="1"/>
        <pt x="427" y="122" on="0"/>
        <pt x="470" y="192" on="1"/>
        <pt x="470" y="546" on="1"/>
        <pt x="385" y="569" on="1"/>
        <pt x="385" y="614" on="1"/>
        <pt x="682" y="614" on="1"/>
        <pt x="682" y="569" on="1"/>
        <pt x="597" y="546" on="1"/>
        <pt x="597" y="74" on="1"/>
        <pt x="597" y="6" on="0"/>
        <pt x="535" y="-104" on="0"/>
        <pt x="404" y="-168" on="0"/>
        <pt x="304" y="-168" on="1"/>
      </contour>
    </TTGlyph>
    <TTGlyph name="Ydieresis" xMin="9" yMin="0" xMax="578" yMax="792">
      <contour>
        <pt x="165" y="647" on="0"/>
        <pt x="119" y="688" on="0"/>
        <pt x="119" y="719" on="1"/>
        <pt x="119" y="749" on="0"/>
        <pt x="166" y="792" on="0"/>
        <pt x="197" y="792" on="1"/>
        <pt x="227" y="792" on="0"/>
        <pt x="271" y="749" on="0"/>
        <pt x="271" y="719" on="1"/>
        <pt x="271" y="688" on="0"/>
        <pt x="228" y="647" on="0"/>
        <pt x="197" y="647" on="1"/>
      </contour>
      <contour>
        <pt x="397" y="647" on="0"/>
        <pt x="352" y="688" on="0"/>
        <pt x="352" y="719" on="1"/>
        <pt x="352" y="750" on="0"/>
        <pt x="397" y="792" on="0"/>
        <pt x="429" y="792" on="1"/>
        <pt x="458" y="792" on="0"/>
        <pt x="502" y="749" on="0"/>
        <pt x="502" y="719" on="1"/>
        <pt x="502" y="688" on="0"/>
        <pt x="458" y="647" on="0"/>
        <pt x="429" y="647" on="1"/>
      </contour>
      <contour>
        <pt x="147" y="45" on="1"/>
        <pt x="231" y="69" on="1"/>
        <pt x="231" y="256" on="1"/>
        <pt x="80" y="545" on="1"/>
        <pt x="9" y="569" on="1"/>
        <pt x="9" y="614" on="1"/>
        <pt x="292" y="614" on="1"/>
        <pt x="292" y="567" on="1"/>
        <pt x="224" y="546" on="1"/>
        <pt x="329" y="344" on="1"/>
        <pt x="429" y="548" on="1"/>
        <pt x="358" y="568" on="1"/>
        <pt x="358" y="614" on="1"/>
        <pt x="578" y="614" on="1"/>
        <pt x="578" y="570" on="1"/>
        <pt x="507" y="545" on="1"/>
        <pt x="365" y="256" on="1"/>
        <pt x="365" y="69" on="1"/>
        <pt x="451" y="45" on="1"/>
        <pt x="451" y="0" on="1"/>
        <pt x="147" y="0" on="1"/>
      </contour>
    </TTGlyph>
    <TTGlyph name="Ydieresis.loclGUA" xMin="-4" yMin="-168" xMax="682" yMax="792">
      <contour>
        <pt x="306" y="688" on="0"/>
        <pt x="263" y="647" on="0"/>
        <pt x="232" y="647" on="1"/>
        <pt x="200" y="647" on="0"/>
        <pt x="154" y="688" on="0"/>
        <pt x="154" y="719" on="1"/>
        <pt x="154" y="749" on="0"/>
        <pt x="201" y="792" on="0"/>
        <pt x="232" y="792" on="1"/>
        <pt x="262" y="792" on="0"/>
        <pt x="306" y="749" on="0"/>
        <pt x="306" y="719" on="1"/>
      </contour>
      <contour>
        <pt x="537" y="688" on="0"/>
        <pt x="493" y="647" on="0"/>
        <pt x="464" y="647" on="1"/>
        <pt x="432" y="647" on="0"/>
        <pt x="387" y="688" on="0"/>
        <pt x="387" y="719" on="1"/>
        <pt x="387" y="750" on="0"/>
        <pt x="432" y="792" on="0"/>
        <pt x="464" y="792" on="1"/>
        <pt x="493" y="792" on="0"/>
        <pt x="537" y="749" on="0"/>
        <pt x="537" y="719" on="1"/>
      </contour>
      <contour>
        <pt x="218" y="-88" on="0"/>
        <pt x="279" y="-96" on="0"/>
        <pt x="296" y="-96" on="1"/>
        <pt x="393" y="-96" on="0"/>
        <pt x="471" y="-19" on="0"/>
        <pt x="471" y="69" on="1"/>
        <pt x="471" y="107" on="1"/>
        <pt x="418" y="51" on="0"/>
        <pt x="320" y="51" on="1"/>
        <pt x="223" y="51" on="0"/>
        <pt x="119" y="117" on="0"/>
        <pt x="81" y="237" on="0"/>
        <pt x="81" y="332" on="1"/>
        <pt x="81" y="546" on="1"/>
        <pt x="-4" y="569" on="1"/>
        <pt x="-4" y="614" on="1"/>
        <pt x="301" y="614" on="1"/>
        <pt x="301" y="569" on="1"/>
        <pt x="216" y="546" on="1"/>
        <pt x="216" y="332" on="1"/>
        <pt x="216" y="265" on="0"/>
        <pt x="234" y="175" on="0"/>
        <pt x="291" y="122" on="0"/>
        <pt x="345" y="122" on="1"/>
        <pt x="427" y="122" on="0"/>
        <pt x="470" y="192" on="1"/>
        <pt x="470" y="546" on="1"/>
        <pt x="385" y="569" on="1"/>
        <pt x="385" y="614" on="1"/>
        <pt x="682" y="614" on="1"/>
        <pt x="682" y="569" on="1"/>
        <pt x="597" y="546" on="1"/>
        <pt x="597" y="74" on="1"/>
        <pt x="597" y="6" on="0"/>
        <pt x="535" y="-104" on="0"/>
        <pt x="404" y="-168" on="0"/>
        <pt x="304" y="-168" on="1"/>
        <pt x="196" y="-168" on="0"/>
        <pt x="112" y="-137" on="1"/>
        <pt x="127" y="6" on="1"/>
        <pt x="183" y="6" on="1"/>
        <pt x="199" y="-81" on="1"/>
      </contour>
    </TTGlyph>
    <TTGlyph name="Ygrave" xMin="9" yMin="0" xMax="578" yMax="800">
      <contour>
        <pt x="164" y="743" on="1"/>
        <pt x="168" y="766" on="1"/>
        <pt x="265" y="800" on="1"/>
        <pt x="419" y="669" on="1"/>
        <pt x="396" y="634" on="1"/>
      </contour>
      <contour>
        <pt x="147" y="45" on="1"/>
        <pt x="231" y="69" on="1"/>
        <pt x="231" y="256" on="1"/>
        <pt x="80" y="545" on="1"/>
        <pt x="9" y="569" on="1"/>
        <pt x="9" y="614" on="1"/>
        <pt x="292" y="614" on="1"/>
        <pt x="292" y="567" on="1"/>
        <pt x="224" y="546" on="1"/>
        <pt x="329" y="344" on="1"/>
        <pt x="429" y="548" on="1"/>
        <pt x="358" y="568" on="1"/>
        <pt x="358" y="614" on="1"/>
        <pt x="578" y="614" on="1"/>
        <pt x="578" y="570" on="1"/>
        <pt x="507" y="545" on="1"/>
        <pt x="365" y="256" on="1"/>
        <pt x="365" y="69" on="1"/>
        <pt x="451" y="45" on="1"/>
        <pt x="451" y="0" on="1"/>
        <pt x="147" y="0" on="1"/>
      </contour>
    </TTGlyph>
    <TTGlyph name="Ygrave.loclGUA" xMin="-4" yMin="-168" xMax="682" yMax="800">
      <contour>
        <pt x="200" y="743" on="1"/>
        <pt x="204" y="766" on="1"/>
        <pt x="301" y="800" on="1"/>
        <pt x="455" y="669" on="1"/>
        <pt x="432" y="634" on="1"/>
      </contour>
      <contour>
        <pt x="218" y="-88" on="0"/>
        <pt x="279" y="-96" on="0"/>
        <pt x="296" y="-96" on="1"/>
        <pt x="393" y="-96" on="0"/>
        <pt x="471" y="-19" on="0"/>
        <pt x="471" y="69" on="1"/>
        <pt x="471" y="107" on="1"/>
        <pt x="418" y="51" on="0"/>
        <pt x="320" y="51" on="1"/>
        <pt x="223" y="51" on="0"/>
        <pt x="119" y="117" on="0"/>
        <pt x="81" y="237" on="0"/>
        <pt x="81" y="332" on="1"/>
        <pt x="81" y="546" on="1"/>
        <pt x="-4" y="569" on="1"/>
        <pt x="-4" y="614" on="1"/>
        <pt x="301" y="614" on="1"/>
        <pt x="301" y="569" on="1"/>
        <pt x="216" y="546" on="1"/>
        <pt x="216" y="332" on="1"/>
        <pt x="216" y="265" on="0"/>
        <pt x="234" y="175" on="0"/>
        <pt x="291" y="122" on="0"/>
        <pt x="345" y="122" on="1"/>
        <pt x="427" y="122" on="0"/>
        <pt x="470" y="192" on="1"/>
        <pt x="470" y="546" on="1"/>
        <pt x="385" y="569" on="1"/>
        <pt x="385" y="614" on="1"/>
        <pt x="682" y="614" on="1"/>
        <pt x="682" y="569" on="1"/>
        <pt x="597" y="546" on="1"/>
        <pt x="597" y="74" on="1"/>
        <pt x="597" y="6" on="0"/>
        <pt x="535" y="-104" on="0"/>
        <pt x="404" y="-168" on="0"/>
        <pt x="304" y="-168" on="1"/>
        <pt x="196" y="-168" on="0"/>
        <pt x="112" y="-137" on="1"/>
        <pt x="127" y="6" on="1"/>
        <pt x="183" y="6" on="1"/>
        <pt x="199" y="-81" on="1"/>
      </contour>
    </TTGlyph>
    <TTGlyph name="Z" xMin="21" yMin="0" xMax="480" yMax="614">
      <contour>
        <pt x="464" y="0" on="1"/>
        <pt x="39" y="0" on="1"/>
        <pt x="21" y="33" on="1"/>
        <pt x="327" y="546" on="1"/>
        <pt x="131" y="546" on="1"/>
        <pt x="107" y="468" on="1"/>
        <pt x="49" y="468" on="1"/>
        <pt x="39" y="614" on="1"/>
        <pt x="475" y="614" on="1"/>
        <pt x="480" y="581" on="1"/>
        <pt x="179" y="69" on="1"/>
        <pt x="378" y="69" on="1"/>
        <pt x="416" y="162" on="1"/>
        <pt x="472" y="162" on="1"/>
      </contour>
    </TTGlyph>
    <TTGlyph name="Zacute" xMin="21" yMin="0" xMax="480" yMax="800">
      <contour>
        <pt x="153" y="669" on="1"/>
        <pt x="309" y="800" on="1"/>
        <pt x="408" y="766" on="1"/>
        <pt x="408" y="743" on="1"/>
        <pt x="180" y="634" on="1"/>
      </contour>
      <contour>
        <pt x="464" y="0" on="1"/>
        <pt x="39" y="0" on="1"/>
        <pt x="21" y="33" on="1"/>
        <pt x="327" y="546" on="1"/>
        <pt x="131" y="546" on="1"/>
        <pt x="107" y="468" on="1"/>
        <pt x="49" y="468" on="1"/>
        <pt x="39" y="614" on="1"/>
        <pt x="475" y="614" on="1"/>
        <pt x="480" y="581" on="1"/>
        <pt x="179" y="69" on="1"/>
        <pt x="378" y="69" on="1"/>
        <pt x="416" y="162" on="1"/>
        <pt x="472" y="162" on="1"/>
      </contour>
    </TTGlyph>
    <TTGlyph name="Zacute.loclPLK" xMin="21" yMin="0" xMax="480" yMax="814">
      <component glyphName=".ttfautohint" x="21" y="0" flags="0x0"/>
      <component glyphName="Z" x="0" y="0" flags="0x0"/>
      <component glyphName="acute.loclPLK.case" x="155" y="0" flags="0x0"/>
    </TTGlyph>
    <TTGlyph name="Zcaron" xMin="21" yMin="0" xMax="480" yMax="800">
      <contour>
        <pt x="114" y="775" on="1"/>
        <pt x="140" y="800" on="1"/>
        <pt x="266" y="723" on="1"/>
        <pt x="395" y="800" on="1"/>
        <pt x="418" y="775" on="1"/>
        <pt x="309" y="641" on="1"/>
        <pt x="224" y="641" on="1"/>
      </contour>
      <contour>
        <pt x="21" y="33" on="1"/>
        <pt x="327" y="546" on="1"/>
        <pt x="131" y="546" on="1"/>
        <pt x="107" y="468" on="1"/>
        <pt x="49" y="468" on="1"/>
        <pt x="39" y="614" on="1"/>
        <pt x="475" y="614" on="1"/>
        <pt x="480" y="581" on="1"/>
        <pt x="179" y="69" on="1"/>
        <pt x="378" y="69" on="1"/>
        <pt x="416" y="162" on="1"/>
        <pt x="472" y="162" on="1"/>
        <pt x="464" y="0" on="1"/>
        <pt x="39" y="0" on="1"/>
      </contour>
    </TTGlyph>
    <TTGlyph name="Zdotaccent" xMin="21" yMin="0" xMax="480" yMax="799">
      <contour>
        <pt x="347" y="681" on="0"/>
        <pt x="299" y="635" on="0"/>
        <pt x="265" y="635" on="1"/>
        <pt x="231" y="635" on="0"/>
        <pt x="179" y="682" on="0"/>
        <pt x="179" y="715" on="1"/>
        <pt x="179" y="749" on="0"/>
        <pt x="231" y="799" on="0"/>
        <pt x="265" y="799" on="1"/>
        <pt x="299" y="799" on="0"/>
        <pt x="347" y="749" on="0"/>
        <pt x="347" y="715" on="1"/>
      </contour>
      <contour>
        <pt x="464" y="0" on="1"/>
        <pt x="39" y="0" on="1"/>
        <pt x="21" y="33" on="1"/>
        <pt x="327" y="546" on="1"/>
        <pt x="131" y="546" on="1"/>
        <pt x="107" y="468" on="1"/>
        <pt x="49" y="468" on="1"/>
        <pt x="39" y="614" on="1"/>
        <pt x="475" y="614" on="1"/>
        <pt x="480" y="581" on="1"/>
        <pt x="179" y="69" on="1"/>
        <pt x="378" y="69" on="1"/>
        <pt x="416" y="162" on="1"/>
        <pt x="472" y="162" on="1"/>
      </contour>
    </TTGlyph>
    <TTGlyph name="a" xMin="34" yMin="-10" xMax="510" yMax="502">
      <contour>
        <pt x="195" y="426" on="0"/>
        <pt x="161" y="414" on="1"/>
        <pt x="139" y="330" on="1"/>
        <pt x="80" y="330" on="1"/>
        <pt x="63" y="465" on="1"/>
        <pt x="163" y="502" on="0"/>
        <pt x="270" y="502" on="1"/>
        <pt x="351" y="502" on="0"/>
        <pt x="432" y="448" on="0"/>
        <pt x="432" y="377" on="1"/>
        <pt x="432" y="83" on="1"/>
        <pt x="510" y="55" on="1"/>
        <pt x="510" y="12" on="1"/>
        <pt x="470" y="2" on="0"/>
        <pt x="426" y="-5" on="0"/>
        <pt x="400" y="-5" on="1"/>
        <pt x="365" y="-5" on="0"/>
        <pt x="308" y="22" on="0"/>
        <pt x="300" y="48" on="1"/>
        <pt x="260" y="18" on="0"/>
        <pt x="192" y="-10" on="0"/>
        <pt x="152" y="-10" on="1"/>
        <pt x="97" y="-10" on="0"/>
        <pt x="34" y="56" on="0"/>
        <pt x="34" y="113" on="1"/>
        <pt x="34" y="161" on="0"/>
        <pt x="93" y="244" on="0"/>
        <pt x="162" y="258" on="1"/>
        <pt x="297" y="286" on="1"/>
        <pt x="297" y="356" on="1"/>
        <pt x="297" y="395" on="0"/>
        <pt x="268" y="426" on="0"/>
        <pt x="233" y="426" on="1"/>
      </contour>
      <contour>
        <pt x="198" y="203" on="0"/>
        <pt x="166" y="161" on="0"/>
        <pt x="166" y="127" on="1"/>
        <pt x="166" y="71" on="0"/>
        <pt x="218" y="71" on="1"/>
        <pt x="237" y="71" on="0"/>
        <pt x="282" y="88" on="0"/>
        <pt x="297" y="98" on="1"/>
        <pt x="297" y="228" on="1"/>
        <pt x="237" y="213" on="1"/>
      </contour>
    </TTGlyph>
    <TTGlyph name="aacute" xMin="34" yMin="-10" xMax="510" yMax="730">
      <component glyphName=".ttfautohint" x="34" y="0" flags="0x0"/>
      <component glyphName="a" x="0" y="0" flags="0x0"/>
      <component glyphName="acute" x="150" y="0" flags="0x0"/>
    </TTGlyph>
    <TTGlyph name="abreve" xMin="34" yMin="-10" xMax="510" yMax="711">
      <contour>
        <pt x="176" y="574" on="0"/>
        <pt x="130" y="645" on="0"/>
        <pt x="130" y="709" on="1"/>
        <pt x="187" y="711" on="1"/>
        <pt x="187" y="686" on="0"/>
        <pt x="214" y="650" on="0"/>
        <pt x="247" y="650" on="1"/>
        <pt x="316" y="650" on="0"/>
        <pt x="316" y="711" on="1"/>
        <pt x="373" y="709" on="1"/>
        <pt x="373" y="574" on="0"/>
        <pt x="245" y="574" on="1"/>
      </contour>
      <contour>
        <pt x="195" y="426" on="0"/>
        <pt x="161" y="414" on="1"/>
        <pt x="139" y="330" on="1"/>
        <pt x="80" y="330" on="1"/>
        <pt x="63" y="465" on="1"/>
        <pt x="163" y="502" on="0"/>
        <pt x="270" y="502" on="1"/>
        <pt x="351" y="502" on="0"/>
        <pt x="432" y="448" on="0"/>
        <pt x="432" y="377" on="1"/>
        <pt x="432" y="83" on="1"/>
        <pt x="510" y="55" on="1"/>
        <pt x="510" y="12" on="1"/>
        <pt x="470" y="2" on="0"/>
        <pt x="426" y="-5" on="0"/>
        <pt x="400" y="-5" on="1"/>
        <pt x="365" y="-5" on="0"/>
        <pt x="308" y="22" on="0"/>
        <pt x="300" y="48" on="1"/>
        <pt x="260" y="18" on="0"/>
        <pt x="192" y="-10" on="0"/>
        <pt x="152" y="-10" on="1"/>
        <pt x="97" y="-10" on="0"/>
        <pt x="34" y="56" on="0"/>
        <pt x="34" y="113" on="1"/>
        <pt x="34" y="161" on="0"/>
        <pt x="93" y="244" on="0"/>
        <pt x="162" y="258" on="1"/>
        <pt x="297" y="286" on="1"/>
        <pt x="297" y="356" on="1"/>
        <pt x="297" y="395" on="0"/>
        <pt x="268" y="426" on="0"/>
        <pt x="233" y="426" on="1"/>
      </contour>
      <contour>
        <pt x="198" y="203" on="0"/>
        <pt x="166" y="161" on="0"/>
        <pt x="166" y="127" on="1"/>
        <pt x="166" y="71" on="0"/>
        <pt x="218" y="71" on="1"/>
        <pt x="237" y="71" on="0"/>
        <pt x="282" y="88" on="0"/>
        <pt x="297" y="98" on="1"/>
        <pt x="297" y="228" on="1"/>
        <pt x="237" y="213" on="1"/>
      </contour>
    </TTGlyph>
    <TTGlyph name="acircumflex" xMin="34" yMin="-10" xMax="510" yMax="730">
      <contour>
        <pt x="237" y="644" on="1"/>
        <pt x="121" y="559" on="1"/>
        <pt x="85" y="589" on="1"/>
        <pt x="195" y="730" on="1"/>
        <pt x="280" y="730" on="1"/>
        <pt x="389" y="589" on="1"/>
        <pt x="356" y="559" on="1"/>
      </contour>
      <contour>
        <pt x="195" y="426" on="0"/>
        <pt x="161" y="414" on="1"/>
        <pt x="139" y="330" on="1"/>
        <pt x="80" y="330" on="1"/>
        <pt x="63" y="465" on="1"/>
        <pt x="163" y="502" on="0"/>
        <pt x="270" y="502" on="1"/>
        <pt x="351" y="502" on="0"/>
        <pt x="432" y="448" on="0"/>
        <pt x="432" y="377" on="1"/>
        <pt x="432" y="83" on="1"/>
        <pt x="510" y="55" on="1"/>
        <pt x="510" y="12" on="1"/>
        <pt x="470" y="2" on="0"/>
        <pt x="426" y="-5" on="0"/>
        <pt x="400" y="-5" on="1"/>
        <pt x="365" y="-5" on="0"/>
        <pt x="308" y="22" on="0"/>
        <pt x="300" y="48" on="1"/>
        <pt x="260" y="18" on="0"/>
        <pt x="192" y="-10" on="0"/>
        <pt x="152" y="-10" on="1"/>
        <pt x="97" y="-10" on="0"/>
        <pt x="34" y="56" on="0"/>
        <pt x="34" y="113" on="1"/>
        <pt x="34" y="161" on="0"/>
        <pt x="93" y="244" on="0"/>
        <pt x="162" y="258" on="1"/>
        <pt x="297" y="286" on="1"/>
        <pt x="297" y="356" on="1"/>
        <pt x="297" y="395" on="0"/>
        <pt x="268" y="426" on="0"/>
        <pt x="233" y="426" on="1"/>
      </contour>
      <contour>
        <pt x="198" y="203" on="0"/>
        <pt x="166" y="161" on="0"/>
        <pt x="166" y="127" on="1"/>
        <pt x="166" y="71" on="0"/>
        <pt x="218" y="71" on="1"/>
        <pt x="237" y="71" on="0"/>
        <pt x="282" y="88" on="0"/>
        <pt x="297" y="98" on="1"/>
        <pt x="297" y="228" on="1"/>
        <pt x="237" y="213" on="1"/>
      </contour>
    </TTGlyph>
    <TTGlyph name="acute" xMin="0" yMin="558" xMax="255" yMax="730">
      <contour>
        <pt x="0" y="593" on="1"/>
        <pt x="156" y="730" on="1"/>
        <pt x="255" y="690" on="1"/>
        <pt x="255" y="667" on="1"/>
        <pt x="27" y="558" on="1"/>
      </contour>
    </TTGlyph>
    <TTGlyph name="acute.case" xMin="0" yMin="634" xMax="255" yMax="800">
      <contour>
        <pt x="0" y="669" on="1"/>
        <pt x="156" y="800" on="1"/>
        <pt x="255" y="766" on="1"/>
        <pt x="255" y="743" on="1"/>
        <pt x="27" y="634" on="1"/>
      </contour>
    </TTGlyph>
    <TTGlyph name="acute.loclPLK" xMin="57" yMin="552" xMax="221" yMax="735">
      <contour>
        <pt x="57" y="575" on="1"/>
        <pt x="129" y="735" on="1"/>
        <pt x="221" y="735" on="1"/>
        <pt x="221" y="713" on="1"/>
        <pt x="88" y="552" on="1"/>
      </contour>
    </TTGlyph>
    <TTGlyph name="acute.loclPLK.case" xMin="65" yMin="631" xMax="229" yMax="814">
      <contour>
        <pt x="65" y="654" on="1"/>
        <pt x="137" y="814" on="1"/>
        <pt x="229" y="814" on="1"/>
        <pt x="229" y="792" on="1"/>
        <pt x="96" y="631" on="1"/>
      </contour>
    </TTGlyph>
    <TTGlyph name="acutecomb" xMin="-255" yMin="634" xMax="0" yMax="800">
      <contour>
        <pt x="-255" y="669" on="1"/>
        <pt x="-99" y="800" on="1"/>
        <pt x="0" y="766" on="1"/>
        <pt x="0" y="743" on="1"/>
        <pt x="-228" y="634" on="1"/>
      </contour>
    </TTGlyph>
    <TTGlyph name="adieresis" xMin="34" yMin="-10" xMax="510" yMax="721">
      <contour>
        <pt x="212" y="617" on="0"/>
        <pt x="169" y="576" on="0"/>
        <pt x="138" y="576" on="1"/>
        <pt x="106" y="576" on="0"/>
        <pt x="60" y="617" on="0"/>
        <pt x="60" y="648" on="1"/>
        <pt x="60" y="678" on="0"/>
        <pt x="107" y="721" on="0"/>
        <pt x="138" y="721" on="1"/>
        <pt x="168" y="721" on="0"/>
        <pt x="212" y="678" on="0"/>
        <pt x="212" y="648" on="1"/>
      </contour>
      <contour>
        <pt x="443" y="617" on="0"/>
        <pt x="399" y="576" on="0"/>
        <pt x="370" y="576" on="1"/>
        <pt x="338" y="576" on="0"/>
        <pt x="293" y="617" on="0"/>
        <pt x="293" y="648" on="1"/>
        <pt x="293" y="679" on="0"/>
        <pt x="338" y="721" on="0"/>
        <pt x="370" y="721" on="1"/>
        <pt x="399" y="721" on="0"/>
        <pt x="443" y="678" on="0"/>
        <pt x="443" y="648" on="1"/>
      </contour>
      <contour>
        <pt x="195" y="426" on="0"/>
        <pt x="161" y="414" on="1"/>
        <pt x="139" y="330" on="1"/>
        <pt x="80" y="330" on="1"/>
        <pt x="63" y="465" on="1"/>
        <pt x="163" y="502" on="0"/>
        <pt x="270" y="502" on="1"/>
        <pt x="351" y="502" on="0"/>
        <pt x="432" y="448" on="0"/>
        <pt x="432" y="377" on="1"/>
        <pt x="432" y="83" on="1"/>
        <pt x="510" y="55" on="1"/>
        <pt x="510" y="12" on="1"/>
        <pt x="470" y="2" on="0"/>
        <pt x="426" y="-5" on="0"/>
        <pt x="400" y="-5" on="1"/>
        <pt x="365" y="-5" on="0"/>
        <pt x="308" y="22" on="0"/>
        <pt x="300" y="48" on="1"/>
        <pt x="260" y="18" on="0"/>
        <pt x="192" y="-10" on="0"/>
        <pt x="152" y="-10" on="1"/>
        <pt x="97" y="-10" on="0"/>
        <pt x="34" y="56" on="0"/>
        <pt x="34" y="113" on="1"/>
        <pt x="34" y="161" on="0"/>
        <pt x="93" y="244" on="0"/>
        <pt x="162" y="258" on="1"/>
        <pt x="297" y="286" on="1"/>
        <pt x="297" y="356" on="1"/>
        <pt x="297" y="395" on="0"/>
        <pt x="268" y="426" on="0"/>
        <pt x="233" y="426" on="1"/>
      </contour>
      <contour>
        <pt x="198" y="203" on="0"/>
        <pt x="166" y="161" on="0"/>
        <pt x="166" y="127" on="1"/>
        <pt x="166" y="71" on="0"/>
        <pt x="218" y="71" on="1"/>
        <pt x="237" y="71" on="0"/>
        <pt x="282" y="88" on="0"/>
        <pt x="297" y="98" on="1"/>
        <pt x="297" y="228" on="1"/>
        <pt x="237" y="213" on="1"/>
      </contour>
    </TTGlyph>
    <TTGlyph name="ae" xMin="29" yMin="-10" xMax="713" yMax="502">
      <contour>
        <pt x="93" y="-10" on="0"/>
        <pt x="29" y="51" on="0"/>
        <pt x="29" y="97" on="1"/>
        <pt x="29" y="152" on="0"/>
        <pt x="103" y="233" on="0"/>
        <pt x="176" y="245" on="1"/>
        <pt x="292" y="265" on="1"/>
        <pt x="292" y="356" on="1"/>
        <pt x="292" y="395" on="0"/>
        <pt x="263" y="426" on="0"/>
        <pt x="228" y="426" on="1"/>
        <pt x="190" y="426" on="0"/>
        <pt x="156" y="414" on="1"/>
        <pt x="134" y="330" on="1"/>
        <pt x="75" y="330" on="1"/>
        <pt x="58" y="465" on="1"/>
        <pt x="158" y="502" on="0"/>
        <pt x="265" y="502" on="1"/>
        <pt x="349" y="502" on="0"/>
        <pt x="387" y="453" on="1"/>
        <pt x="414" y="477" on="0"/>
        <pt x="481" y="502" on="0"/>
        <pt x="527" y="502" on="1"/>
        <pt x="613" y="502" on="0"/>
        <pt x="713" y="404" on="0"/>
        <pt x="713" y="308" on="1"/>
        <pt x="713" y="291" on="0"/>
        <pt x="710" y="282" on="1"/>
        <pt x="427" y="231" on="1"/>
        <pt x="427" y="168" on="0"/>
        <pt x="453" y="96" on="0"/>
        <pt x="511" y="65" on="0"/>
        <pt x="562" y="65" on="1"/>
        <pt x="614" y="65" on="0"/>
        <pt x="700" y="89" on="1"/>
        <pt x="708" y="45" on="1"/>
        <pt x="635" y="-10" on="0"/>
        <pt x="522" y="-10" on="1"/>
        <pt x="397" y="-10" on="0"/>
        <pt x="344" y="68" on="1"/>
        <pt x="247" y="-10" on="0"/>
        <pt x="147" y="-10" on="1"/>
      </contour>
      <contour>
        <pt x="577" y="316" on="1"/>
        <pt x="577" y="381" on="0"/>
        <pt x="552" y="433" on="0"/>
        <pt x="517" y="433" on="1"/>
        <pt x="468" y="433" on="0"/>
        <pt x="432" y="358" on="0"/>
        <pt x="429" y="286" on="1"/>
      </contour>
      <contour>
        <pt x="232" y="71" on="0"/>
        <pt x="277" y="88" on="0"/>
        <pt x="292" y="98" on="1"/>
        <pt x="292" y="207" on="1"/>
        <pt x="232" y="196" on="1"/>
        <pt x="161" y="183" on="0"/>
        <pt x="161" y="127" on="1"/>
        <pt x="161" y="71" on="0"/>
        <pt x="213" y="71" on="1"/>
      </contour>
    </TTGlyph>
    <TTGlyph name="aeacute" xMin="29" yMin="-10" xMax="713" yMax="730">
      <component glyphName=".ttfautohint" x="29" y="0" flags="0x0"/>
      <component glyphName="ae" x="0" y="0" flags="0x0"/>
      <component glyphName="acute" x="261" y="0" flags="0x0"/>
    </TTGlyph>
    <TTGlyph name="agrave" xMin="34" yMin="-10" xMax="510" yMax="730">
      <contour>
        <pt x="92" y="667" on="1"/>
        <pt x="96" y="690" on="1"/>
        <pt x="193" y="730" on="1"/>
        <pt x="347" y="593" on="1"/>
        <pt x="324" y="558" on="1"/>
      </contour>
      <contour>
        <pt x="195" y="426" on="0"/>
        <pt x="161" y="414" on="1"/>
        <pt x="139" y="330" on="1"/>
        <pt x="80" y="330" on="1"/>
        <pt x="63" y="465" on="1"/>
        <pt x="163" y="502" on="0"/>
        <pt x="270" y="502" on="1"/>
        <pt x="351" y="502" on="0"/>
        <pt x="432" y="448" on="0"/>
        <pt x="432" y="377" on="1"/>
        <pt x="432" y="83" on="1"/>
        <pt x="510" y="55" on="1"/>
        <pt x="510" y="12" on="1"/>
        <pt x="470" y="2" on="0"/>
        <pt x="426" y="-5" on="0"/>
        <pt x="400" y="-5" on="1"/>
        <pt x="365" y="-5" on="0"/>
        <pt x="308" y="22" on="0"/>
        <pt x="300" y="48" on="1"/>
        <pt x="260" y="18" on="0"/>
        <pt x="192" y="-10" on="0"/>
        <pt x="152" y="-10" on="1"/>
        <pt x="97" y="-10" on="0"/>
        <pt x="34" y="56" on="0"/>
        <pt x="34" y="113" on="1"/>
        <pt x="34" y="161" on="0"/>
        <pt x="93" y="244" on="0"/>
        <pt x="162" y="258" on="1"/>
        <pt x="297" y="286" on="1"/>
        <pt x="297" y="356" on="1"/>
        <pt x="297" y="395" on="0"/>
        <pt x="268" y="426" on="0"/>
        <pt x="233" y="426" on="1"/>
      </contour>
      <contour>
        <pt x="198" y="203" on="0"/>
        <pt x="166" y="161" on="0"/>
        <pt x="166" y="127" on="1"/>
        <pt x="166" y="71" on="0"/>
        <pt x="218" y="71" on="1"/>
        <pt x="237" y="71" on="0"/>
        <pt x="282" y="88" on="0"/>
        <pt x="297" y="98" on="1"/>
        <pt x="297" y="228" on="1"/>
        <pt x="237" y="213" on="1"/>
      </contour>
    </TTGlyph>
    <TTGlyph name="amacron" xMin="34" yMin="-10" xMax="510" yMax="685">
      <contour>
        <pt x="362" y="685" on="1"/>
        <pt x="362" y="606" on="1"/>
        <pt x="121" y="606" on="1"/>
        <pt x="121" y="685" on="1"/>
      </contour>
      <contour>
        <pt x="195" y="426" on="0"/>
        <pt x="161" y="414" on="1"/>
        <pt x="139" y="330" on="1"/>
        <pt x="80" y="330" on="1"/>
        <pt x="63" y="465" on="1"/>
        <pt x="163" y="502" on="0"/>
        <pt x="270" y="502" on="1"/>
        <pt x="351" y="502" on="0"/>
        <pt x="432" y="448" on="0"/>
        <pt x="432" y="377" on="1"/>
        <pt x="432" y="83" on="1"/>
        <pt x="510" y="55" on="1"/>
        <pt x="510" y="12" on="1"/>
        <pt x="470" y="2" on="0"/>
        <pt x="426" y="-5" on="0"/>
        <pt x="400" y="-5" on="1"/>
        <pt x="365" y="-5" on="0"/>
        <pt x="308" y="22" on="0"/>
        <pt x="300" y="48" on="1"/>
        <pt x="260" y="18" on="0"/>
        <pt x="192" y="-10" on="0"/>
        <pt x="152" y="-10" on="1"/>
        <pt x="97" y="-10" on="0"/>
        <pt x="34" y="56" on="0"/>
        <pt x="34" y="113" on="1"/>
        <pt x="34" y="161" on="0"/>
        <pt x="93" y="244" on="0"/>
        <pt x="162" y="258" on="1"/>
        <pt x="297" y="286" on="1"/>
        <pt x="297" y="356" on="1"/>
        <pt x="297" y="395" on="0"/>
        <pt x="268" y="426" on="0"/>
        <pt x="233" y="426" on="1"/>
      </contour>
      <contour>
        <pt x="198" y="203" on="0"/>
        <pt x="166" y="161" on="0"/>
        <pt x="166" y="127" on="1"/>
        <pt x="166" y="71" on="0"/>
        <pt x="218" y="71" on="1"/>
        <pt x="237" y="71" on="0"/>
        <pt x="282" y="88" on="0"/>
        <pt x="297" y="98" on="1"/>
        <pt x="297" y="228" on="1"/>
        <pt x="237" y="213" on="1"/>
      </contour>
    </TTGlyph>
    <TTGlyph name="ampersand" xMin="28" yMin="-6" xMax="632" yMax="629">
      <contour>
        <pt x="341" y="-6" on="0"/>
        <pt x="227" y="-6" on="1"/>
        <pt x="158" y="-6" on="0"/>
        <pt x="69" y="40" on="0"/>
        <pt x="28" y="113" on="0"/>
        <pt x="28" y="154" on="1"/>
        <pt x="28" y="222" on="0"/>
        <pt x="100" y="308" on="0"/>
        <pt x="161" y="340" on="1"/>
        <pt x="96" y="427" on="0"/>
        <pt x="96" y="489" on="1"/>
        <pt x="96" y="540" on="0"/>
        <pt x="154" y="603" on="0"/>
        <pt x="236" y="629" on="0"/>
        <pt x="275" y="629" on="1"/>
        <pt x="348" y="629" on="0"/>
        <pt x="441" y="569" on="0"/>
        <pt x="441" y="513" on="1"/>
        <pt x="441" y="473" on="0"/>
        <pt x="406" y="416" on="0"/>
        <pt x="352" y="376" on="0"/>
        <pt x="299" y="344" on="1"/>
        <pt x="320" y="323" on="0"/>
        <pt x="412" y="220" on="1"/>
        <pt x="431" y="199" on="1"/>
        <pt x="444" y="235" on="0"/>
        <pt x="444" y="285" on="1"/>
        <pt x="411" y="298" on="1"/>
        <pt x="411" y="342" on="1"/>
        <pt x="595" y="342" on="1"/>
        <pt x="595" y="297" on="1"/>
        <pt x="519" y="284" on="1"/>
        <pt x="512" y="204" on="0"/>
        <pt x="480" y="143" on="1"/>
        <pt x="553" y="66" on="1"/>
        <pt x="632" y="45" on="1"/>
        <pt x="632" y="0" on="1"/>
        <pt x="453" y="0" on="1"/>
        <pt x="408" y="42" on="1"/>
      </contour>
      <contour>
        <pt x="215" y="478" on="0"/>
        <pt x="239" y="423" on="0"/>
        <pt x="258" y="400" on="1"/>
        <pt x="295" y="422" on="0"/>
        <pt x="333" y="465" on="0"/>
        <pt x="333" y="501" on="1"/>
        <pt x="333" y="524" on="0"/>
        <pt x="303" y="562" on="0"/>
        <pt x="271" y="562" on="1"/>
        <pt x="245" y="562" on="0"/>
        <pt x="215" y="532" on="0"/>
        <pt x="215" y="505" on="1"/>
      </contour>
      <contour>
        <pt x="290" y="52" on="0"/>
        <pt x="354" y="71" on="0"/>
        <pt x="372" y="88" on="1"/>
        <pt x="359" y="103" on="0"/>
        <pt x="325" y="137" on="1"/>
        <pt x="318" y="144" on="0"/>
        <pt x="230" y="236" on="0"/>
        <pt x="196" y="281" on="1"/>
        <pt x="146" y="240" on="0"/>
        <pt x="146" y="176" on="1"/>
        <pt x="146" y="119" on="0"/>
        <pt x="201" y="52" on="0"/>
        <pt x="253" y="52" on="1"/>
      </contour>
    </TTGlyph>
    <TTGlyph name="ampersand.001" xMin="28" yMin="-7" xMax="632" yMax="661">
      <contour>
        <pt x="343" y="-7" on="0"/>
        <pt x="227" y="-7" on="1"/>
        <pt x="158" y="-7" on="0"/>
        <pt x="69" y="41" on="0"/>
        <pt x="28" y="117" on="0"/>
        <pt x="28" y="160" on="1"/>
        <pt x="28" y="232" on="0"/>
        <pt x="100" y="323" on="0"/>
        <pt x="161" y="357" on="1"/>
        <pt x="96" y="447" on="0"/>
        <pt x="96" y="514" on="1"/>
        <pt x="96" y="568" on="0"/>
        <pt x="154" y="634" on="0"/>
        <pt x="236" y="661" on="0"/>
        <pt x="275" y="661" on="1"/>
        <pt x="348" y="661" on="0"/>
        <pt x="441" y="597" on="0"/>
        <pt x="441" y="538" on="1"/>
        <pt x="441" y="496" on="0"/>
        <pt x="406" y="435" on="0"/>
        <pt x="350" y="391" on="0"/>
        <pt x="299" y="360" on="1"/>
        <pt x="345" y="302" on="0"/>
        <pt x="431" y="204" on="1"/>
        <pt x="444" y="243" on="0"/>
        <pt x="444" y="300" on="1"/>
        <pt x="411" y="314" on="1"/>
        <pt x="411" y="358" on="1"/>
        <pt x="595" y="358" on="1"/>
        <pt x="595" y="313" on="1"/>
        <pt x="519" y="299" on="1"/>
        <pt x="512" y="211" on="0"/>
        <pt x="480" y="148" on="1"/>
        <pt x="553" y="67" on="1"/>
        <pt x="632" y="45" on="1"/>
        <pt x="632" y="0" on="1"/>
        <pt x="453" y="0" on="1"/>
        <pt x="408" y="48" on="1"/>
      </contour>
      <contour>
        <pt x="215" y="476" on="0"/>
        <pt x="258" y="416" on="1"/>
        <pt x="295" y="439" on="0"/>
        <pt x="333" y="487" on="0"/>
        <pt x="333" y="525" on="1"/>
        <pt x="333" y="551" on="0"/>
        <pt x="303" y="594" on="0"/>
        <pt x="271" y="594" on="1"/>
        <pt x="245" y="594" on="0"/>
        <pt x="215" y="560" on="0"/>
        <pt x="215" y="530" on="1"/>
      </contour>
      <contour>
        <pt x="291" y="54" on="0"/>
        <pt x="354" y="75" on="0"/>
        <pt x="372" y="94" on="1"/>
        <pt x="324" y="147" on="1"/>
        <pt x="292" y="182" on="0"/>
        <pt x="221" y="263" on="0"/>
        <pt x="196" y="298" on="1"/>
        <pt x="146" y="253" on="0"/>
        <pt x="146" y="184" on="1"/>
        <pt x="146" y="123" on="0"/>
        <pt x="201" y="54" on="0"/>
        <pt x="253" y="54" on="1"/>
      </contour>
    </TTGlyph>
    <TTGlyph name="aogonek" xMin="34" yMin="-233" xMax="522" yMax="502">
      <contour>
        <pt x="522" y="-171" on="1"/>
        <pt x="507" y="-195" on="0"/>
        <pt x="453" y="-233" on="0"/>
        <pt x="413" y="-233" on="1"/>
        <pt x="359" y="-233" on="0"/>
        <pt x="310" y="-185" on="0"/>
        <pt x="310" y="-149" on="1"/>
        <pt x="310" y="-113" on="0"/>
        <pt x="359" y="-36" on="0"/>
        <pt x="401" y="-5" on="1"/>
        <pt x="364" y="-5" on="0"/>
        <pt x="307" y="22" on="0"/>
        <pt x="300" y="48" on="1"/>
        <pt x="260" y="18" on="0"/>
        <pt x="192" y="-10" on="0"/>
        <pt x="152" y="-10" on="1"/>
        <pt x="97" y="-10" on="0"/>
        <pt x="34" y="56" on="0"/>
        <pt x="34" y="113" on="1"/>
        <pt x="34" y="161" on="0"/>
        <pt x="93" y="244" on="0"/>
        <pt x="162" y="258" on="1"/>
        <pt x="297" y="286" on="1"/>
        <pt x="297" y="356" on="1"/>
        <pt x="297" y="395" on="0"/>
        <pt x="268" y="426" on="0"/>
        <pt x="233" y="426" on="1"/>
        <pt x="195" y="426" on="0"/>
        <pt x="161" y="414" on="1"/>
        <pt x="139" y="330" on="1"/>
        <pt x="80" y="330" on="1"/>
        <pt x="63" y="465" on="1"/>
        <pt x="163" y="502" on="0"/>
        <pt x="270" y="502" on="1"/>
        <pt x="351" y="502" on="0"/>
        <pt x="432" y="448" on="0"/>
        <pt x="432" y="377" on="1"/>
        <pt x="432" y="83" on="1"/>
        <pt x="510" y="55" on="1"/>
        <pt x="510" y="12" on="1"/>
        <pt x="471" y="4" on="0"/>
        <pt x="419" y="-44" on="0"/>
        <pt x="395" y="-101" on="0"/>
        <pt x="395" y="-125" on="1"/>
        <pt x="395" y="-171" on="0"/>
        <pt x="439" y="-171" on="1"/>
        <pt x="467" y="-171" on="0"/>
        <pt x="499" y="-149" on="1"/>
      </contour>
      <contour>
        <pt x="297" y="228" on="1"/>
        <pt x="237" y="213" on="1"/>
        <pt x="198" y="203" on="0"/>
        <pt x="166" y="161" on="0"/>
        <pt x="166" y="127" on="1"/>
        <pt x="166" y="71" on="0"/>
        <pt x="218" y="71" on="1"/>
        <pt x="237" y="71" on="0"/>
        <pt x="282" y="88" on="0"/>
        <pt x="297" y="98" on="1"/>
      </contour>
    </TTGlyph>
    <TTGlyph name="approxequal" xMin="30" yMin="154" xMax="480" yMax="446">
      <contour>
        <pt x="30" y="341" on="1"/>
        <pt x="81" y="446" on="0"/>
        <pt x="155" y="446" on="1"/>
        <pt x="179" y="446" on="0"/>
        <pt x="226" y="430" on="0"/>
        <pt x="258" y="416" on="1"/>
        <pt x="287" y="403" on="0"/>
        <pt x="326" y="389" on="0"/>
        <pt x="345" y="389" on="1"/>
        <pt x="372" y="389" on="0"/>
        <pt x="407" y="414" on="0"/>
        <pt x="428" y="446" on="1"/>
        <pt x="480" y="419" on="1"/>
        <pt x="419" y="308" on="0"/>
        <pt x="340" y="308" on="1"/>
        <pt x="318" y="308" on="0"/>
        <pt x="274" y="323" on="0"/>
        <pt x="246" y="337" on="1"/>
        <pt x="215" y="352" on="0"/>
        <pt x="174" y="366" on="0"/>
        <pt x="151" y="366" on="1"/>
        <pt x="131" y="366" on="0"/>
        <pt x="98" y="341" on="0"/>
        <pt x="79" y="313" on="1"/>
      </contour>
      <contour>
        <pt x="30" y="187" on="1"/>
        <pt x="81" y="292" on="0"/>
        <pt x="155" y="292" on="1"/>
        <pt x="179" y="292" on="0"/>
        <pt x="226" y="276" on="0"/>
        <pt x="258" y="262" on="1"/>
        <pt x="287" y="249" on="0"/>
        <pt x="326" y="235" on="0"/>
        <pt x="345" y="235" on="1"/>
        <pt x="372" y="235" on="0"/>
        <pt x="407" y="260" on="0"/>
        <pt x="428" y="292" on="1"/>
        <pt x="480" y="265" on="1"/>
        <pt x="419" y="154" on="0"/>
        <pt x="340" y="154" on="1"/>
        <pt x="318" y="154" on="0"/>
        <pt x="274" y="169" on="0"/>
        <pt x="246" y="183" on="1"/>
        <pt x="215" y="198" on="0"/>
        <pt x="174" y="212" on="0"/>
        <pt x="151" y="212" on="1"/>
        <pt x="131" y="212" on="0"/>
        <pt x="98" y="187" on="0"/>
        <pt x="79" y="159" on="1"/>
      </contour>
    </TTGlyph>
    <TTGlyph name="aring" xMin="34" yMin="-10" xMax="510" yMax="760">
      <contour>
        <pt x="358" y="606" on="0"/>
        <pt x="300" y="548" on="0"/>
        <pt x="244" y="548" on="1"/>
        <pt x="190" y="548" on="0"/>
        <pt x="131" y="606" on="0"/>
        <pt x="131" y="652" on="1"/>
        <pt x="131" y="699" on="0"/>
        <pt x="190" y="760" on="0"/>
        <pt x="244" y="760" on="1"/>
        <pt x="299" y="760" on="0"/>
        <pt x="358" y="699" on="0"/>
        <pt x="358" y="652" on="1"/>
      </contour>
      <contour>
        <pt x="220" y="707" on="0"/>
        <pt x="205" y="679" on="0"/>
        <pt x="205" y="652" on="1"/>
        <pt x="205" y="626" on="0"/>
        <pt x="220" y="600" on="0"/>
        <pt x="244" y="600" on="1"/>
        <pt x="268" y="600" on="0"/>
        <pt x="284" y="626" on="0"/>
        <pt x="284" y="652" on="1"/>
        <pt x="284" y="679" on="0"/>
        <pt x="268" y="707" on="0"/>
        <pt x="244" y="707" on="1"/>
      </contour>
      <contour>
        <pt x="195" y="426" on="0"/>
        <pt x="161" y="414" on="1"/>
        <pt x="139" y="330" on="1"/>
        <pt x="80" y="330" on="1"/>
        <pt x="63" y="465" on="1"/>
        <pt x="163" y="502" on="0"/>
        <pt x="270" y="502" on="1"/>
        <pt x="351" y="502" on="0"/>
        <pt x="432" y="448" on="0"/>
        <pt x="432" y="377" on="1"/>
        <pt x="432" y="83" on="1"/>
        <pt x="510" y="55" on="1"/>
        <pt x="510" y="12" on="1"/>
        <pt x="470" y="2" on="0"/>
        <pt x="426" y="-5" on="0"/>
        <pt x="400" y="-5" on="1"/>
        <pt x="365" y="-5" on="0"/>
        <pt x="308" y="22" on="0"/>
        <pt x="300" y="48" on="1"/>
        <pt x="260" y="18" on="0"/>
        <pt x="192" y="-10" on="0"/>
        <pt x="152" y="-10" on="1"/>
        <pt x="97" y="-10" on="0"/>
        <pt x="34" y="56" on="0"/>
        <pt x="34" y="113" on="1"/>
        <pt x="34" y="161" on="0"/>
        <pt x="93" y="244" on="0"/>
        <pt x="162" y="258" on="1"/>
        <pt x="297" y="286" on="1"/>
        <pt x="297" y="356" on="1"/>
        <pt x="297" y="395" on="0"/>
        <pt x="268" y="426" on="0"/>
        <pt x="233" y="426" on="1"/>
      </contour>
      <contour>
        <pt x="198" y="203" on="0"/>
        <pt x="166" y="161" on="0"/>
        <pt x="166" y="127" on="1"/>
        <pt x="166" y="71" on="0"/>
        <pt x="218" y="71" on="1"/>
        <pt x="237" y="71" on="0"/>
        <pt x="282" y="88" on="0"/>
        <pt x="297" y="98" on="1"/>
        <pt x="297" y="228" on="1"/>
        <pt x="237" y="213" on="1"/>
      </contour>
    </TTGlyph>
    <TTGlyph name="aringacute" xMin="34" yMin="-10" xMax="510" yMax="858">
      <contour>
        <pt x="203" y="505" on="0"/>
        <pt x="144" y="557" on="0"/>
        <pt x="144" y="599" on="1"/>
        <pt x="144" y="634" on="0"/>
        <pt x="184" y="684" on="0"/>
        <pt x="221" y="693" on="1"/>
        <pt x="195" y="727" on="1"/>
        <pt x="351" y="858" on="1"/>
        <pt x="450" y="824" on="1"/>
        <pt x="450" y="801" on="1"/>
        <pt x="227" y="694" on="1"/>
        <pt x="241" y="697" on="0"/>
        <pt x="257" y="697" on="1"/>
        <pt x="312" y="697" on="0"/>
        <pt x="371" y="642" on="0"/>
        <pt x="371" y="599" on="1"/>
        <pt x="371" y="557" on="0"/>
        <pt x="313" y="505" on="0"/>
        <pt x="257" y="505" on="1"/>
      </contour>
      <contour>
        <pt x="233" y="649" on="0"/>
        <pt x="218" y="622" on="0"/>
        <pt x="218" y="599" on="1"/>
        <pt x="218" y="577" on="0"/>
        <pt x="233" y="552" on="0"/>
        <pt x="257" y="552" on="1"/>
        <pt x="281" y="552" on="0"/>
        <pt x="297" y="577" on="0"/>
        <pt x="297" y="599" on="1"/>
        <pt x="297" y="622" on="0"/>
        <pt x="281" y="649" on="0"/>
        <pt x="257" y="649" on="1"/>
      </contour>
      <contour>
        <pt x="510" y="55" on="1"/>
        <pt x="510" y="12" on="1"/>
        <pt x="470" y="2" on="0"/>
        <pt x="426" y="-5" on="0"/>
        <pt x="400" y="-5" on="1"/>
        <pt x="365" y="-5" on="0"/>
        <pt x="308" y="22" on="0"/>
        <pt x="300" y="48" on="1"/>
        <pt x="260" y="18" on="0"/>
        <pt x="192" y="-10" on="0"/>
        <pt x="152" y="-10" on="1"/>
        <pt x="97" y="-10" on="0"/>
        <pt x="34" y="56" on="0"/>
        <pt x="34" y="113" on="1"/>
        <pt x="34" y="161" on="0"/>
        <pt x="93" y="244" on="0"/>
        <pt x="162" y="258" on="1"/>
        <pt x="297" y="286" on="1"/>
        <pt x="297" y="356" on="1"/>
        <pt x="297" y="395" on="0"/>
        <pt x="268" y="426" on="0"/>
        <pt x="233" y="426" on="1"/>
        <pt x="195" y="426" on="0"/>
        <pt x="161" y="414" on="1"/>
        <pt x="139" y="330" on="1"/>
        <pt x="80" y="330" on="1"/>
        <pt x="63" y="465" on="1"/>
        <pt x="163" y="502" on="0"/>
        <pt x="270" y="502" on="1"/>
        <pt x="351" y="502" on="0"/>
        <pt x="432" y="448" on="0"/>
        <pt x="432" y="377" on="1"/>
        <pt x="432" y="83" on="1"/>
      </contour>
      <contour>
        <pt x="297" y="228" on="1"/>
        <pt x="237" y="213" on="1"/>
        <pt x="198" y="203" on="0"/>
        <pt x="166" y="161" on="0"/>
        <pt x="166" y="127" on="1"/>
        <pt x="166" y="71" on="0"/>
        <pt x="218" y="71" on="1"/>
        <pt x="237" y="71" on="0"/>
        <pt x="282" y="88" on="0"/>
        <pt x="297" y="98" on="1"/>
      </contour>
    </TTGlyph>
    <TTGlyph name="arrowdown" xMin="61" yMin="28" xMax="495" yMax="504">
      <contour>
        <pt x="102" y="365" on="1"/>
        <pt x="244" y="208" on="1"/>
        <pt x="233" y="504" on="1"/>
        <pt x="339" y="504" on="1"/>
        <pt x="325" y="210" on="1"/>
        <pt x="457" y="366" on="1"/>
        <pt x="495" y="325" on="1"/>
        <pt x="293" y="28" on="1"/>
        <pt x="277" y="28" on="1"/>
        <pt x="61" y="325" on="1"/>
      </contour>
    </TTGlyph>
    <TTGlyph name="arrowleft" xMin="40" yMin="44" xMax="516" yMax="477">
      <contour>
        <pt x="516" y="322" on="1"/>
        <pt x="516" y="216" on="1"/>
        <pt x="218" y="227" on="1"/>
        <pt x="376" y="83" on="1"/>
        <pt x="336" y="44" on="1"/>
        <pt x="40" y="259" on="1"/>
        <pt x="40" y="276" on="1"/>
        <pt x="336" y="477" on="1"/>
        <pt x="377" y="440" on="1"/>
        <pt x="220" y="308" on="1"/>
      </contour>
    </TTGlyph>
    <TTGlyph name="arrowright" xMin="42" yMin="44" xMax="518" yMax="477">
      <contour>
        <pt x="181" y="83" on="1"/>
        <pt x="338" y="227" on="1"/>
        <pt x="42" y="216" on="1"/>
        <pt x="42" y="322" on="1"/>
        <pt x="337" y="308" on="1"/>
        <pt x="180" y="440" on="1"/>
        <pt x="220" y="477" on="1"/>
        <pt x="518" y="276" on="1"/>
        <pt x="518" y="259" on="1"/>
        <pt x="220" y="44" on="1"/>
      </contour>
    </TTGlyph>
    <TTGlyph name="arrowup" xMin="62" yMin="19" xMax="496" yMax="493">
      <contour>
        <pt x="456" y="159" on="1"/>
        <pt x="314" y="316" on="1"/>
        <pt x="325" y="19" on="1"/>
        <pt x="220" y="19" on="1"/>
        <pt x="233" y="314" on="1"/>
        <pt x="99" y="158" on="1"/>
        <pt x="62" y="199" on="1"/>
        <pt x="262" y="493" on="1"/>
        <pt x="281" y="493" on="1"/>
        <pt x="496" y="199" on="1"/>
      </contour>
    </TTGlyph>
    <TTGlyph name="asciicircum" xMin="19" yMin="249" xMax="432" yMax="614">
      <contour>
        <pt x="201" y="614" on="1"/>
        <pt x="251" y="614" on="1"/>
        <pt x="432" y="249" on="1"/>
        <pt x="342" y="249" on="1"/>
        <pt x="226" y="489" on="1"/>
        <pt x="109" y="249" on="1"/>
        <pt x="19" y="249" on="1"/>
      </contour>
    </TTGlyph>
    <TTGlyph name="asciitilde" xMin="49" yMin="195" xMax="471" yMax="325">
      <contour>
        <pt x="146" y="249" on="0"/>
        <pt x="116" y="227" on="0"/>
        <pt x="97" y="201" on="1"/>
        <pt x="49" y="227" on="1"/>
        <pt x="73" y="277" on="0"/>
        <pt x="133" y="325" on="0"/>
        <pt x="167" y="325" on="1"/>
        <pt x="189" y="325" on="0"/>
        <pt x="233" y="311" on="0"/>
        <pt x="263" y="297" on="1"/>
        <pt x="292" y="285" on="0"/>
        <pt x="326" y="273" on="0"/>
        <pt x="343" y="273" on="1"/>
        <pt x="369" y="273" on="0"/>
        <pt x="400" y="295" on="0"/>
        <pt x="419" y="325" on="1"/>
        <pt x="471" y="298" on="1"/>
        <pt x="414" y="195" on="0"/>
        <pt x="339" y="195" on="1"/>
        <pt x="317" y="195" on="0"/>
        <pt x="277" y="209" on="0"/>
        <pt x="252" y="222" on="1"/>
        <pt x="222" y="236" on="0"/>
        <pt x="185" y="249" on="0"/>
        <pt x="163" y="249" on="1"/>
      </contour>
    </TTGlyph>
    <TTGlyph name="asterisk" xMin="0" yMin="416" xMax="352" yMax="753">
      <contour>
        <pt x="35" y="477" on="1"/>
        <pt x="113" y="558" on="1"/>
        <pt x="110" y="568" on="1"/>
        <pt x="0" y="586" on="1"/>
        <pt x="29" y="685" on="1"/>
        <pt x="135" y="633" on="1"/>
        <pt x="141" y="639" on="1"/>
        <pt x="124" y="753" on="1"/>
        <pt x="226" y="753" on="1"/>
        <pt x="210" y="639" on="1"/>
        <pt x="219" y="633" on="1"/>
        <pt x="322" y="685" on="1"/>
        <pt x="352" y="586" on="1"/>
        <pt x="241" y="568" on="1"/>
        <pt x="238" y="558" on="1"/>
        <pt x="317" y="477" on="1"/>
        <pt x="232" y="416" on="1"/>
        <pt x="181" y="516" on="1"/>
        <pt x="170" y="516" on="1"/>
        <pt x="120" y="416" on="1"/>
      </contour>
    </TTGlyph>
</ttFont>
